<svg width="104" height="69" viewBox="0 0 104 69" fill="none" xmlns="http://www.w3.org/2000/svg">
<g id="Layer_1" clip-path="url(#clip0_174_200)">
<path id="Vector" d="M46.7052 8.67941C51.7876 5.77844 56.8226 2.90506 61.9121 0C70.6748 15.0607 79.4292 30.1072 88.2443 45.2558C87.9838 45.2558 87.8088 45.2558 87.6349 45.2558C81.2194 45.2558 74.8028 45.2507 68.3873 45.267C67.9756 45.268 67.7831 45.1148 67.5947 44.7888C62.153 35.3747 56.7042 25.9657 51.2564 16.5567C49.8213 14.0788 48.3863 11.6018 46.9512 9.12391C46.8761 8.99311 46.8061 8.85925 46.7073 8.67941H46.7052Z" fill="#F2F3D9"/>
<path id="Vector_2" d="M61.5941 45.2669H45.6933V49.5136H41.3398C41.3398 48.925 41.2811 48.3303 41.3511 47.7499C41.558 46.0128 40.9939 44.5496 40.1034 43.0597C36.5467 37.1045 33.0919 31.089 29.6 25.095C29.5145 24.9488 29.4332 24.8007 29.3159 24.5953C34.3776 21.6923 39.4271 18.7964 44.5218 15.875C50.2074 25.6641 55.8704 35.4134 61.5941 45.2669Z" fill="#F2F3D9"/>
<path id="Vector_3" d="M39.1666 68.5505H34.882V67.4337C32.155 69.0707 29.3549 69.4753 26.4169 68.3656C24.5474 67.6595 23.0753 66.4446 22.0027 64.7698C19.8264 61.3712 20.1764 57.0928 22.8015 54.0528C25.092 51.3992 30.1239 49.5701 34.8439 52.4629V45.2876H39.1666V68.5505ZM29.8079 54.9582C27.049 54.9674 24.7389 57.2389 24.7358 59.9457C24.7327 62.6403 27.0686 64.9026 29.8419 64.8914C32.5483 64.8801 34.8594 62.6117 34.8625 59.9631C34.8656 57.2583 32.5339 54.95 29.8069 54.9592L29.8079 54.9582Z" fill="#F2F3D9"/>
<path id="Vector_4" d="M61.6785 52.5014V45.272H65.9342V68.5329H61.7135C61.6949 68.2059 61.6764 67.8738 61.6538 67.4784C59.1738 68.959 56.5838 69.4055 53.8331 68.5738C51.8627 67.978 50.3 66.8101 49.0945 65.1598C46.7907 62.0054 46.8576 57.5891 49.2757 54.4991C50.7489 52.6159 52.6863 51.4724 55.0581 51.1066C57.3898 50.7469 59.5836 51.1771 61.6795 52.5014H61.6785ZM51.6362 59.9209C51.6177 62.5756 53.8804 64.8686 56.5395 64.8901C59.3303 64.9125 61.6476 62.7033 61.6816 59.9863C61.7155 57.2866 59.4199 54.9875 56.6589 54.9579C53.9618 54.9293 51.6548 57.208 51.6362 59.9199V59.9209Z" fill="#F2F3D9"/>
<path id="Vector_5" d="M81.624 52.4975V51.1794H85.9178V68.5392H81.6271V67.452C79.2954 68.8887 76.8721 69.3464 74.2758 68.6976C72.2777 68.1979 70.647 67.1148 69.3757 65.5187C66.8072 62.2938 66.7475 57.8253 69.2274 54.5759C70.6779 52.6753 72.6081 51.5084 74.9748 51.1201C77.3199 50.7349 79.5342 51.1507 81.624 52.4975ZM81.6291 59.962C81.6322 57.2204 79.3819 54.9571 76.6538 54.9581C73.9423 54.9601 71.6312 57.2541 71.6322 59.9446C71.6322 62.6085 73.9299 64.879 76.6363 64.8903C79.3572 64.9015 81.626 62.6616 81.6291 59.962Z" fill="#F2F3D9"/>
<path id="Vector_6" d="M19.0368 68.5547H14.8243V67.5421C9.65757 70.0568 5.17743 69.4713 1.85232 64.5972C-0.336277 61.3886 0.0971188 57.1164 2.61205 54.1909C4.11813 52.4395 6.03289 51.3911 8.34194 51.0825C10.6335 50.7759 12.7634 51.2398 14.7832 52.5028V51.1867H19.0348V68.5547H19.0368ZM4.67712 59.9775C4.68432 62.6383 6.9841 64.8884 9.69977 64.8904C12.469 64.8935 14.8027 62.621 14.7955 59.9305C14.7883 57.2359 12.4535 54.9562 9.70492 54.9572C6.96248 54.9593 4.66888 57.2482 4.67712 59.9775Z" fill="#F2F3D9"/>
<path id="Vector_7" d="M26.699 31.3774C29.3746 35.9869 32.0326 40.5678 34.7359 45.2242C34.4981 45.2375 34.3385 45.2549 34.179 45.2549C27.7624 45.2559 21.3459 45.2529 14.9284 45.2641C14.5753 45.2641 14.3745 45.164 14.2005 44.8543C13.3152 43.2817 12.4073 41.7224 11.4859 40.1212C16.5662 37.2019 21.6187 34.2978 26.699 31.3774Z" fill="#F2F3D9"/>
<path id="Vector_8" d="M102.702 56.6952C101.32 56.6952 99.9851 56.7034 98.6499 56.6809C98.5346 56.6789 98.3431 56.4899 98.3215 56.3652C98.0899 55.0317 97.463 54.4258 96.0887 54.3685C95.3753 54.3389 94.6536 54.4063 93.9423 54.485C93.6664 54.5157 93.3812 54.6567 93.1455 54.8141C92.2879 55.3893 92.2828 56.5031 93.2237 56.9098C94.1512 57.3104 95.1786 57.4872 96.169 57.7365C97.5752 58.0911 99.0339 58.2975 100.385 58.7961C102.051 59.4102 103.219 60.6303 103.405 62.4757C103.632 64.7299 102.804 66.8931 100.366 68.0488C98.4698 68.948 96.4448 69.0962 94.387 68.9255C92.6822 68.7845 91.0897 68.3063 89.7411 67.2058C88.5758 66.2544 87.9169 65.0191 87.7038 63.5435C87.6802 63.38 87.6874 63.2135 87.6781 63.0173H92.1377C92.1624 63.0449 92.1974 63.0663 92.2035 63.0929C92.5412 64.7278 93.3915 65.532 95.0994 65.6822C95.7685 65.7415 96.4696 65.6689 97.1284 65.53C97.5206 65.4472 97.9128 65.1734 98.2114 64.8883C99.0833 64.0585 98.8774 62.9315 97.7358 62.5524C96.8185 62.2479 95.8354 62.1426 94.8852 61.9321C93.7014 61.6685 92.501 61.4539 91.345 61.0993C89.5074 60.5353 88.41 59.2365 88.1239 57.3604C87.8233 55.3842 88.4944 53.7289 90.1148 52.5149C91.9904 51.1099 94.1636 50.8606 96.4201 51.0476C97.8047 51.162 99.1121 51.5514 100.268 52.3494C101.635 53.2936 102.425 54.6005 102.699 56.2221C102.72 56.3529 102.702 56.4898 102.702 56.6963V56.6952Z" fill="#F2F3D9"/>
<path id="Vector_9" d="M41.382 51.2007H45.6418V68.5411H41.382V51.2007Z" fill="#F2F3D9"/>
</g>
<defs>
<clipPath id="clip0_174_200">
<rect width="103" height="69" fill="white" transform="translate(0.439941)"/>
</clipPath>
</defs>
</svg>
