<svg width="43" height="53" viewBox="0 0 43 53" fill="none" xmlns="http://www.w3.org/2000/svg">
<g id="Layer_1" clip-path="url(#clip0_174_185)">
<g id="BYNvYe.tif">
<g id="Group">
<path id="Vector" d="M0.439941 29.423C0.439941 28.9322 0.439941 28.4411 0.439941 27.9502C0.446244 27.9004 0.45658 27.8506 0.458344 27.8008C0.496914 26.6952 0.622205 25.5997 0.844803 24.5163C1.29353 22.3332 2.10477 20.305 3.40632 18.4903C4.58133 16.8519 6.04498 15.5429 7.82275 14.6004C9.19993 13.8702 10.6638 13.4233 12.2142 13.2645C13.2753 13.1558 14.3247 13.2002 15.3666 13.4419C16.3261 13.6644 17.2442 14.0089 18.1566 14.3738C18.9743 14.7007 19.7821 15.0546 20.6334 15.2909C21.3488 15.4896 22.065 15.5287 22.7807 15.3084C23.2332 15.1692 23.6837 15.0208 24.1281 14.8575C25.191 14.4672 26.2424 14.044 27.3123 13.6748C28.3562 13.3146 29.4375 13.1093 30.5434 13.0755C31.8341 13.0359 33.1082 13.1726 34.3588 13.5028C37.1331 14.2355 39.3609 15.7718 41.0295 18.126C41.0527 18.1585 41.0733 18.1928 41.0973 18.2296C41.0464 18.2652 41.0081 18.2906 40.971 18.318C40.5719 18.613 40.1577 18.8897 39.7766 19.2067C38.2212 20.5014 37.0273 22.0705 36.2853 23.9719C35.5775 25.7859 35.3869 27.6647 35.6054 29.593C35.7544 30.9082 36.119 32.1597 36.727 33.3337C37.835 35.4734 39.4932 37.0649 41.5722 38.2292C41.8528 38.3865 42.147 38.5191 42.4397 38.6657C42.4263 38.7142 42.414 38.7633 42.3991 38.8113C41.9448 40.2935 41.3317 41.7088 40.636 43.0902C39.7529 44.8432 38.65 46.4532 37.4813 48.0199C36.751 48.9993 35.9702 49.934 35.0395 50.7305C34.2275 51.4254 33.3358 51.9774 32.2947 52.249C31.1613 52.5448 30.0317 52.4657 28.9081 52.1842C28.1516 51.9947 27.4429 51.6738 26.7353 51.3547C25.4942 50.7948 24.2098 50.4279 22.8412 50.386C21.819 50.3548 20.8141 50.4521 19.8257 50.7209C18.993 50.9475 18.2037 51.29 17.4131 51.6294C16.3861 52.0702 15.3419 52.4358 14.211 52.4919C13.3741 52.5336 12.5727 52.4022 11.8043 52.0679C11.009 51.7219 10.3185 51.217 9.68193 50.6324C8.77818 49.8022 8.00324 48.8563 7.26965 47.8754C6.37296 46.6762 5.47626 45.4755 4.73511 44.1689C2.26207 39.8108 0.80825 35.1373 0.48431 30.1176C0.469436 29.8862 0.454815 29.6547 0.439941 29.423Z" fill="#F2F3D9"/>
<path id="Vector_2" d="M31.6808 0.5C31.7078 0.942319 31.764 1.38515 31.7565 1.82696C31.734 3.14908 31.4267 4.4138 30.9248 5.63074C30.2585 7.24682 29.3114 8.67337 28.0232 9.8517C26.7154 11.0478 25.2126 11.8976 23.486 12.3174C22.8417 12.4741 22.1888 12.5442 21.5258 12.4609C21.3276 12.436 21.3289 12.4388 21.3006 12.2376C21.1398 11.0867 21.3014 9.96374 21.6435 8.87026C22.6372 5.69477 24.5892 3.30965 27.5087 1.73803C28.4122 1.25176 29.3591 0.879566 30.3642 0.671745C30.6798 0.606451 31.0019 0.572915 31.3208 0.523882C31.3571 0.518292 31.3929 0.50813 31.429 0.500254C31.5129 0.500254 31.5969 0.500254 31.6808 0.500254V0.5Z" fill="#F2F3D9"/>
</g>
</g>
</g>
<defs>
<clipPath id="clip0_174_185">
<rect width="42" height="52" fill="white" transform="translate(0.439941 0.5)"/>
</clipPath>
</defs>
</svg>
