<svg width="117" height="74" viewBox="0 0 117 74" fill="none" xmlns="http://www.w3.org/2000/svg">
<g id="Layer_1" clip-path="url(#clip0_174_303)">
<path id="Vector" d="M53.3516 9.29084C47.109 6.95799 37.4262 8.46408 31.9556 17.2583C29.5305 16.0121 27.0948 14.7587 24.5816 13.4668C25.6602 11.5008 26.9485 9.78058 28.4484 8.21833C36.753 -0.442535 49.3174 -2.4682 59.9537 3.15943C60.4824 3.43853 60.812 3.26826 61.2332 3.03831C73.4064 -3.57231 89.3529 0.982804 96.17 13.0157C96.2405 13.1403 96.3004 13.2702 96.4009 13.4703C93.9599 14.7307 91.5418 15.9769 89.0938 17.2408C83.8435 9.60856 76.7832 6.81756 67.5551 9.15744C71.7232 14.2251 73.884 19.8492 73.8928 26.2264C73.9016 32.6211 71.7373 38.2435 67.5551 43.2585C71.6527 44.5785 75.6323 44.5662 79.5784 43.1251C83.5139 41.6875 86.5594 39.1194 88.8382 35.5332C91.3321 36.8129 93.7731 38.0644 96.2563 39.3388C94.011 43.183 91.103 46.2917 87.3613 48.5245C78.8347 53.608 70.0753 53.9573 61.1768 49.4864C60.6199 49.2073 60.2392 49.267 59.7351 49.5391C47.7576 56.0444 31.8869 51.6104 25.0451 39.8566C24.9588 39.7092 24.8935 39.5512 24.779 39.3195C27.227 38.0627 29.6451 36.8199 32.0825 35.5683C37.398 43.0636 44.4548 45.6598 53.5102 43.3375C49.2786 38.3084 47.1055 32.679 47.1002 26.2966C47.0949 19.9212 49.2134 14.269 53.3498 9.2926L53.3516 9.29084ZM60.5212 38.6402C67.8141 31.0624 66.5734 19.6491 60.4789 14.0478C53.8186 20.4408 53.7816 31.9313 60.5212 38.6402Z" fill="#F2F3D9"/>
<path id="Vector_2" d="M63.1102 55.9602C64.5942 55.9602 66.0023 55.9181 67.4052 55.9918C67.7242 56.0076 68.1032 56.364 68.3182 56.6606C70.4825 59.6482 72.6185 62.6586 74.7652 65.6585C74.9273 65.8849 75.1124 66.0973 75.4279 66.494V56.0164H78.7976V73.5663C77.9587 73.5663 77.1427 73.6137 76.339 73.5382C76.0923 73.5154 75.835 73.1819 75.657 72.9379C72.8177 69.027 69.9907 65.1091 67.1585 61.1929C66.9928 60.963 66.8113 60.7453 66.4835 60.324V73.5172H63.1084V55.9585L63.1102 55.9602Z" fill="#F2F3D9"/>
<path id="Vector_3" d="M60.0982 73.5697C58.8856 73.5697 57.6872 73.5908 56.4905 73.5487C56.3037 73.5417 56.0587 73.2889 55.96 73.0888C55.5687 72.3059 55.2057 71.5055 54.869 70.6962C54.6769 70.2363 54.4143 70.031 53.8821 70.0362C51.2702 70.0626 48.66 70.0292 46.0481 70.0749C45.7379 70.0801 45.3114 70.3768 45.151 70.6594C44.735 71.3931 44.4125 72.1848 44.1006 72.9712C43.9243 73.4135 43.6793 73.6031 43.1859 73.5873C42.1037 73.5539 41.0198 73.5768 39.8319 73.5768C39.9165 73.2942 39.9535 73.0818 40.0399 72.8887C42.4368 67.4927 44.8478 62.1056 47.2236 56.7009C47.4774 56.1216 47.7876 55.9198 48.4062 55.9461C49.5201 55.9935 50.6374 55.9285 51.7495 55.9812C52.0298 55.9935 52.4457 56.2059 52.5514 56.4376C55.0823 62.0284 57.5797 67.6332 60.0806 73.2362C60.1123 73.3082 60.0911 73.403 60.0982 73.5697ZM46.9804 66.4782H53.1172C52.0615 64.1365 51.0587 61.909 49.973 59.4989C48.9332 61.923 47.9726 64.1629 46.9804 66.4782Z" fill="#F2F3D9"/>
<path id="Vector_4" d="M85.153 73.5103V56.02H97.4178V59.4587H88.6021V63.0361H96.7269V66.5398C95.5919 66.5398 94.4868 66.5398 93.3818 66.5398C92.0018 66.5398 90.6218 66.5152 89.2436 66.5626C89.0021 66.5714 88.5792 66.868 88.5651 67.0559C88.4963 68.0108 88.5333 68.9745 88.5333 70.0505H98.6515V73.5103H85.153Z" fill="#F2F3D9"/>
<path id="Vector_5" d="M21.2171 56.0093H24.5234V62.2302H33.5118V56.0303H36.8781V73.5311H33.5471V65.9024H24.5551V73.5065H21.2153V56.0093H21.2171Z" fill="#F2F3D9"/>
<path id="Vector_6" d="M17.4754 60.8105C16.5731 61.4547 15.6954 62.0796 14.7366 62.7642C13.7197 60.7122 12.2093 59.4133 9.89345 59.3185C8.3143 59.2535 6.96075 59.8135 5.83279 60.9106C3.50285 63.1767 3.66852 67.0051 6.18528 69.1747C8.80955 71.4356 12.0189 70.6931 14.7155 67.135C15.609 67.7687 16.5079 68.4024 17.3944 69.0308C16.2805 72.0184 11.9678 74.4495 8.76901 73.93C4.17434 73.1822 0.936747 69.689 0.72878 65.2568C0.529625 61.0001 3.49404 57.0488 7.65515 56.0255C11.5219 55.0758 15.6971 57.0716 17.4754 60.8123V60.8105Z" fill="#F2F3D9"/>
<path id="Vector_7" d="M103.641 73.5101V56.0356H107.025V70.0573H116.722V73.5101H103.643H103.641Z" fill="#F2F3D9"/>
</g>
<defs>
<clipPath id="clip0_174_303">
<rect width="116" height="74" fill="white" transform="translate(0.719971)"/>
</clipPath>
</defs>
</svg>
