<svg width="156" height="43" viewBox="0 0 156 43" fill="none" xmlns="http://www.w3.org/2000/svg">
<path fill-rule="evenodd" clip-rule="evenodd" d="M14.6814 6.11239C14.639 6.11176 14.5965 6.11145 14.554 6.11145C9.8913 6.11145 6.11145 9.8913 6.11145 14.554C6.11145 16.1379 6.5476 17.6198 7.30634 18.8864L4.01349 24.5898C1.52661 21.9787 0 18.4446 0 14.554C0 6.51605 6.51605 0 14.554 0C22.5919 0 29.108 6.51605 29.108 14.554C29.108 18.0537 27.8728 21.2648 25.8145 23.7753L22.3561 17.7852C22.7688 16.7899 22.9965 15.6986 22.9965 14.554C22.9965 10.2653 19.7988 6.72353 15.6575 6.18292L15.1491 5.30234L14.6814 6.11239Z" fill="#DB6332"/>
<path d="M16.6236 42.4536C14.6891 42.4536 13.3104 42.0425 12.4877 41.2205C11.665 40.3984 11.2536 39.1098 11.2536 37.3545V19.6577H17.5242V36.6547C17.5242 37.1435 17.6242 37.4767 17.8243 37.6545C18.0245 37.81 18.3358 37.8878 18.7582 37.8878C19.0473 37.8878 19.3253 37.8656 19.5921 37.8211C19.8812 37.7767 20.148 37.71 20.3926 37.6211V41.787C19.8145 42.0092 19.2474 42.1758 18.6915 42.2869C18.1579 42.398 17.4686 42.4536 16.6236 42.4536Z" fill="#151E3F"/>
<path d="M26.7947 42.4536C24.9491 42.4536 23.5038 41.9314 22.4587 40.8872C21.4136 39.8429 20.8911 38.3099 20.8911 36.2881V26.3232H27.1616V35.7881C27.1616 37.1657 27.8621 37.8544 29.2629 37.8544C29.7743 37.8544 30.2747 37.7433 30.7639 37.5212C31.253 37.299 31.6422 37.0213 31.9312 36.688V26.3232H38.2018V42.1203H32.3315L32.1647 40.9205C31.5421 41.3649 30.775 41.7315 29.8633 42.0203C28.9739 42.3091 27.951 42.4536 26.7947 42.4536Z" fill="#151E3F"/>
<path d="M41.1875 42.1203V26.3232H46.9911L47.1578 27.5896C47.8471 27.123 48.6143 26.7453 49.4593 26.4565C50.3265 26.1454 51.2715 25.9899 52.2943 25.9899C53.3172 25.9899 54.1177 26.1343 54.6958 26.4232C55.274 26.712 55.7409 27.1341 56.0967 27.6896C56.8082 27.1786 57.6087 26.7675 58.4982 26.4565C59.4098 26.1454 60.4772 25.9899 61.7001 25.9899C63.5457 25.9899 64.9021 26.4787 65.7693 27.4563C66.6365 28.4117 67.0701 29.8781 67.0701 31.8555V42.1203H60.8997V32.5887C60.8997 31.8777 60.7551 31.3778 60.466 31.089C60.177 30.7779 59.6989 30.6224 59.0318 30.6224C58.1646 30.6224 57.4531 30.9335 56.8972 31.5556C56.9417 31.8444 56.9639 32.1221 56.9639 32.3888C56.9639 32.6332 56.9639 32.9109 56.9639 33.2219V42.1203H51.1603V32.4887C51.1603 31.8444 51.0491 31.3778 50.8268 31.089C50.6044 30.7779 50.1819 30.6224 49.5593 30.6224C49.1368 30.6224 48.7255 30.7335 48.3252 30.9557C47.925 31.1779 47.5692 31.4445 47.2579 31.7555V42.1203H41.1875Z" fill="#151E3F"/>
<path d="M71.5171 42.1203V30.889H69.2157L69.7494 26.3232H77.7877V42.1203H71.5171Z" fill="#151E3F"/>
<path d="M80.7953 42.1203V26.3232H86.6656L86.8323 27.523C87.4327 27.123 88.2221 26.7675 89.2005 26.4565C90.2011 26.1454 91.2684 25.9899 92.4024 25.9899C94.3814 25.9899 95.8268 26.4787 96.7384 27.4563C97.6501 28.4339 98.1059 29.9448 98.1059 31.9888V42.1203H91.8354V32.622C91.8354 31.9111 91.6798 31.4 91.3685 31.089C91.0572 30.7779 90.5124 30.6224 89.7341 30.6224C89.2672 30.6224 88.778 30.7335 88.2666 30.9557C87.7774 31.1779 87.3771 31.4445 87.0658 31.7555V42.1203H80.7953Z" fill="#151E3F"/>
<path d="M100.925 42.1203V26.3232H106.962L107.129 27.5896C107.773 27.2119 108.596 26.8675 109.597 26.5565C110.597 26.2454 111.609 26.0566 112.632 25.9899V30.6557C112.054 30.7002 111.42 30.7779 110.731 30.889C110.064 31.0001 109.408 31.1445 108.763 31.3223C108.14 31.4778 107.618 31.6556 107.195 31.8555V42.1203H100.925Z" fill="#151E3F"/>
<path d="M129.889 42.4536C127.02 42.4536 124.752 41.7759 123.084 40.4206C121.417 39.0431 120.583 36.9768 120.583 34.2218C120.583 32.3554 120.972 30.8113 121.75 29.5893C122.528 28.3673 123.618 27.4674 125.019 26.8897C126.42 26.2899 128.054 25.9899 129.922 25.9899C131.1 25.9899 132.157 26.0788 133.091 26.2565C134.024 26.4121 134.914 26.6898 135.759 27.0897V31.4889C134.447 30.8668 132.957 30.5558 131.289 30.5558C129.866 30.5558 128.788 30.8224 128.054 31.3556C127.343 31.8888 126.987 32.8442 126.987 34.2218C126.987 35.5104 127.331 36.4436 128.021 37.0213C128.71 37.5989 129.8 37.8878 131.289 37.8878C132.09 37.8878 132.868 37.7989 133.624 37.6211C134.38 37.4212 135.103 37.1435 135.792 36.788V41.3871C134.947 41.7648 134.036 42.0314 133.057 42.1869C132.101 42.3647 131.045 42.4536 129.889 42.4536Z" fill="#151E3F"/>
<path d="M146.694 42.4536C143.537 42.4536 141.202 41.7537 139.69 40.354C138.2 38.9542 137.455 36.9102 137.455 34.2218C137.455 31.5556 138.211 29.5226 139.723 28.1229C141.235 26.7009 143.559 25.9899 146.694 25.9899C149.852 25.9899 152.187 26.7009 153.699 28.1229C155.233 29.5226 156 31.5556 156 34.2218C156 36.9102 155.244 38.9542 153.732 40.354C152.22 41.7537 149.874 42.4536 146.694 42.4536ZM146.694 37.8878C147.717 37.8878 148.451 37.5989 148.896 37.0213C149.363 36.4436 149.596 35.5104 149.596 34.2218C149.596 32.9553 149.363 32.0333 148.896 31.4556C148.451 30.8557 147.717 30.5558 146.694 30.5558C145.694 30.5558 144.971 30.8557 144.526 31.4556C144.081 32.0333 143.859 32.9553 143.859 34.2218C143.859 35.5104 144.081 36.4436 144.526 37.0213C144.971 37.5989 145.694 37.8878 146.694 37.8878Z" fill="#151E3F"/>
<path d="M118.124 39.5784C118.124 40.9823 116.985 42.1203 115.58 42.1203C114.175 42.1203 113.036 40.9823 113.036 39.5784C113.036 38.1746 114.175 37.0365 115.58 37.0365C116.985 37.0365 118.124 38.1746 118.124 39.5784Z" fill="#DB6332"/>
<path d="M76.1592 22.5361C76.1592 23.9399 75.0203 25.078 73.6153 25.078C72.2103 25.078 71.0714 23.9399 71.0714 22.5361C71.0714 21.1322 72.2103 19.9942 73.6153 19.9942C75.0203 19.9942 76.1592 21.1322 76.1592 22.5361Z" fill="#DB6332"/>
</svg>
