<svg width="41" height="43" viewBox="0 0 41 43" fill="none" xmlns="http://www.w3.org/2000/svg">
<path id="Vector" d="M30.4449 19.554C33.2378 19.554 36.0307 19.5525 38.8236 19.554C39.8114 19.554 40.0354 19.7631 40.0992 20.7743C40.2579 23.3098 40.2252 25.8407 39.6453 28.3265C38.4661 33.3673 35.6317 37.1939 31.2236 39.7775C26.9193 42.3009 22.262 42.8892 17.4163 42.0391C10.9792 40.9105 6.09492 37.406 2.77102 31.7483C0.17836 27.3364 -0.582531 22.5243 0.437923 17.4925C1.89148 10.3255 6.11123 5.34338 12.5781 2.31738C16.0518 0.690771 19.7746 0.192708 23.5732 0.675724C27.7143 1.20238 31.3675 2.88014 34.4704 5.74965C34.8931 6.14088 34.9524 6.45687 34.5401 6.86766C33.5567 7.84874 32.5763 8.83283 31.6092 9.82895C31.2488 10.2006 30.9566 10.2412 30.5383 9.87861C27.2575 7.0392 23.4382 5.90163 19.1813 6.40872C14.6249 6.95192 11.08 9.24211 8.56002 13.1273C6.43754 16.3986 5.81755 20.046 6.34855 23.85C7.17618 29.7951 11.6422 34.9052 17.4831 36.1977C20.9241 36.9591 24.2866 36.7801 27.4666 35.2407C30.8053 33.6246 33.1874 31.0967 33.9957 27.2898C34.0684 26.9467 34.1796 26.6126 34.2464 26.2696C34.4066 25.4465 34.2805 25.287 33.4425 25.2855C29.8828 25.281 26.3245 25.284 22.7648 25.2855C20.6749 25.2855 20.9404 25.4058 20.9271 23.4316C20.9212 22.5032 20.9226 21.5763 20.9271 20.6479C20.933 19.6804 21.0502 19.557 21.992 19.5555C24.8102 19.551 27.6283 19.5555 30.4449 19.5555V19.554Z" fill="#F2F3D9"/>
</svg>
