<svg width="523" height="280" viewBox="0 0 523 280" fill="none" xmlns="http://www.w3.org/2000/svg">
<path d="M522.499 159.824C520.801 153.482 519.126 147.135 517.417 140.793C511.367 118.297 505.311 95.801 499.25 73.305C493.776 52.9826 488.285 32.6659 482.816 12.3435C481.354 6.92415 476.859 4.28367 471.465 5.73074C461.749 8.33086 452.038 10.9367 442.327 13.5426C431.368 16.4829 420.402 19.4059 409.442 22.3692C404.072 23.822 401.51 28.3016 402.932 33.6402C403.536 35.9117 404.112 38.189 404.774 40.4432C405.027 41.308 404.809 41.6366 403.957 41.8557C401.729 42.4264 399.519 43.0606 397.32 43.7121C387.183 46.7215 377.018 46.9694 366.864 43.9081C353.705 39.9359 340.512 36.0732 327.451 31.8127C314.822 27.6905 302.303 27.1313 289.656 31.4437C289.132 31.6166 288.419 31.5302 287.889 31.3226C282.231 29.0857 276.544 26.9237 270.966 24.5023C261.532 20.409 251.925 19.279 242.133 22.7843C221.895 30.0427 201.679 37.3876 181.515 44.8651C173.41 47.8688 165.214 49.4543 156.591 48.2493C152.516 47.6786 148.44 47.0444 144.365 46.4333C142.408 46.145 140.22 46.612 138.327 45.9029C136.053 45.0496 138.626 41.4521 139.271 39.907C140.606 36.7189 141.959 33.1444 140.761 29.8986C140.059 27.9961 138.528 26.4798 136.795 25.4248C133.837 23.6203 130.325 22.9227 127.096 21.7754C123.683 20.5589 120.269 19.3425 116.856 18.126C107.876 14.9263 98.8968 11.7266 89.9229 8.50959C82.6529 5.90947 75.3886 3.29205 68.1301 0.651576C62.7998 -1.27978 57.7862 1.21657 55.9039 6.16314C47.2639 28.8263 38.5088 51.4548 29.7997 74.0949C20.3826 98.5683 11 123.059 1.51388 147.515C0.431719 150.311 -0.0230185 153.079 6.16061e-06 156.048C0.0172747 158.181 0.811626 159.807 2.34277 161.052C3.39615 161.917 4.65675 162.608 5.92886 163.11C14.1832 166.333 22.4721 169.481 30.7437 172.663C43.793 177.69 56.8364 182.746 69.903 187.739C74.3237 189.428 79.1243 187.312 81.0181 182.977C81.9621 180.827 82.8716 178.659 83.8099 176.503C84.1092 175.822 84.4546 175.159 84.823 174.381C92.2311 177.852 99.4897 181.259 106.783 184.678C106.616 185.081 106.553 185.254 106.466 185.421C98.5054 201.391 107.479 219.782 124.972 223.178C126.434 223.466 126.624 224.008 126.647 225.3C126.791 233.123 129.692 239.759 135.454 245.086C136.001 245.587 136.64 245.991 136.945 246.222C137.037 246.343 137.129 246.458 137.244 246.562C137.475 246.769 137.711 246.965 137.952 247.15C138.781 247.842 139.627 248.539 140.606 248.995C141.009 249.179 141.423 249.306 141.844 249.398C142.114 249.519 142.419 249.646 142.759 249.785C144.135 250.338 145.539 250.851 146.978 251.197C153.684 252.788 160.114 251.97 166.192 248.706C167.165 248.188 167.585 248.407 168.115 249.271C168.782 250.373 169.554 251.433 170.411 252.39C177.025 259.781 185.251 262.831 195.065 261.332C196.608 261.096 197.206 261.436 197.857 262.929C203.907 276.852 215.477 281.724 229.406 279.47C236.158 278.374 241.483 274.489 245.512 268.971C249.075 264.094 252.552 259.153 255.977 254.183C256.714 253.117 257.289 253.019 258.418 253.538C269.51 258.646 280.625 263.713 291.746 268.764C302.706 273.739 315.847 268.262 320.083 256.98C320.296 256.409 320.521 255.85 320.774 255.21C321.436 255.509 321.954 255.734 322.467 255.971C329.495 259.193 336.604 259.395 343.586 256.04C351.702 252.142 356.347 245.553 357.596 236.628C357.763 235.418 358.195 235.037 359.392 234.783C362.092 234.218 364.901 233.723 367.37 232.564C375.901 228.557 380.788 221.702 382.1 212.357C382.262 211.192 382.595 210.737 383.85 210.702C385.56 210.656 387.281 210.373 388.973 210.051C400.083 207.935 409.678 198.485 411.929 187.416C412.378 185.225 412.614 182.994 412.971 180.602C422.825 182.354 432.478 181.357 441.97 177.915C442.218 178.711 442.402 179.247 442.558 179.789C443.041 181.443 443.404 183.144 444.02 184.753C445.591 188.881 449.845 191.06 454.15 190.045C455.595 189.705 457.028 189.33 458.462 188.95C477.394 183.923 496.314 178.855 515.264 173.908C518.654 173.02 521.394 171.562 523 168.345V161.15C522.833 160.706 522.62 160.279 522.499 159.824ZM73.5984 155.794C72.0961 159.53 70.4268 163.202 68.9417 166.944C68.4639 168.132 67.9574 168.281 66.8004 167.832C52.5539 162.309 38.2901 156.843 24.032 151.355C22.9153 150.928 21.8274 150.409 20.6819 150.069C19.6688 149.769 19.594 149.325 19.9567 148.397C23.9342 138.124 27.8714 127.827 31.8259 117.542C39.3837 97.8995 46.9531 78.2631 54.5052 58.621C59.3058 46.1393 64.1065 33.6575 68.8726 21.1643C69.2813 20.0862 69.7303 19.8267 70.8757 20.2361C86.3311 25.7995 101.804 31.3168 117.27 36.8457C118.128 37.1513 118.969 37.5318 119.843 37.7451C120.977 38.0218 120.989 38.5522 120.58 39.515C118.278 44.9977 116.004 50.492 113.771 55.9978C110.927 62.991 108.084 69.99 105.326 77.0178C105.01 77.6578 104.734 78.315 104.486 78.978C104.141 79.6698 103.801 80.3617 103.461 81.0593C101.176 85.0776 99.5933 89.3439 98.1427 93.7312C97.193 95.5473 96.4332 97.421 96.2662 99.4388C88.7314 118.233 81.1735 137.022 73.5984 155.794ZM136.26 202.89C134.637 205.116 132.265 206.096 129.14 206.096C126.227 205.969 123.7 204.527 122.1 201.668C120.471 198.739 120.482 195.684 122.353 192.928C126.095 187.416 129.94 181.968 133.894 176.606C136.675 172.83 141.93 172.185 145.7 174.917C149.396 177.598 150.426 182.769 147.824 186.575C144.06 192.075 140.186 197.5 136.26 202.89ZM161.219 230.263C158.059 234.726 152.343 235.821 148.054 232.812C143.772 229.808 142.822 224.049 145.988 219.552C155.48 206.073 165.018 192.628 174.544 179.166C176.122 176.941 177.664 174.675 179.322 172.507C181.751 169.336 185.896 168.155 189.649 169.452C193.344 170.72 195.877 174.295 195.883 178.255C195.917 180.348 195.215 182.21 194.023 183.894C183.092 199.356 172.161 214.813 161.219 230.263ZM203.855 232.535C202.024 235.118 200.223 237.718 198.358 240.272C195.186 244.625 189.62 245.559 185.268 242.509C181.187 239.649 180.18 233.884 183.173 229.589C188.601 221.8 194.127 214.086 199.607 206.332C201.875 203.127 204.148 199.921 206.382 196.693C208.339 193.862 210.923 192.219 214.849 192.196C218.038 192.294 220.812 193.868 222.539 197.021C224.318 200.284 224.226 203.622 222.09 206.684C216.058 215.331 209.939 223.922 203.855 232.535ZM250.037 232.362C243.9 241.05 237.787 249.75 231.588 258.398C227.8 263.684 220.749 264.249 216.19 259.741C212.702 256.299 212.345 250.845 215.35 246.591C218.775 241.736 222.217 236.893 225.648 232.045C228.388 228.176 231.082 224.268 233.885 220.445C236.4 217.015 239.911 215.741 244.01 216.548C247.832 217.309 250.359 219.753 251.55 223.478C251.856 224.423 251.907 225.444 252.08 226.435C251.988 228.638 251.28 230.598 250.037 232.362ZM392.686 188.304C388.835 193.47 381.559 194.796 375.936 191.273C371.595 188.552 367.382 185.623 363.024 182.937C343.81 171.089 324.567 159.293 305.325 147.492C300.72 144.667 295.516 145.734 292.862 150.006C290.174 154.335 291.556 159.541 296.201 162.401C305.175 167.93 314.189 173.395 323.146 178.953C336.057 186.961 348.939 195.015 361.821 203.069C365.574 205.415 365.862 211.699 362.42 215.084C359.582 217.868 355.622 218.289 351.978 216.144C344.38 211.676 336.811 207.156 329.19 202.723C312.503 193.009 295.804 183.311 279.076 173.655C274.69 171.129 269.585 172.548 267.104 176.797C264.68 180.948 266.085 186.171 270.413 188.754C275.024 191.504 279.687 194.162 284.32 196.871C300.748 206.465 317.171 216.069 333.599 225.669C334.629 226.274 335.631 226.948 336.707 227.467C340.207 229.145 341.099 233.723 339.695 236.64C337.997 240.162 334.059 241.909 330.537 240.341C325.46 238.075 320.463 235.631 315.525 233.094C306.102 228.263 296.754 223.288 287.354 218.422C282.962 216.15 277.977 217.718 275.617 222.002C273.349 226.13 274.736 231.295 279.03 233.688C286.312 237.741 293.691 241.627 301.036 245.576C302.274 246.239 303.529 246.902 303.863 248.43C304.179 249.888 303.903 251.22 302.7 252.206C301.422 253.261 300 253.336 298.521 252.661C296.034 251.531 293.559 250.373 291.078 249.237C283.457 245.749 275.841 242.238 268.192 238.808C267.046 238.294 267.012 237.827 267.443 236.761C273.965 220.532 264.272 202.683 247.107 199.304C245.512 198.987 243.872 198.895 242.248 198.837C241.339 198.803 241.051 198.485 240.896 197.603C239.019 186.88 232.958 179.604 222.683 176.065C220.231 175.217 217.537 174.958 214.93 174.744C213.583 174.64 213.07 174.335 212.8 172.986C211.321 165.618 207.378 159.876 201.109 155.736C189.528 148.092 173.318 151.015 165.127 162.239C164.085 163.658 163.067 165.093 161.944 166.65C155.854 158.976 148.135 155.148 138.436 155.909C128.737 156.676 121.956 162.02 117.034 170.138C112.182 167.878 107.502 165.693 102.817 163.508C99.4782 161.945 96.1569 160.337 92.7895 158.826C91.7591 158.359 91.621 157.887 92.0354 156.849C102.212 131.643 112.355 106.421 122.503 81.2034C124.869 75.3286 127.263 69.4711 129.571 63.5791C130.009 62.4664 130.446 62.0455 131.747 62.2473C139.512 63.4522 147.283 64.6341 155.077 65.6488C165.288 66.9748 175.241 65.7237 184.917 62.1954C205.662 54.6257 226.407 47.0559 247.158 39.4977C251.781 37.8143 256.443 37.699 261.077 39.4516C264.11 40.5989 267.104 41.8615 270.344 43.1644C269.199 44.2483 268.255 45.1822 267.276 46.0758C250.048 61.9129 232.768 77.6866 215.609 93.5929C207.47 101.134 204.638 110.548 207.677 121.22C210.699 131.839 218.044 138.302 228.854 140.418C231.772 140.989 234.886 140.689 237.908 140.493C238.415 140.689 239.002 140.701 239.629 140.447C239.86 140.349 240.09 140.251 240.314 140.141C240.314 140.141 240.316 140.145 240.32 140.153C242.715 138.936 245.178 137.922 247.475 136.532C248.586 136.878 249.104 136.319 249.219 135.414C249.323 135.345 249.426 135.275 249.53 135.212C249.593 135.195 249.657 135.177 249.72 135.166C250.388 135.033 250.883 134.739 251.222 134.353C251.643 134.14 252.068 133.926 252.494 133.719C252.569 133.707 252.644 133.69 252.713 133.661C254.584 132.779 256.288 131.54 258.043 130.415C265.429 125.688 272.756 120.868 280.205 116.244C289.794 110.289 299.488 110.387 308.876 116.596C334.267 133.373 359.582 150.271 384.921 167.128C386.953 168.483 389.1 169.711 390.942 171.291C395.984 175.632 396.664 182.977 392.686 188.304ZM436.381 161.38C424.195 165.791 412.683 164.632 401.856 157.339C395.691 153.194 389.486 149.106 383.298 145.001C361.349 130.427 339.58 115.57 317.378 101.393C301.969 91.552 285.995 92.042 270.471 101.705C259.937 108.26 249.576 115.091 239.111 121.762C234.593 124.639 229.084 123.693 225.993 119.611C222.908 115.535 223.552 110.001 227.49 106.38C245.783 89.5803 264.064 72.7746 282.334 55.9632C289.535 49.339 298.037 46.047 307.771 45.8625C313.596 45.6953 318.996 47.5806 324.452 49.2467C337.634 53.2824 350.781 57.4622 364.043 61.2269C376.166 64.6687 388.392 64.3055 400.526 60.9559C403.064 60.2525 405.609 59.5722 408.13 58.8112C409.218 58.4884 409.707 58.6729 410.029 59.8836C413.967 74.5618 417.961 89.2171 421.945 103.884C426.601 121.041 431.258 138.204 435.921 155.367C436.335 156.889 436.727 158.423 437.187 159.933C437.44 160.764 437.193 161.086 436.381 161.38ZM458.318 170.87C457.903 169.417 457.478 168.022 457.092 166.615C457.092 163.9 455.405 160.383 454.691 157.748C453.857 154.67 453.022 151.591 452.188 148.512C452.188 146.022 450.576 142.557 449.897 140.049C449.068 136.982 448.233 133.915 447.404 130.854C447.404 128.501 446.213 126.236 445.562 124.016C444.739 121.203 444.025 118.349 443.254 115.518C441.717 109.857 440.18 104.189 438.643 98.5279C434.913 84.7721 431.183 71.022 427.453 57.2661C425.709 50.8379 423.954 44.4154 422.209 37.9872C422.146 37.7624 422.106 37.526 422.019 37.1167C424.575 36.4191 427.096 35.7157 429.623 35.0412C441.97 31.7319 454.329 28.4515 466.67 25.1077C467.81 24.7964 468.138 25.05 468.431 26.1397C474.959 50.4978 481.527 74.8443 488.089 99.1909C493.292 118.493 498.49 137.795 503.688 157.091C503.815 157.552 503.89 158.025 504.039 158.746C488.837 162.776 473.687 166.794 458.312 170.87H458.318Z" fill="#F2F3D9"/>
</svg>
