<svg width="89" height="70" viewBox="0 0 89 70" fill="none" xmlns="http://www.w3.org/2000/svg">
<g id="Layer_1" clip-path="url(#clip0_174_289)">
<g id="jL6A43.tif">
<g id="Group">
<path id="Vector" d="M59.1567 -0.000247103C59.3709 0.0358611 59.5854 0.0726988 59.7996 0.108442C61.406 0.376883 62.8019 1.09868 64.0738 2.0809C65.6138 3.27028 66.8626 4.72774 67.9786 6.30483C69.5171 8.47935 70.7483 10.8235 71.8303 13.2482C73.5379 17.0749 74.8432 21.0406 75.9368 25.0782C76.9186 28.7021 77.7127 32.3673 78.3769 36.0617C78.8797 38.8591 79.3198 41.6661 79.6587 44.4869C79.9499 46.9102 80.2011 49.3389 80.4248 51.7691C80.9698 57.689 81.1906 63.6246 81.2141 69.5679C81.2144 69.6981 81.2141 69.828 81.2141 69.979H71.1947C71.1873 69.8484 71.1763 69.7309 71.1745 69.6131C71.125 66.4181 71.1118 63.222 71.0175 60.0284C70.9284 57.0172 70.7692 54.0078 70.6112 50.9992C70.5081 49.0344 70.3721 47.0707 70.2136 45.1095C70.0533 43.1243 69.8674 41.1409 69.6558 39.1604C69.4247 36.9994 69.1948 34.8365 68.8852 32.6857C68.4924 29.9583 68.0538 27.2367 67.5726 24.5231C67.0661 21.6654 66.4137 18.8369 65.6094 16.0457C64.9796 13.8613 64.2615 11.7079 63.2739 9.65232C62.8096 8.68615 62.2891 7.75208 61.6279 6.90226C61.2373 6.40039 60.8041 5.9401 60.2764 5.5761C59.2113 4.84081 58.1202 4.81418 57.0115 5.4707C56.3833 5.84272 55.8786 6.35407 55.4271 6.91758C54.5686 7.98915 53.9249 9.18802 53.359 10.4303C52.2268 12.9163 51.4251 15.5143 50.7356 18.1487C49.9049 21.3229 49.2436 24.5337 48.739 27.7739C48.3484 30.2811 47.9864 32.7933 47.6673 35.3103C47.4154 37.2977 47.2166 39.2932 47.0504 41.2897C46.8117 44.1583 46.6019 47.0298 46.4211 49.9024C46.3004 51.8176 46.2245 53.7368 46.1772 55.6553C46.1035 58.6432 46.0716 61.6318 46.0213 64.6204C46.0195 64.7269 46.0081 64.8334 46.0001 64.9617H35.9997C35.9931 64.8319 35.9836 64.7141 35.9818 64.5963C35.9319 61.6442 35.9183 58.6913 35.8237 55.7406C35.7349 52.9727 35.5761 50.2066 35.4184 47.4416C35.3161 45.6471 35.1841 43.8537 35.0234 42.0633C34.8401 40.0193 34.6383 37.9761 34.3941 35.9387C34.1253 33.6968 33.8333 31.4562 33.4911 29.2244C32.7661 24.4924 31.8367 19.802 30.4221 15.2185C29.7942 13.1847 29.0666 11.1889 28.0808 9.29452C27.608 8.38634 27.0784 7.51391 26.412 6.73011C26.0156 6.26398 25.5784 5.84236 25.0558 5.51519C23.9027 4.79339 22.7382 4.83242 21.638 5.63264C21.009 6.09037 20.5128 6.67321 20.0697 7.30383C19.2889 8.41479 18.6948 9.62533 18.1707 10.8709C17.1412 13.3189 16.393 15.8567 15.7464 18.4263C14.9249 21.6906 14.2647 24.9881 13.7623 28.3148C13.3471 31.0638 12.9565 33.8175 12.6191 36.577C12.3378 38.8788 12.1196 41.1898 11.9281 43.501C11.6993 46.2606 11.5111 49.0242 11.3373 51.7877C11.0886 55.741 10.9515 59.6994 10.8939 63.66C10.8653 65.6401 10.851 67.6206 10.829 69.6011C10.8275 69.7196 10.8176 69.8378 10.811 69.9742C10.6958 69.9841 10.6016 69.9994 10.5073 69.9994C7.28133 70.0001 4.05572 69.9994 0.829737 69.999C0.793428 69.999 0.757119 69.9943 0.720444 69.9917C0.720444 68.9223 0.720444 67.853 0.720444 66.7839C0.740615 66.642 0.77289 66.5002 0.778758 66.3576C0.812499 65.5322 0.837439 64.7064 0.870447 63.881C0.949299 61.9028 1.00725 59.923 1.11654 57.9465C1.29332 54.7573 1.52621 51.5711 1.88966 48.3968C2.15079 46.1173 2.40238 43.8351 2.7354 41.5654C3.09115 39.14 3.50778 36.7222 3.95082 34.311C4.67553 30.3686 5.60856 26.4726 6.75247 22.629C7.92169 18.7005 9.30912 14.8534 11.1433 11.1765C12.2479 8.96225 13.5033 6.84026 15.0719 4.91412C16.1931 3.53727 17.4449 2.29937 18.9687 1.35764C19.9637 0.742707 21.0292 0.305032 22.1892 0.110266C22.3894 0.0756166 22.5893 0.0362259 22.7896 -0.000247103C23.1805 -0.000247103 23.5715 -0.000247103 23.9628 -0.000247103C24.0442 0.0216367 24.1249 0.0566507 24.2075 0.0628511C25.2069 0.140539 26.1454 0.43524 27.0476 0.854314C28.4259 1.49478 29.6105 2.40514 30.688 3.46067C32.1682 4.91047 33.387 6.56379 34.4707 8.31923C36.1963 11.1138 37.5423 14.0893 38.7038 17.1515C39.5056 19.2655 40.2035 21.4134 40.8284 23.585C40.8714 23.7338 40.9289 23.8786 40.9795 24.0249C41.0731 23.8936 41.109 23.7783 41.1424 23.6623C42.1103 20.3097 43.2366 17.0129 44.6559 13.8201C45.8339 11.1703 47.185 8.61503 48.904 6.26617C50.067 4.67668 51.3712 3.21922 52.9677 2.04151C54.2807 1.07315 55.7143 0.371777 57.3431 0.108442C57.5569 0.073793 57.77 0.0358611 57.9834 -0.000976562C58.3744 -0.000976562 58.7653 -0.000976562 59.1567 -0.000976562V-0.000247103Z" fill="#F2F3D9"/>
<path id="Vector_2" d="M88.7148 67.4949C88.8014 68.867 87.6289 70.0097 86.2345 69.9896C84.7781 69.9685 83.7391 68.8524 83.7358 67.4752C83.7325 66.0943 84.8694 65.0063 86.2726 65.0049C87.5507 65.0034 88.8102 66.071 88.7148 67.4949ZM86.2671 69.6318C87.4275 69.6253 88.3283 68.6697 88.3107 67.4639C88.2931 66.265 87.3978 65.3536 86.2425 65.3587C85.0704 65.3638 84.1616 66.3088 84.177 67.5062C84.1927 68.7204 85.0953 69.6384 86.2671 69.6315V69.6318Z" fill="#F2F3D9"/>
<path id="Vector_3" d="M87.4514 68.9146C87.1473 69.0043 86.9673 68.9365 86.8382 68.6834C86.712 68.4357 86.5451 68.2085 86.3947 67.9729C86.2588 67.7599 86.0354 67.6816 85.7247 67.738V68.9285H85.3036V66.05C85.5523 66.0479 85.8028 66.0427 86.0533 66.0442C86.2726 66.0457 86.4938 66.0387 86.7113 66.0635C87.1319 66.1113 87.3589 66.3393 87.4085 66.7324C87.4646 67.1771 87.3003 67.4484 86.88 67.6071C86.8238 67.6282 86.7681 67.6501 86.6816 67.6837C86.9419 68.0998 87.1939 68.5025 87.4514 68.9143V68.9146ZM85.7423 67.3419C86.0504 67.327 86.3383 67.331 86.621 67.2938C86.8635 67.262 86.9687 67.1059 86.9709 66.8623C86.9731 66.6227 86.8649 66.4542 86.6247 66.429C86.3408 66.3991 86.0518 66.4221 85.7427 66.4221V67.3419H85.7423Z" fill="#F2F3D9"/>
</g>
</g>
</g>
<defs>
<clipPath id="clip0_174_289">
<rect width="88" height="70" fill="white" transform="translate(0.719971)"/>
</clipPath>
</defs>
</svg>
