<svg width="19" height="27" viewBox="0 0 19 27" fill="none" xmlns="http://www.w3.org/2000/svg">
<g id="Group 29">
<g id="Group 19">
<g id="Group 11">
<path id="Subtract" fill-rule="evenodd" clip-rule="evenodd" d="M15.005 12.6738C15.6008 11.6736 15.9431 10.5049 15.9431 9.25616C15.9431 5.56308 12.9493 2.56925 9.25617 2.56925C5.56308 2.56925 2.56925 5.56308 2.56925 9.25616C2.56925 10.7666 3.07002 12.16 3.9146 13.2796L2.5525 15.6388C0.970894 13.9781 0 11.7305 0 9.25616C0 4.14412 4.14413 0 9.25617 0C14.3682 0 18.5123 4.14412 18.5123 9.25616C18.5123 11.4819 17.7268 13.5241 16.4177 15.1208L15.005 12.6738Z" fill="#DB6332"/>
</g>
<path id="Vector" d="M10.5725 27C9.34214 27 8.46534 26.7386 7.9421 26.2158C7.41885 25.6929 7.15723 24.8734 7.15723 23.7571V12.5021H11.1452V23.312C11.1452 23.6229 11.2089 23.8348 11.3361 23.9479C11.4634 24.0468 11.6614 24.0962 11.9301 24.0962C12.1139 24.0962 12.2907 24.0821 12.4604 24.0538C12.6443 24.0256 12.814 23.9832 12.9695 23.9267V26.5761C12.6018 26.7174 12.2412 26.8234 11.8877 26.894C11.5483 26.9647 11.1099 27 10.5725 27Z" fill="#F2F3D9"/>
</g>
</g>
</svg>
