<svg width="124" height="66" viewBox="0 0 124 66" fill="none" xmlns="http://www.w3.org/2000/svg">
<g id="nZrclA.tif">
<g id="Group">
<path id="Vector" d="M14.4234 65.1213C14.3295 65.1024 14.2363 65.0745 14.141 65.0666C10.144 64.7311 6.6754 63.1998 3.7635 60.4403C2.28058 59.0349 1.38394 57.2919 0.978353 55.296C0.695938 53.9065 0.65499 52.5073 0.807084 51.096C1.08592 48.5105 1.8399 46.0564 2.81974 43.6634C3.93022 40.9514 5.31435 38.3799 6.84147 35.8835C9.13394 32.1358 11.7208 28.5978 14.4839 25.1864C15.0429 24.4963 15.6152 23.8174 16.1823 23.1338C16.2281 23.0786 16.2798 23.0285 16.3718 22.9989C16.3009 23.1517 16.232 23.3052 16.1592 23.4571C15.2132 25.4335 14.4186 27.4662 13.8807 29.5945C13.4735 31.2067 13.2246 32.8401 13.2298 34.507C13.2353 36.3595 13.5509 38.1477 14.3448 39.8344C15.4056 42.0875 17.0991 43.7196 19.3031 44.836C20.905 45.6473 22.6148 46.0924 24.3964 46.2781C26.8725 46.536 29.2982 46.2635 31.6924 45.6112C36.2523 44.369 40.8148 43.1372 45.3757 41.8996C49.1433 40.8769 52.9102 39.851 56.6778 38.8279C61.3326 37.564 65.9877 36.3016 70.6429 35.0393C71.4046 34.8328 72.1677 34.6299 72.9298 34.4231C73.0419 34.3928 73.1511 34.3512 73.2554 34.2722H62.186C62.0661 29.6758 61.9468 25.1034 61.8276 20.5311C61.8048 20.5259 61.7821 20.5207 61.7593 20.5152C61.3043 21.6491 60.889 22.7986 60.4503 23.939C60.0112 25.08 59.5832 26.2256 59.1497 27.369C58.7125 28.5224 58.2748 29.6758 57.837 30.8292C57.4038 31.9712 56.9703 33.1136 56.5325 34.2673H48.7016C48.7156 34.0075 60.578 1.97443 61.0573 0.901344H69.0121C68.7365 1.74226 68.3998 2.54285 68.0963 3.35482C67.7891 4.1759 67.4733 4.9934 67.1613 5.81252C66.8532 6.62157 66.5444 7.43029 66.237 8.23933C65.9266 9.05651 65.6172 9.87433 65.3452 10.7218C65.405 10.6587 65.4691 10.5988 65.5243 10.5318C67.523 8.10926 69.521 5.68635 71.519 3.26312C72.1183 2.53634 72.7215 1.81217 73.3136 1.07922C73.4358 0.928333 73.5671 0.878906 73.7556 0.878906C81.5745 0.882808 89.3934 0.882158 97.2123 0.882808C97.3085 0.882808 97.4047 0.890938 97.5422 0.896791C96.8366 2.75129 96.1411 4.57879 95.4301 6.4476C95.3079 6.4476 95.1811 6.4476 95.0547 6.4476C92.6615 6.4476 90.2679 6.4476 87.8747 6.4476C87.799 6.4476 87.7226 6.4541 87.6476 6.44662C87.4912 6.43101 87.4188 6.5019 87.3671 6.64856C87.1802 7.17925 86.9787 7.70474 86.7834 8.2325C86.1757 9.87661 85.5686 11.5207 84.9615 13.1651C84.9287 13.2539 84.9014 13.3443 84.8562 13.4799H92.4259C91.6407 15.576 90.8747 17.6198 90.0983 19.6925H82.517C81.5089 22.3931 80.5082 25.0742 79.491 27.7992H88.6856C88.3759 28.671 88.0821 29.4992 87.7701 30.3775C87.9829 30.3271 88.1484 30.2926 88.3112 30.2488C93.7489 28.7728 99.1859 27.2945 104.624 25.8192C109.654 24.4541 114.686 23.0919 119.718 21.7287C120.74 21.4517 121.764 21.1756 122.787 20.9015C122.933 20.8625 123.082 20.8286 123.231 20.8082C123.405 20.7841 123.579 20.788 123.72 20.9194V21.1795C123.517 21.3167 123.329 21.4888 123.109 21.586C121.327 22.3723 119.539 23.1449 117.753 23.9208C113.049 25.9645 108.345 28.0096 103.64 30.051C97.1587 32.8632 90.6761 35.6734 84.1936 38.4833C78.1676 41.0954 72.142 43.7086 66.1142 46.3165C61.0596 48.5033 56.0038 50.6876 50.9447 52.8643C46.0945 54.9513 41.2408 57.0302 36.3862 59.1068C33.2227 60.4602 30.0525 61.7979 26.8049 62.9406C24.0015 63.9269 21.1507 64.7207 18.1803 65.0143C17.8803 65.0439 17.5814 65.0852 17.282 65.1213H14.4228H14.4234ZM81.3597 1.71592C81.3353 1.69933 81.3109 1.68275 81.2866 1.66584C81.2196 1.75039 81.1575 1.83916 81.0851 1.9185C77.312 6.06876 73.5395 10.2193 69.7589 14.3628C69.574 14.5654 69.5051 14.7608 69.5145 15.0265C69.5659 16.4332 69.6045 17.8402 69.6452 19.2473C69.7069 21.3795 69.7677 23.512 69.8275 25.6442C69.883 27.6249 69.9373 29.6059 69.9929 31.5865C69.9952 31.673 70.0082 31.7595 70.0163 31.846L70.0842 31.8499C73.8424 21.8052 77.6009 11.7604 81.359 1.71559L81.3597 1.71592Z" fill="#F2F3D9"/>
<path id="Vector_2" d="M25.2903 34.274H17.4763C17.4626 34.2555 17.4551 34.2473 17.4499 34.2382C17.4451 34.2295 17.4376 34.2181 17.4395 34.2099C17.4493 34.168 17.4581 34.1251 17.4733 34.0847C21.6137 23.03 25.7544 11.9752 29.9015 0.903808H38.2882C38.2206 2.53621 38.0841 4.16048 37.9899 5.78637C37.8946 7.4295 37.7828 9.07166 37.6753 10.7138C37.5683 12.3443 37.4579 13.9747 37.3831 15.6143C38.3473 13.1757 39.2586 10.721 40.1787 8.26944C41.0987 5.81856 42.0191 3.36801 42.945 0.902832H50.8337C46.6596 12.0461 42.4971 23.1581 38.3356 34.2675H29.8352C30.1524 29.411 30.468 24.5749 30.7839 19.7392C30.3458 20.6718 30.0117 21.6434 29.6471 22.6027C29.2779 23.5737 28.9198 24.5489 28.5567 25.5221C28.1976 26.4853 27.8382 27.4485 27.4788 28.4117C27.1157 29.3849 26.7531 30.3582 26.3897 31.3315C26.0267 32.3041 25.6634 33.2764 25.2906 34.2743L25.2903 34.274Z" fill="#F2F3D9"/>
<path id="Vector_3" d="M51.8795 0.898438H59.7449C55.5724 12.0371 51.4112 23.1456 47.2455 34.266H39.4178C39.4097 34.2527 39.4032 34.2439 39.399 34.2342C39.3951 34.2247 39.3889 34.2127 39.3918 34.2046C43.5306 23.141 47.67 12.0774 51.81 1.01453C51.8246 0.97518 51.8535 0.941036 51.8792 0.898438H51.8795Z" fill="#F2F3D9"/>
</g>
</g>
</svg>
