<svg width="29" height="24" viewBox="0 0 29 24" fill="none" xmlns="http://www.w3.org/2000/svg">
<path id="Vector" d="M6.26244 4.74071C7.21603 2.31657 8.91244 0.950105 11.58 0.910758C14.293 0.870983 15.9067 2.35891 16.9378 4.75782C17.0274 4.61026 17.0861 4.53585 17.1221 4.45159C18.6497 0.903915 22.5489 0.295314 25.1042 1.41329C26.9038 2.20067 27.9727 3.56029 28.2824 5.50456C28.44 6.49338 28.4388 7.48861 28.4366 8.48598C28.4263 13.1846 28.4238 17.8836 28.4173 22.5826C28.4173 22.7532 28.4212 22.9256 28.3994 23.0941C28.3484 23.4816 28.1269 23.7053 27.7405 23.7733C27.6428 23.7904 27.5417 23.7921 27.4423 23.7921C26.2146 23.7934 24.9872 23.7934 23.7595 23.7921C23.6601 23.7921 23.5586 23.7908 23.4613 23.7733C23.0698 23.7023 22.835 23.441 22.8059 23.0424C22.7956 22.9008 22.8008 22.7575 22.8008 22.6155C22.8033 18.2728 22.8085 13.9296 22.8046 9.58685C22.8046 9.13264 22.7806 8.67459 22.7202 8.22466C22.533 6.83125 21.7499 6.04644 20.0561 6.17475C18.863 6.26499 17.9317 7.15629 17.6545 8.34698C17.4759 9.11468 17.4198 9.89649 17.4181 10.6792C17.4082 14.6802 17.4112 18.6816 17.4095 22.6827C17.4095 23.58 17.1979 23.793 16.3047 23.7934C15.1485 23.7938 13.9923 23.7951 12.836 23.7917C12.6801 23.7912 12.5199 23.7844 12.37 23.7476C12.05 23.6685 11.861 23.4393 11.8268 23.1121C11.8135 22.985 11.8169 22.8563 11.8169 22.728C11.8126 19.1397 11.8109 15.5518 11.8028 11.9635C11.8006 10.9961 11.7912 10.0282 11.7621 9.06122C11.7458 8.51848 11.6288 7.989 11.4151 7.48519C11.0591 6.64435 10.4302 6.18544 9.51347 6.12257C8.14691 6.02934 7.2413 6.6204 6.79535 7.91288C6.53746 8.6609 6.44365 9.44015 6.44108 10.225C6.42822 14.3398 6.4278 18.455 6.42308 22.5698C6.42308 22.7122 6.42822 22.855 6.41966 22.997C6.3901 23.476 6.11936 23.7489 5.63528 23.79C5.53589 23.7985 5.43565 23.7938 5.33584 23.7938C4.17962 23.7938 3.0234 23.7938 1.86719 23.7938C1.76737 23.7938 1.6667 23.7985 1.56774 23.7891C1.1098 23.7459 0.839484 23.473 0.805213 23.0184C0.796645 22.9051 0.802216 22.7909 0.802216 22.6767C0.802216 15.9414 0.808213 9.20663 0.793648 2.47139C0.791935 1.6853 1.06439 1.3239 1.9066 1.34828C3.00498 1.37993 4.10508 1.37566 5.20347 1.34828C5.81049 1.33331 6.1939 1.69257 6.16348 2.31785C6.13178 2.97136 6.15663 3.62744 6.15663 4.28265C6.15663 4.42208 6.15663 4.56108 6.15663 4.70051C6.19218 4.71419 6.22731 4.72788 6.26287 4.74156L6.26244 4.74071Z" fill="#F2F3D9"/>
</svg>
