<svg width="225" height="225" viewBox="0 0 225 225" fill="none" xmlns="http://www.w3.org/2000/svg">
<rect width="225" height="225" rx="50" fill="#F2F3D9"/>
<path fill-rule="evenodd" clip-rule="evenodd" d="M147.059 102.549C149.897 97.111 151.501 90.927 151.501 84.3684C151.501 62.6348 133.883 45.0163 112.149 45.0163C90.4153 45.0163 72.7968 62.6348 72.7968 84.3684C72.7968 92.6593 75.3608 100.351 79.7391 106.695L68.8021 125.638C58.5756 114.901 52.2979 100.368 52.2979 84.3684C52.2979 51.3136 79.0941 24.5173 112.149 24.5173C145.204 24.5173 172 51.3136 172 84.3684C172 98.7603 166.92 111.966 158.456 122.29L147.059 102.549Z" fill="#DB6332"/>
<path d="M120.66 199.101C112.705 199.101 107.036 197.411 103.652 194.03C100.269 190.649 98.5771 185.35 98.5771 178.132V105.357H124.364V175.254C124.364 177.264 124.775 178.635 125.598 179.366C126.421 180.005 127.701 180.325 129.439 180.325C130.628 180.325 131.771 180.234 132.868 180.051C134.057 179.868 135.154 179.594 136.16 179.229V196.36C133.782 197.274 131.451 197.959 129.165 198.416C126.97 198.873 124.135 199.101 120.66 199.101Z" fill="#151E3F"/>
</svg>
