<svg id="Group_817" data-name="Group 817" xmlns="http://www.w3.org/2000/svg" width="137.069" height="105.028" viewBox="0 0 137.069 105.028">
  <g id="Group_700" data-name="Group 700" transform="translate(32.922 39.511)">
    <path id="Path_409" data-name="Path 409" d="M251.9-802.306a.428.428,0,0,0-.485-.485c-.211,0-.583.314-1.119.942a9.059,9.059,0,0,1-1.982,1.862,3.9,3.9,0,0,1-1.936.931.851.851,0,0,1-.948-.971,11.165,11.165,0,0,1,.8-3.724l2.519-7.99c1.622-5.157,2.2-7.825,2.736-9.007-.131-.017-.4-.074-.8-.171-.554-.1-1.137-.188-1.748-.286a17.943,17.943,0,0,0-1.131,2.942,4.914,4.914,0,0,0-.959-2.7,3.715,3.715,0,0,0-2.547-.891q-4.9,0-10.412,7.173c-3.672,4.78-5.015,9.018-5.015,12.7a6.16,6.16,0,0,0,1,3.45,3.432,3.432,0,0,0,3.1,1.531q4.84,0,9.275-6c-.131,1.616-.2,2.953-.2,4q0,2.253,1.662,2.256,2.433,0,5.557-2.65C251.356-801.146,251.9-801.786,251.9-802.306Zm-9.846-4.466q-2.4,4.815-4.752,4.809a1.519,1.519,0,0,1-1.376-.737,4.166,4.166,0,0,1-.468-2.188,18.881,18.881,0,0,1,1.319-6.122,16.8,16.8,0,0,1,3.021-5.563q1.7-1.893,2.879-1.891a1.463,1.463,0,0,1,1.285.862,4.2,4.2,0,0,1,.5,2.13A19.854,19.854,0,0,1,242.052-806.772Z" transform="translate(-228.87 833.975)" fill="#fff"/>
    <path id="Path_410" data-name="Path 410" d="M292.5-816a2.526,2.526,0,0,0,.485-1.451,2.629,2.629,0,0,0-.937-1.97,3.2,3.2,0,0,0-2.262-.868c-1.4,0-2.016.034-3.855,2.187a6.943,6.943,0,0,0-2.456-2.359,6.778,6.778,0,0,0-3.313-.788,10.431,10.431,0,0,0-7.727,3.375,11.051,11.051,0,0,0-3.284,7.962,7.261,7.261,0,0,0,.788,3.318,9.773,9.773,0,0,0,2.33,2.913,7.547,7.547,0,0,0-3.889,1.645,3.562,3.562,0,0,0-1.268,2.656q0,2.536,3.341,3.838a17.63,17.63,0,0,0-6.043,3.935,6.979,6.979,0,0,0-2.376,4.718q0,2.51,2.8,4.358a13.748,13.748,0,0,0,7.63,1.845,15.651,15.651,0,0,0,10.035-3.1q3.907-3.1,3.907-6.791a5.958,5.958,0,0,0-1.159-3.507,7.136,7.136,0,0,0-3.244-2.467,41.477,41.477,0,0,0-7.133-1.759q-4.995-.951-5-2.684,0-1.559,4.855-1.645a19.677,19.677,0,0,0,4.318-.5,11.011,11.011,0,0,0,3.821-2.016,11.14,11.14,0,0,0,3.255-3.912,10.762,10.762,0,0,0,1.188-4.935,6.044,6.044,0,0,0-.742-3.021c.937-1.137.628-1.034,1.125-1.034.457,0,1.011.759,1.6,1.531a2.529,2.529,0,0,0,1.9,1.239A1.551,1.551,0,0,0,292.5-816Zm-21.332,23.674q4.686.848,6.1,1.765A2.892,2.892,0,0,1,278.689-788a4.767,4.767,0,0,1-2.2,3.781,8.768,8.768,0,0,1-5.494,1.685,7.1,7.1,0,0,1-4.295-1.125,3.462,3.462,0,0,1-1.508-2.89,6.191,6.191,0,0,1,1.3-3.615,5.989,5.989,0,0,1,3.975-2.3Zm9.1-16.009q-1.6,3.376-3.764,3.284a2.248,2.248,0,0,1-1.771-1.177,5.172,5.172,0,0,1-.68-3.09,16.437,16.437,0,0,1,1.833-7.225q1.671-3.118,3.712-3.039a2.138,2.138,0,0,1,1.81,1.257,6.34,6.34,0,0,1,.588,3.3A17.091,17.091,0,0,1,280.276-808.337Z" transform="translate(-243.095 833.718)" fill="#fff"/>
    <path id="Path_411" data-name="Path 411" d="M347.873-812.125a7.58,7.58,0,0,1-1.936,2.056c-1.5,1-1.5-.5-1.5-.5l8.5-31.51h.5v-1l-10,1.5.251,1.251h2.5l-7.67,30.241a3.553,3.553,0,0,0,3.815,4.529.632.632,0,0,1,.1-.011c3.5-.5,6-4.5,6.5-6,.006-.017.011-.029.017-.046A.607.607,0,0,0,347.873-812.125Z" transform="translate(-275.835 843.08)" fill="#fff"/>
    <path id="Path_412" data-name="Path 412" d="M316.937-816.684l2.5.034-4.906,16.671a3.556,3.556,0,0,0,3.752,4.586c.034-.006.069-.006.1-.011,3.507-.451,6.065-4.415,6.585-5.911.006-.017.011-.029.017-.046a.605.605,0,0,0-1.074-.525,7.634,7.634,0,0,1-1.965,2.027c-1.514.977-1.491-.52-1.491-.52l5.757-17.928.5.006.011-1-10.023,1.359Z" transform="translate(-265.54 832.882)" fill="#fff"/>
    <path id="Path_413" data-name="Path 413" d="M328.672-839.06a3.5,3.5,0,0,0-3.552,3.45,3.5,3.5,0,0,0,3.45,3.552,3.5,3.5,0,0,0,3.552-3.45A3.5,3.5,0,0,0,328.672-839.06Z" transform="translate(-270.148 841.356)" fill="#fff"/>
    <path id="Path_414" data-name="Path 414" d="M368.917-805.439c1.862.023,8.19-.48,12.451-8.042a4.208,4.208,0,0,0,.394-3.3c-.377-1.188-1.376-2.433-3.878-2.684a13,13,0,0,0-8.6,2.679c-.286.217-.583.423-.874.623a16.088,16.088,0,0,0-6.528,10.2,11.039,11.039,0,0,0,.68,7.35,5.966,5.966,0,0,0,4.455,3.158,11.8,11.8,0,0,0,5.866-.508c4-1.5,6.751-6.254,6.751-6.254s0-1-1-.5c0,0-3.5,3-5.5,3.5,0,0-5,1-6-4a1.771,1.771,0,0,1,.451-1.731A1.887,1.887,0,0,1,368.917-805.439Zm7.219-11.777s2,2.5-2,7a13.016,13.016,0,0,1-5.249,2.25S369.636-817.719,376.136-817.216Z" transform="translate(-285.782 832.974)" fill="#fff"/>
  </g>
  <g id="Group_701" data-name="Group 701" transform="translate(0)">
    <path id="Path_415" data-name="Path 415" d="M190.413-838.624s0-24.713,35.308-49.934c0,0,10.589-10.086,46.907-23.7,0,0-37.324,3.027-72.123,28.243,0,0-30.264,22.194-29.254,43.88s20.172,28.243,20.172,28.243,11.1,5.546,39.34,4.541C230.764-807.348,189.408-807.348,190.413-838.624Z" transform="translate(-171.227 912.26)" fill="#fff"/>
    <path id="Path_416" data-name="Path 416" d="M263.54-864.693c7.733-8.407,30.6-16.443,38.369-19a36.716,36.716,0,0,1,5.729-1.388c4.135-.657,11.594-1.571,17.4-.771,8.481,1.165,12.93,4.929,12.93,4.929,6.448,3.787,5.043,15.666,5.043,15.666a41.367,41.367,0,0,0,4.655-14.347c.857-7.036-3.033-13.759-9.367-16.072a27.616,27.616,0,0,0-5.34-1.319,34.315,34.315,0,0,0-13.228.7C283.77-887.493,263.54-864.693,263.54-864.693Z" transform="translate(-210.817 905.861)" fill="#fff"/>
  </g>
  <path id="Path_417" data-name="Path 417" d="M321.05-774.974c6.105-.628,9.355-.948,15.461-1.159s12.211-.28,18.316-.263l4.58.04a11.283,11.283,0,0,0,4.032-.611,11.479,11.479,0,0,0,6.254-5.192,11.482,11.482,0,0,0,1.416-4,20.66,20.66,0,0,0,.206-2.227l.148-2.29c.206-3.05.434-6.1.708-9.15.131,3.056.223,6.111.291,9.161l.086,4.638a13.225,13.225,0,0,1-1.119,4.74,13.218,13.218,0,0,1-7.082,6.74,13.507,13.507,0,0,1-4.94.942l-4.58.04c-6.105.023-12.211-.034-18.316-.263C330.405-774.02,327.155-774.346,321.05-774.974Z" transform="translate(-235.481 864.043)" fill="#fff"/>
</svg>
