<?xml version="1.0" standalone="no"?>
<!DOCTYPE svg PUBLIC "-//W3C//DTD SVG 20010904//EN"
 "http://www.w3.org/TR/2001/REC-SVG-20010904/DTD/svg10.dtd">
<svg version="1.0" xmlns="http://www.w3.org/2000/svg"
 width="2358.000000pt" height="1506.000000pt" viewBox="0 0 2358.000000 1506.000000"
 preserveAspectRatio="xMidYMid meet">

<g transform="translate(0.000000,1506.000000) scale(0.100000,-0.100000)"
fill="#000000" stroke="none">
<path d="M17293 14999 c9 -5 17 -21 17 -34 l0 -25 -190 0 c-160 0 -192 -2
-196 -15 -5 -12 -27 -15 -109 -15 -76 0 -106 -4 -114 -14 -8 -9 -40 -15 -95
-17 -62 -3 -89 -9 -103 -21 -15 -14 -37 -18 -100 -18 -59 0 -84 -4 -93 -15 -9
-11 -32 -15 -80 -15 -45 0 -71 -5 -79 -14 -6 -7 -42 -16 -83 -20 -41 -4 -79
-13 -88 -21 -10 -9 -37 -15 -69 -15 -37 0 -53 -4 -57 -15 -5 -11 -21 -15 -59
-15 -34 0 -59 -5 -69 -15 -8 -8 -32 -15 -53 -15 -21 0 -55 -9 -76 -20 -21 -11
-56 -20 -81 -20 -26 0 -48 -6 -56 -15 -7 -8 -27 -15 -46 -15 -18 0 -39 -7 -48
-15 -8 -8 -26 -15 -40 -15 -14 0 -43 -9 -63 -20 -21 -11 -47 -20 -58 -20 -12
0 -30 -7 -41 -15 -10 -8 -30 -15 -44 -15 -14 0 -34 -6 -45 -14 -11 -7 -37 -16
-58 -19 -20 -3 -44 -13 -53 -21 -8 -9 -24 -16 -33 -16 -10 0 -24 -7 -31 -15
-7 -8 -23 -15 -35 -15 -12 0 -28 -7 -35 -15 -7 -8 -25 -15 -40 -15 -15 0 -33
-7 -40 -15 -7 -8 -18 -15 -24 -15 -6 0 -28 -9 -49 -20 -20 -11 -43 -20 -51
-20 -7 0 -19 -7 -26 -15 -7 -8 -23 -15 -37 -15 -13 0 -26 -6 -29 -14 -3 -8
-20 -17 -39 -20 -18 -4 -51 -20 -74 -36 -22 -17 -47 -30 -55 -30 -7 0 -19 -7
-26 -15 -7 -8 -20 -15 -30 -15 -9 0 -27 -9 -40 -20 -13 -11 -31 -20 -40 -20
-10 0 -23 -7 -30 -15 -7 -8 -18 -15 -26 -15 -7 0 -32 -13 -56 -28 -24 -16 -65
-40 -92 -53 -27 -13 -51 -29 -53 -36 -3 -7 -13 -13 -23 -13 -9 0 -26 -8 -38
-18 -11 -10 -38 -27 -59 -38 -21 -10 -42 -25 -46 -31 -4 -7 -14 -13 -22 -13
-13 0 -104 -55 -136 -82 -22 -19 -51 -37 -74 -47 -12 -5 -27 -16 -34 -25 -7
-9 -20 -16 -27 -16 -7 0 -41 -19 -74 -42 -34 -24 -75 -51 -93 -61 -18 -11 -41
-27 -53 -38 -11 -10 -24 -19 -28 -19 -7 0 -67 -40 -76 -51 -3 -3 -25 -18 -50
-33 -63 -38 -111 -74 -133 -97 -10 -10 -24 -19 -31 -19 -8 0 -33 -16 -56 -35
-23 -19 -47 -35 -54 -35 -7 0 -25 -13 -41 -30 -16 -16 -34 -30 -42 -30 -7 0
-27 -13 -45 -28 -28 -24 -108 -80 -203 -142 -86 -56 -151 -100 -160 -108 -6
-4 -43 -27 -83 -51 -39 -23 -72 -46 -72 -51 0 -5 -11 -12 -25 -16 -14 -3 -44
-21 -67 -40 -24 -19 -47 -34 -52 -34 -4 0 -25 -13 -45 -28 -20 -16 -43 -32
-51 -36 -24 -11 -52 -29 -99 -64 -24 -17 -48 -32 -53 -32 -4 0 -27 -12 -50
-27 -23 -16 -53 -36 -67 -45 -14 -10 -39 -24 -56 -31 -16 -8 -39 -24 -49 -36
-11 -11 -24 -21 -30 -21 -6 0 -36 -16 -66 -36 -30 -20 -97 -59 -149 -86 -52
-27 -109 -60 -126 -74 -17 -13 -47 -30 -66 -39 -48 -22 -143 -76 -149 -85 -3
-4 -16 -11 -30 -15 -14 -4 -27 -11 -30 -16 -3 -4 -113 -62 -245 -130 -132 -67
-247 -127 -255 -133 -8 -7 -41 -25 -73 -40 -31 -16 -60 -33 -63 -37 -3 -5 -16
-9 -29 -9 -12 0 -25 -6 -28 -14 -3 -7 -19 -16 -35 -19 -16 -3 -132 -56 -258
-118 -296 -144 -328 -159 -337 -159 -5 0 -47 -18 -95 -41 -136 -63 -165 -76
-192 -84 -14 -4 -59 -24 -100 -45 -42 -20 -89 -40 -105 -44 -16 -4 -55 -21
-88 -37 -32 -16 -65 -29 -73 -29 -7 0 -47 -16 -88 -35 -41 -19 -82 -35 -91
-35 -9 0 -37 -11 -64 -24 -26 -14 -77 -34 -112 -46 -35 -12 -77 -28 -94 -35
-48 -22 -118 -46 -150 -52 -16 -3 -39 -12 -50 -19 -11 -8 -31 -14 -45 -14 -14
0 -34 -6 -45 -14 -11 -7 -40 -16 -65 -20 -48 -7 -132 -32 -164 -48 -11 -6 -42
-14 -70 -19 -28 -4 -82 -15 -121 -24 -224 -51 -403 -70 -655 -69 -164 1 -231
5 -283 17 -38 10 -84 17 -103 17 -20 0 -45 5 -57 12 -12 6 -35 15 -52 19 -16
4 -61 20 -100 34 -38 15 -83 29 -98 32 -16 3 -31 12 -34 19 -3 8 -14 14 -26
14 -11 0 -30 9 -42 20 -11 10 -48 34 -82 52 -34 18 -78 47 -98 63 -91 74 -204
174 -245 216 -90 94 -220 248 -220 262 0 11 -43 71 -57 80 -7 4 -13 14 -13 21
0 7 -14 32 -30 54 -17 23 -30 48 -30 56 0 7 -7 19 -15 26 -8 7 -15 20 -15 29
0 9 -9 34 -20 56 -11 22 -20 44 -20 51 0 6 -7 17 -15 24 -9 8 -15 30 -15 59 0
27 -7 56 -16 70 -24 34 -24 408 0 442 9 13 16 38 16 55 0 17 7 37 15 44 8 7
15 19 15 27 0 7 9 26 21 42 25 34 23 98 -4 115 -13 8 -20 8 -25 0 -4 -6 -19
-14 -33 -17 -15 -4 -41 -20 -59 -37 -18 -16 -36 -30 -41 -30 -5 0 -9 -7 -9
-15 0 -8 -7 -15 -15 -15 -8 0 -15 -7 -15 -15 0 -8 -8 -15 -18 -15 -10 0 -40
-22 -67 -50 -27 -27 -53 -50 -57 -50 -10 0 -418 -408 -418 -418 0 -10 -31 -36
-53 -45 -9 -3 -17 -12 -17 -19 0 -7 -13 -24 -30 -38 -16 -14 -30 -30 -30 -37
0 -7 -16 -27 -35 -46 -19 -19 -35 -39 -35 -46 0 -6 -7 -11 -15 -11 -8 0 -15
-4 -15 -8 0 -4 -23 -32 -50 -61 -28 -29 -50 -62 -50 -72 0 -11 -7 -19 -15 -19
-8 0 -15 -3 -15 -7 0 -5 -29 -39 -65 -78 -35 -38 -68 -79 -71 -90 -4 -10 -20
-30 -35 -44 -16 -14 -29 -31 -29 -37 0 -7 -7 -14 -15 -18 -8 -3 -15 -12 -15
-20 0 -8 -16 -31 -35 -50 -19 -20 -35 -40 -35 -45 0 -5 -7 -11 -15 -15 -8 -3
-15 -13 -15 -22 0 -9 -16 -31 -35 -50 -19 -18 -35 -37 -35 -42 0 -6 -7 -12
-15 -16 -8 -3 -15 -14 -15 -24 0 -11 -16 -37 -35 -58 -19 -21 -35 -46 -35 -55
0 -9 -7 -19 -15 -23 -8 -3 -15 -12 -15 -21 0 -8 -5 -15 -11 -15 -5 0 -15 -13
-20 -29 -6 -16 -17 -32 -25 -35 -8 -3 -14 -12 -14 -20 0 -7 -7 -16 -15 -20 -8
-3 -15 -17 -15 -31 0 -16 -6 -25 -15 -25 -8 0 -15 -7 -15 -15 0 -9 -6 -18 -14
-21 -8 -3 -18 -19 -21 -35 -4 -16 -13 -29 -21 -29 -8 0 -14 -6 -14 -14 0 -7
-7 -19 -15 -26 -8 -7 -15 -20 -15 -29 0 -9 -14 -29 -31 -46 -17 -16 -33 -42
-36 -57 -3 -15 -11 -29 -19 -32 -8 -3 -14 -17 -14 -31 0 -14 -6 -25 -14 -25
-7 0 -16 -13 -19 -29 -3 -16 -20 -44 -37 -62 -16 -18 -30 -42 -30 -52 0 -9 -7
-20 -15 -23 -9 -4 -15 -19 -15 -35 0 -18 -5 -29 -14 -29 -15 0 -26 -21 -26
-51 0 -10 -7 -19 -15 -19 -8 0 -15 -6 -15 -14 0 -8 -7 -16 -15 -20 -9 -3 -15
-18 -15 -36 0 -20 -5 -30 -15 -30 -8 0 -15 -8 -15 -19 0 -10 -9 -30 -20 -44
-11 -14 -20 -34 -20 -45 0 -11 -7 -22 -15 -26 -8 -3 -15 -17 -15 -31 0 -14 -7
-28 -15 -31 -9 -4 -15 -19 -15 -35 0 -19 -5 -29 -15 -29 -8 0 -17 -14 -21 -34
-3 -19 -12 -37 -20 -40 -8 -3 -14 -16 -14 -30 0 -13 -7 -26 -15 -30 -10 -4
-15 -20 -15 -51 0 -34 -4 -45 -15 -45 -9 0 -18 -12 -21 -29 -4 -17 -12 -32
-20 -35 -8 -3 -14 -19 -14 -35 0 -16 -6 -31 -15 -35 -10 -4 -15 -20 -15 -51 0
-33 -4 -45 -15 -45 -8 0 -17 -14 -21 -34 -3 -19 -12 -37 -20 -40 -9 -3 -14
-20 -14 -45 0 -25 -5 -41 -15 -45 -9 -3 -15 -18 -15 -36 0 -20 -5 -30 -15 -30
-11 0 -15 -12 -15 -50 0 -36 -4 -50 -14 -50 -17 0 -26 -21 -26 -60 0 -16 -7
-30 -15 -34 -10 -4 -15 -20 -15 -51 0 -33 -4 -45 -15 -45 -11 0 -15 -12 -15
-50 0 -36 -4 -50 -14 -50 -15 0 -26 -30 -26 -71 0 -15 -7 -29 -15 -33 -10 -4
-15 -20 -15 -51 0 -33 -4 -45 -15 -45 -12 0 -15 -14 -15 -65 0 -51 -3 -65 -15
-65 -12 0 -15 -14 -15 -64 0 -55 -3 -64 -20 -69 -17 -4 -20 -14 -20 -66 0 -48
-3 -61 -15 -61 -12 0 -15 -16 -15 -85 0 -69 -3 -85 -15 -85 -12 0 -15 -17 -17
-82 -1 -46 -3 -65 -6 -43 -12 122 56 959 94 1137 4 23 3 27 -10 22 -11 -4 -16
-19 -16 -50 0 -30 -5 -46 -15 -50 -9 -4 -15 -19 -15 -40 0 -21 -8 -42 -20 -54
-13 -13 -20 -33 -20 -60 0 -27 -5 -43 -15 -46 -11 -5 -15 -22 -15 -65 0 -44
-4 -61 -15 -65 -8 -4 -15 -16 -15 -28 0 -11 -7 -34 -16 -51 -9 -16 -18 -52
-21 -80 -3 -27 -11 -55 -19 -61 -9 -8 -14 -32 -14 -75 0 -38 -6 -73 -14 -84
-7 -11 -16 -51 -20 -90 -4 -38 -11 -74 -16 -80 -5 -6 -12 -41 -16 -79 -4 -37
-12 -73 -19 -80 -7 -7 -14 -54 -17 -113 -3 -56 -10 -108 -16 -115 -5 -7 -13
-65 -17 -128 -3 -63 -10 -124 -15 -135 -4 -11 -13 -102 -19 -203 -6 -100 -16
-192 -21 -203 -16 -29 -9 -1043 7 -1084 16 -41 22 -325 7 -325 -6 0 -30 39
-54 87 -23 49 -48 100 -56 115 -8 14 -14 33 -14 42 0 9 -7 19 -15 22 -8 4 -15
16 -15 29 0 12 -7 28 -15 35 -8 7 -15 21 -15 31 0 9 -7 24 -15 32 -7 8 -17 26
-20 40 -4 15 -13 31 -21 38 -8 6 -14 19 -14 29 0 10 -7 23 -15 30 -8 7 -15 21
-15 31 0 9 -6 24 -14 31 -7 8 -17 25 -21 38 -4 14 -12 31 -18 39 -22 27 -87
154 -87 169 0 6 -7 12 -15 16 -8 3 -15 12 -15 19 0 8 -7 20 -15 27 -8 7 -15
21 -15 31 0 10 -6 22 -13 26 -7 4 -26 34 -42 66 -44 84 -52 99 -62 106 -4 3
-19 27 -33 53 -13 27 -28 48 -32 48 -5 0 -8 7 -8 15 0 8 -9 24 -20 35 -11 11
-20 26 -20 34 0 8 -16 31 -35 52 -19 22 -42 55 -52 74 -10 19 -30 46 -44 61
-15 14 -29 35 -33 45 -3 11 -19 34 -36 52 -16 18 -30 34 -30 35 0 1 -27 31
-61 67 -34 36 -82 89 -107 119 -62 73 -89 99 -142 141 -24 19 -52 43 -63 54
-10 10 -47 32 -81 49 -53 28 -73 32 -157 35 -81 3 -102 1 -135 -16 -89 -45
-174 -154 -209 -266 -9 -28 -20 -60 -25 -71 -29 -69 -63 -216 -79 -340 -4 -34
-13 -70 -19 -82 -7 -12 -12 -41 -12 -65 0 -24 -7 -78 -15 -121 -8 -43 -19
-135 -25 -205 -5 -70 -14 -143 -20 -162 -5 -19 -10 -84 -11 -145 0 -60 -5
-135 -10 -165 -6 -30 -14 -131 -19 -225 -5 -93 -14 -235 -19 -315 -6 -80 -15
-372 -22 -650 -6 -278 -16 -506 -20 -508 -12 -5 -12 -982 0 -982 4 0 12 -172
15 -382 4 -211 11 -387 16 -391 16 -17 137 -28 351 -34 201 -5 223 -3 309 18
162 39 242 95 298 209 l27 55 -2 386 -3 386 25 27 c13 14 30 26 37 26 7 0 25
7 40 14 16 8 49 18 75 22 26 4 62 13 80 20 18 8 47 14 65 14 18 1 44 7 58 15
14 8 41 14 60 15 19 0 48 7 63 15 15 8 45 17 65 21 20 4 46 13 57 20 11 8 29
14 40 14 11 0 38 7 61 15 46 16 84 10 84 -13 0 -8 6 -23 14 -31 25 -30 86
-121 86 -130 0 -5 7 -14 15 -21 8 -7 15 -21 15 -32 0 -10 7 -21 15 -24 8 -4
15 -12 15 -19 0 -7 9 -24 20 -38 11 -14 20 -32 20 -40 0 -8 7 -20 15 -27 8 -7
15 -21 15 -31 0 -9 7 -24 15 -33 8 -8 15 -21 15 -29 0 -8 9 -26 20 -40 11 -14
20 -31 20 -39 0 -7 16 -31 35 -52 19 -21 36 -42 37 -45 8 -17 88 -71 106 -71
11 0 22 -7 26 -15 8 -22 273 -22 302 0 10 8 36 15 57 15 22 0 51 7 65 15 15 8
53 26 85 40 31 15 57 31 57 36 0 5 14 9 31 9 22 0 32 -5 36 -19 3 -11 11 -22
19 -25 8 -3 14 -17 14 -31 0 -14 7 -28 15 -31 8 -4 15 -12 15 -19 0 -7 15 -32
32 -56 18 -25 38 -52 43 -61 6 -9 29 -44 52 -78 24 -33 43 -65 43 -69 0 -5 7
-11 15 -15 8 -3 15 -10 15 -16 0 -12 62 -102 90 -130 11 -11 30 -36 43 -57 14
-21 34 -47 46 -57 11 -11 21 -24 21 -31 0 -6 16 -26 35 -45 19 -19 35 -37 35
-40 0 -4 43 -51 95 -105 52 -54 95 -101 95 -105 0 -6 57 -61 233 -225 26 -25
49 -45 52 -45 3 0 30 -25 60 -55 30 -30 58 -55 62 -55 4 0 30 -21 56 -45 26
-25 50 -45 53 -45 5 0 66 -41 74 -51 3 -3 13 -8 23 -12 9 -3 17 -13 17 -21 0
-7 11 -17 25 -20 14 -4 25 -11 25 -16 0 -6 7 -10 15 -10 9 0 18 -7 21 -15 4
-8 15 -15 25 -15 10 0 19 -6 19 -14 0 -8 14 -17 31 -21 17 -4 33 -13 36 -21 3
-8 11 -14 19 -14 8 0 14 -7 14 -15 0 -9 9 -15 25 -15 13 0 28 -6 32 -13 4 -7
21 -19 37 -27 59 -30 66 -35 66 -47 0 -7 9 -13 19 -13 11 0 26 -7 35 -15 8 -8
19 -15 25 -15 19 0 89 -41 95 -56 3 -8 17 -14 31 -14 14 0 28 -7 31 -15 4 -9
19 -15 35 -15 19 0 29 -5 29 -15 0 -9 9 -15 24 -15 13 0 29 -6 35 -14 6 -8 21
-16 32 -19 12 -3 -10 26 -58 76 -89 94 -314 346 -362 406 -30 38 -31 41 -12
41 12 0 21 -6 21 -15 0 -8 7 -15 15 -15 8 0 15 -7 15 -15 0 -8 7 -15 15 -15 8
0 15 -7 15 -15 0 -10 11 -15 35 -15 28 0 35 -4 35 -20 0 -11 6 -20 14 -20 8 0
16 -7 20 -15 3 -9 18 -15 36 -15 20 0 30 -5 30 -15 0 -8 7 -15 15 -15 8 0 15
-7 15 -15 0 -8 14 -17 35 -21 20 -3 35 -12 35 -20 0 -8 7 -14 15 -14 8 0 15
-7 15 -15 0 -10 11 -15 35 -15 24 0 35 -5 35 -15 0 -10 10 -15 29 -15 20 0 30
-6 34 -20 4 -15 14 -20 36 -20 21 0 31 -5 31 -15 0 -8 6 -15 14 -15 8 0 16 -7
20 -15 3 -9 18 -15 36 -15 20 0 30 -5 30 -15 0 -8 8 -15 19 -15 10 0 30 -9 44
-20 14 -11 34 -20 45 -20 11 0 22 -7 26 -15 3 -9 18 -15 36 -15 20 0 30 -5 30
-15 0 -11 12 -15 45 -15 32 0 45 -4 45 -14 0 -15 21 -26 50 -26 10 0 20 -7 24
-15 3 -9 18 -15 35 -15 16 0 31 -6 35 -15 3 -10 19 -15 45 -15 25 0 41 -5 45
-15 3 -8 15 -15 27 -15 11 0 32 -9 46 -20 14 -11 40 -20 58 -20 18 0 38 -7 45
-15 7 -8 29 -15 50 -15 24 0 40 -5 44 -15 3 -10 19 -15 47 -15 26 0 46 -6 53
-15 6 -9 35 -18 66 -22 30 -3 64 -12 75 -19 11 -8 34 -14 51 -14 17 0 37 -7
44 -15 8 -10 30 -15 65 -15 35 0 57 -5 65 -15 9 -11 32 -15 78 -15 48 0 71 -5
84 -17 13 -11 42 -18 86 -21 37 -2 73 -9 80 -14 6 -6 53 -13 102 -16 58 -3 94
-10 101 -18 9 -10 42 -14 129 -14 86 0 121 -4 129 -13 8 -10 56 -15 182 -20
119 -4 175 -9 186 -19 22 -18 1352 -17 1548 1 72 7 250 15 397 19 186 6 272
12 280 20 7 7 43 12 92 12 76 0 344 28 481 51 33 5 100 14 150 20 49 5 94 14
99 19 6 6 33 10 60 10 28 0 71 6 96 14 25 7 76 17 115 21 38 4 79 13 90 21 11
8 44 14 75 14 30 1 66 7 80 15 14 8 40 14 58 15 18 0 54 6 80 14 78 23 184 49
232 56 25 4 59 12 75 18 55 20 137 42 154 42 9 0 30 7 46 16 17 8 53 18 80 21
28 3 59 12 70 19 11 8 31 14 45 14 15 0 35 7 46 15 10 8 31 15 45 15 14 0 34
7 45 15 10 8 30 15 44 15 14 0 42 9 63 20 20 11 47 20 59 20 13 0 32 7 42 15
11 8 34 15 52 15 17 0 37 7 44 15 7 8 24 15 39 15 14 0 43 9 64 20 20 11 47
20 59 20 13 0 32 7 42 15 11 8 29 15 40 15 11 0 47 13 80 29 56 26 110 46 194
72 17 5 32 14 32 19 0 6 9 10 21 10 11 0 53 16 92 35 39 19 78 35 88 35 9 0
22 7 29 15 7 8 21 15 32 15 10 0 48 16 84 35 35 19 73 35 83 35 10 0 24 7 31
15 7 8 20 15 28 15 9 0 57 20 107 44 49 25 101 50 115 55 14 6 32 15 40 20 8
4 51 25 95 46 44 21 87 41 95 46 8 5 22 12 30 15 8 3 22 9 30 14 23 13 173 88
190 94 8 3 42 22 75 41 33 19 105 57 160 84 55 27 117 61 138 75 21 14 44 26
50 26 7 0 18 5 23 10 11 11 20 16 179 99 55 29 109 62 121 72 11 10 28 19 37
19 9 0 19 4 22 10 3 5 30 22 58 36 75 37 95 49 115 67 10 10 25 17 33 17 8 0
20 5 26 11 13 13 47 33 81 48 12 6 53 30 90 53 37 24 88 54 115 68 26 13 47
28 47 32 0 4 24 19 54 33 29 14 72 39 94 55 23 17 45 30 48 30 3 0 23 14 44
30 21 17 40 30 43 30 6 0 258 166 277 182 15 14 46 33 70 44 8 4 22 14 30 21
8 8 56 41 107 74 50 33 102 70 115 84 12 14 27 25 31 25 8 0 63 37 85 57 7 7
17 13 21 13 4 0 18 10 31 23 13 12 47 38 76 57 28 19 76 54 105 77 30 24 71
55 92 70 21 16 54 42 73 60 18 18 54 44 79 58 25 15 45 30 45 33 0 4 17 18 38
32 34 22 65 48 174 148 20 17 40 32 44 32 7 0 51 38 167 146 27 24 52 44 55
44 7 0 54 42 206 182 48 46 94 85 101 88 16 6 295 275 472 454 277 281 423
432 423 440 0 4 30 38 68 75 37 38 96 103 132 145 36 42 85 98 110 124 72 78
150 170 150 177 0 4 13 21 29 38 16 18 55 59 85 92 33 35 59 56 63 50 19 -25
75 -55 101 -55 16 0 36 -7 43 -16 11 -14 28 -16 97 -11 46 3 89 10 95 16 6 6
33 11 60 11 49 0 202 44 213 61 3 5 15 9 28 9 12 0 27 5 33 11 13 13 46 33 80
48 39 18 45 44 29 124 -19 92 -35 154 -49 192 -6 17 -12 65 -15 108 -2 56 -8
80 -18 84 -10 3 -14 22 -14 58 0 32 -6 59 -14 67 -7 8 -15 40 -18 72 -3 33
-11 61 -18 66 -11 7 -6 15 18 36 18 16 32 34 32 40 0 7 7 14 15 18 8 3 15 17
15 31 0 15 6 25 14 25 8 0 18 9 21 20 3 11 10 20 15 20 5 0 13 12 18 28 10 26
10 25 11 -14 1 -27 6 -44 16 -48 11 -4 15 -21 15 -60 0 -35 5 -60 15 -70 8 -8
15 -26 15 -41 0 -14 6 -28 14 -31 7 -3 16 -23 20 -45 4 -25 12 -39 21 -39 8 0
15 -5 15 -11 0 -5 11 -34 25 -62 24 -48 32 -64 57 -107 4 -8 11 -22 14 -30 13
-35 49 -100 56 -100 3 0 10 -10 14 -22 7 -23 26 -47 99 -122 57 -59 149 -116
190 -116 11 -1 31 -7 45 -15 29 -17 220 -21 236 -5 5 5 68 12 139 16 72 3 149
12 173 20 23 8 62 14 85 14 24 0 52 7 63 15 10 8 37 15 59 15 22 0 58 9 80 20
22 11 49 19 61 20 11 0 29 7 40 15 10 8 27 15 37 15 10 0 35 9 55 19 20 10 57
28 82 40 110 52 169 91 245 163 80 75 165 185 165 213 0 29 19 24 29 -7 44
-147 112 -243 230 -327 24 -17 54 -31 66 -31 13 0 39 -7 58 -15 46 -19 135
-19 184 -1 21 8 55 17 75 19 44 7 174 70 264 130 113 75 105 20 116 762 6 352
14 642 19 643 12 5 12 1182 0 1182 -5 0 -12 183 -16 408 -3 224 -11 470 -16
547 -5 77 -14 217 -19 310 -6 94 -16 199 -22 235 -6 36 -14 106 -18 155 -10
118 -29 239 -46 297 -8 26 -14 54 -14 62 0 29 -53 175 -81 226 -5 8 -16 32
-25 53 -9 20 -22 37 -30 37 -8 0 -14 7 -14 15 0 10 -10 15 -30 15 -19 0 -33 7
-40 20 -8 15 -21 20 -54 20 -27 0 -48 6 -56 15 -17 20 -226 22 -255 1 -11 -7
-47 -16 -80 -20 -36 -4 -63 -12 -68 -21 -4 -9 -22 -15 -41 -15 -19 0 -39 -7
-46 -15 -7 -8 -21 -15 -31 -15 -10 0 -20 -4 -23 -9 -3 -4 -31 -21 -62 -37 -31
-16 -59 -34 -61 -41 -3 -7 -11 -13 -19 -13 -7 0 -30 -12 -51 -26 l-38 -26 -7
39 c-4 21 -7 91 -7 156 -1 82 -5 124 -15 140 -7 12 -16 59 -19 105 -3 45 -10
88 -15 95 -5 7 -12 36 -14 66 -3 29 -10 56 -15 60 -6 3 -13 30 -16 59 -3 29
-13 62 -22 74 -8 13 -15 37 -15 54 0 17 -7 37 -15 44 -8 7 -15 27 -15 46 0 18
-7 39 -15 48 -8 8 -15 25 -15 38 -1 13 -9 41 -20 63 -11 22 -19 45 -20 51 0 6
-7 17 -15 24 -8 7 -15 23 -15 37 0 13 -7 26 -15 29 -8 4 -15 18 -15 31 0 27
-35 93 -57 106 -7 4 -13 19 -13 31 0 13 -7 26 -15 30 -8 3 -15 17 -15 31 0 14
-7 28 -15 31 -8 4 -15 12 -15 19 0 7 -15 32 -34 56 -18 24 -36 54 -40 67 -4
12 -12 22 -17 22 -5 0 -9 6 -9 13 0 7 -9 20 -20 30 -11 9 -20 23 -20 29 0 7
-22 37 -50 67 -27 30 -50 60 -50 67 0 7 -36 49 -80 94 -44 45 -80 87 -80 94 0
16 -253 266 -269 266 -7 0 -40 28 -74 61 -34 34 -80 73 -102 87 -22 14 -44 31
-50 37 -19 20 -93 75 -101 75 -5 0 -29 19 -53 41 -25 23 -58 48 -75 56 -17 8
-65 39 -106 69 -41 30 -87 59 -102 65 -16 6 -28 15 -28 20 0 5 -8 9 -19 9 -10
0 -39 16 -64 35 -25 19 -50 35 -55 35 -5 0 -29 11 -53 25 -24 14 -58 32 -76
40 -17 8 -34 19 -38 25 -3 5 -14 10 -24 10 -10 0 -24 7 -31 15 -7 8 -23 15
-35 15 -12 0 -28 7 -35 15 -7 8 -20 15 -30 15 -10 0 -23 6 -29 14 -7 8 -25 18
-41 21 -16 3 -31 13 -34 21 -3 8 -16 14 -29 14 -14 0 -30 7 -37 15 -7 8 -18
15 -26 15 -7 0 -43 16 -81 35 -37 19 -74 35 -81 35 -11 0 -36 11 -112 51 -69
36 -122 59 -138 59 -11 0 -25 7 -32 15 -7 8 -23 15 -35 15 -12 0 -28 7 -35 15
-7 8 -23 15 -35 15 -12 0 -28 7 -35 15 -7 8 -28 17 -48 21 -19 4 -47 13 -61
20 -14 8 -36 14 -49 14 -13 0 -30 7 -38 15 -9 8 -28 15 -42 15 -15 0 -36 6
-47 14 -11 7 -38 16 -60 20 -22 4 -45 12 -51 17 -7 5 -36 13 -65 16 -29 3 -64
12 -78 20 -15 7 -38 13 -54 13 -15 0 -75 11 -133 25 -58 14 -118 25 -134 25
-15 0 -58 6 -96 14 -142 29 -195 37 -291 43 -54 3 -113 12 -132 19 -23 10 -79
14 -177 14 -121 0 -144 2 -144 15 0 13 -23 15 -152 15 -109 -1 -148 -4 -135
-11z m5824 -3681 c32 -12 71 -33 86 -47 31 -28 77 -112 77 -140 0 -9 4 -21 9
-26 14 -14 43 -171 80 -425 26 -186 58 -656 70 -1045 18 -553 7 -2834 -13
-2945 -4 -19 -9 -49 -12 -66 -4 -28 -17 -39 -98 -88 -52 -31 -101 -56 -108
-56 -7 0 -25 -8 -38 -17 -21 -15 -47 -18 -150 -18 l-125 0 -55 37 c-57 38 -92
78 -122 138 -33 68 -58 141 -58 171 0 17 -4 38 -10 48 -5 10 -17 65 -26 122
-9 57 -23 142 -30 189 -34 206 -74 544 -99 820 -7 80 -18 197 -24 260 -22 234
-41 459 -50 590 -5 74 -12 169 -16 210 -9 115 -24 367 -40 675 -8 154 -18 341
-24 415 -5 74 -11 317 -13 539 l-3 403 38 33 c102 88 273 181 407 221 107 31
265 33 347 2z m-2292 -553 c22 -8 48 -15 57 -15 19 0 82 -70 108 -120 40 -80
85 -261 95 -383 4 -43 11 -93 17 -110 6 -19 13 -396 18 -942 5 -500 13 -986
19 -1080 11 -172 34 -388 52 -480 6 -27 14 -70 19 -95 14 -69 40 -151 58 -178
13 -20 21 -23 56 -18 628 80 888 66 1039 -57 173 -142 156 -488 -33 -677 -57
-57 -200 -158 -260 -183 -19 -9 -60 -25 -90 -37 -30 -11 -64 -25 -75 -30 -11
-5 -56 -18 -100 -30 -44 -12 -98 -26 -120 -32 -103 -28 -428 -67 -570 -67
-124 -1 -168 16 -255 99 -20 19 -54 58 -76 85 -40 51 -145 255 -184 355 -12
30 -25 64 -30 75 -12 30 -40 115 -50 155 -5 19 -18 67 -30 105 -22 73 -39 141
-64 263 -9 41 -18 77 -20 81 -3 4 -10 39 -16 77 -6 38 -15 83 -20 99 -8 27
-26 126 -66 370 -8 50 -21 126 -29 170 -8 44 -17 105 -20 135 -3 30 -10 82
-15 115 -14 82 -39 279 -50 400 -5 55 -14 134 -20 175 -9 73 -23 208 -55 540
-9 91 -21 233 -26 315 -5 83 -13 175 -18 205 -5 30 -12 125 -16 210 -3 85 -9
170 -12 188 -5 30 0 38 58 95 98 96 201 160 321 201 96 33 111 35 233 35 88 0
143 -4 170 -14z m-9125 -65 c0 -5 -4 -10 -10 -10 -5 0 -10 5 -10 10 0 6 5 10
10 10 6 0 10 -4 10 -10z m560 6 c0 -3 -4 -8 -10 -11 -5 -3 -10 -1 -10 4 0 6 5
11 10 11 6 0 10 -2 10 -4z m553 -26 c-7 -28 -13 -25 -13 6 0 14 4 23 9 20 5
-3 7 -15 4 -26z m-983 -10 c0 -5 -4 -10 -10 -10 -5 0 -10 5 -10 10 0 6 5 10
10 10 6 0 10 -4 10 -10z m200 0 c0 -5 -4 -10 -10 -10 -5 0 -10 5 -10 10 0 6 5
10 10 10 6 0 10 -4 10 -10z m130 0 c0 -5 -4 -10 -10 -10 -5 0 -10 5 -10 10 0
6 5 10 10 10 6 0 10 -4 10 -10z m160 0 c0 -5 -5 -10 -11 -10 -5 0 -7 5 -4 10
3 6 8 10 11 10 2 0 4 -4 4 -10z m-1016 -41 c-3 -5 -10 -7 -15 -3 -5 3 -7 10
-3 15 3 5 10 7 15 3 5 -3 7 -10 3 -15z m331 12 c3 -5 1 -12 -5 -16 -5 -3 -10
1 -10 9 0 18 6 21 15 7z m65 -1 c0 -5 -4 -10 -10 -10 -5 0 -10 5 -10 10 0 6 5
10 10 10 6 0 10 -4 10 -10z m170 -20 c0 -25 -18 -36 -26 -16 -8 21 3 49 16 41
5 -3 10 -15 10 -25z m91 17 c-1 -12 -15 -9 -19 4 -3 6 1 10 8 8 6 -3 11 -8 11
-12z m99 -3 c0 -8 -4 -12 -10 -9 -5 3 -10 10 -10 16 0 5 5 9 10 9 6 0 10 -7
10 -16z m70 8 c0 -13 -12 -22 -22 -16 -10 6 -1 24 13 24 5 0 9 -4 9 -8z m160
-8 c0 -8 -5 -12 -10 -9 -6 4 -8 11 -5 16 9 14 15 11 15 -7z m100 -14 c0 -16
-4 -30 -10 -30 -11 0 -14 43 -3 53 11 12 13 8 13 -23z m195 20 c3 -5 1 -10 -4
-10 -6 0 -11 5 -11 10 0 6 2 10 4 10 3 0 8 -4 11 -10z m-659 -47 c-10 -10 -19
5 -10 18 6 11 8 11 12 0 2 -7 1 -15 -2 -18z m104 -3 c0 -16 -4 -30 -10 -30
-11 0 -14 43 -3 53 11 12 13 8 13 -23z m67 4 c-9 -9 -28 6 -21 18 4 6 10 6 17
-1 6 -6 8 -13 4 -17z m227 5 c-3 -5 -10 -7 -15 -3 -5 3 -7 10 -3 15 3 5 10 7
15 3 5 -3 7 -10 3 -15z m-1084 -9 c0 -11 -4 -20 -10 -20 -5 0 -10 9 -10 20 0
11 5 20 10 20 6 0 10 -9 10 -20z m560 -6 c0 -14 -5 -24 -11 -22 -6 2 -10 7
-10 11 1 4 1 14 1 22 0 8 5 15 10 15 6 0 10 -12 10 -26z m395 -17 c0 -52 -19
-51 -23 2 -2 32 0 42 10 39 8 -3 13 -20 13 -41z m65 -2 c0 -25 -4 -45 -9 -45
-13 0 -17 17 -13 56 6 50 22 42 22 -11z m200 35 c0 -5 -4 -10 -10 -10 -5 0
-10 5 -10 10 0 6 5 10 10 10 6 0 10 -4 10 -10z m95 0 c-3 -5 -17 -10 -31 -10
-13 0 -24 5 -24 10 0 6 14 10 31 10 17 0 28 -4 24 -10z m65 0 c0 -5 -4 -10
-10 -10 -5 0 -10 5 -10 10 0 6 5 10 10 10 6 0 10 -4 10 -10z m70 6 c0 -3 -4
-8 -10 -11 -5 -3 -10 -1 -10 4 0 6 5 11 10 11 6 0 10 -2 10 -4z m230 0 c0 -3
-4 -8 -10 -11 -5 -3 -10 -1 -10 4 0 6 5 11 10 11 6 0 10 -2 10 -4z m-1750 -36
c0 -5 -4 -10 -10 -10 -5 0 -10 5 -10 10 0 6 5 10 10 10 6 0 10 -4 10 -10z
m170 0 c0 -5 -4 -10 -10 -10 -5 0 -10 5 -10 10 0 6 5 10 10 10 6 0 10 -4 10
-10z m225 0 c3 -5 1 -10 -4 -10 -6 0 -11 5 -11 10 0 6 2 10 4 10 3 0 8 -4 11
-10z m105 0 c0 -5 -11 -10 -25 -10 -14 0 -25 5 -25 10 0 6 11 10 25 10 14 0
25 -4 25 -10z m65 0 c3 -5 -1 -10 -9 -10 -9 0 -16 5 -16 10 0 6 4 10 9 10 6 0
13 -4 16 -10z m165 0 c0 -5 -7 -10 -15 -10 -8 0 -15 5 -15 10 0 6 7 10 15 10
8 0 15 -4 15 -10z m65 0 c3 -5 -1 -10 -9 -10 -9 0 -16 5 -16 10 0 6 4 10 9 10
6 0 13 -4 16 -10z m165 -14 c0 -14 -5 -28 -10 -31 -13 -8 -24 20 -16 40 9 24
26 17 26 -9z m230 14 c0 -5 -4 -10 -10 -10 -5 0 -10 5 -10 10 0 6 5 10 10 10
6 0 10 -4 10 -10z m60 0 c0 -5 -4 -10 -10 -10 -5 0 -10 5 -10 10 0 6 5 10 10
10 6 0 10 -4 10 -10z m70 0 c0 -5 -4 -10 -10 -10 -5 0 -10 5 -10 10 0 6 5 10
10 10 6 0 10 -4 10 -10z m100 -15 c0 -14 -4 -25 -10 -25 -5 0 -10 11 -10 25 0
14 5 25 10 25 6 0 10 -11 10 -25z m65 -3 c0 -31 -19 -28 -23 4 -3 18 0 25 10
22 7 -3 13 -14 13 -26z m65 18 c0 -5 -4 -10 -10 -10 -5 0 -10 5 -10 10 0 6 5
10 10 10 6 0 10 -4 10 -10z m130 0 c0 -5 -4 -10 -10 -10 -5 0 -10 5 -10 10 0
6 5 10 10 10 6 0 10 -4 10 -10z m100 -15 c0 -14 -4 -25 -10 -25 -5 0 -10 11
-10 25 0 14 5 25 10 25 6 0 10 -11 10 -25z m317 -17 c-3 -7 -5 -2 -5 12 0 14
2 19 5 13 2 -7 2 -19 0 -25z m-2162 2 c3 -5 1 -10 -4 -10 -6 0 -11 5 -11 10 0
6 2 10 4 10 3 0 8 -4 11 -10z m170 1 c3 -5 1 -12 -5 -16 -5 -3 -10 1 -10 9 0
18 6 21 15 7z m134 -33 c1 -5 -6 -8 -14 -8 -15 0 -21 31 -8 44 7 6 20 -17 22
-36z m131 -9 c0 -28 -4 -39 -15 -39 -9 0 -19 -8 -22 -17 -4 -10 -11 -21 -17
-26 -7 -5 -5 -12 7 -21 9 -7 17 -18 17 -25 0 -13 17 -15 25 -2 3 6 -2 14 -12
20 -16 9 -15 12 10 35 27 25 29 26 52 9 27 -20 33 -43 10 -43 -8 0 -15 -7 -15
-15 0 -21 11 -18 38 10 21 21 22 26 8 31 -20 8 -21 30 -2 37 8 3 16 18 18 33
4 36 28 44 28 10 0 -15 8 -31 20 -38 26 -17 25 -34 -2 -42 -19 -4 -20 -8 -10
-18 11 -11 16 -10 26 5 16 21 32 22 40 1 3 -8 10 -12 16 -9 15 9 12 25 -5 25
-19 0 -20 26 -1 33 8 3 16 18 18 33 4 36 28 44 28 10 0 -15 8 -31 20 -38 23
-15 27 -38 5 -38 -8 0 -15 -7 -15 -15 0 -23 9 -19 52 25 29 29 41 50 45 80 6
46 20 52 29 13 4 -16 14 -33 23 -40 14 -11 14 -13 -4 -26 -19 -15 -19 -15 5
-40 23 -24 40 -27 40 -6 0 5 -7 9 -15 9 -24 0 -17 19 20 54 19 19 35 43 35 55
0 26 8 26 38 2 28 -25 28 -27 -10 -61 -25 -23 -29 -33 -20 -42 9 -9 13 -7 18
5 3 9 12 17 19 17 7 0 16 -8 19 -17 5 -13 9 -14 19 -4 9 10 8 15 -7 26 -19 14
-18 15 8 40 l28 26 26 -26 c24 -25 25 -26 6 -40 -15 -11 -16 -16 -7 -26 10
-10 14 -9 19 4 8 21 30 22 38 2 3 -8 10 -15 16 -15 15 0 12 26 -5 40 -13 11
-12 16 12 37 24 23 28 24 38 9 15 -20 31 -21 39 -1 8 23 26 18 26 -8 0 -20 76
-107 94 -107 15 0 4 23 -24 50 -27 26 -42 80 -23 80 3 0 28 -23 56 -51 37 -38
52 -48 61 -39 8 8 6 15 -8 25 -18 14 -18 15 5 39 l23 24 25 -24 c23 -24 24
-25 5 -38 -18 -14 -18 -15 9 -42 21 -20 31 -24 39 -16 8 8 7 13 -5 18 -23 8
-21 26 3 47 25 21 26 21 52 -5 20 -20 20 -22 3 -35 -14 -9 -16 -16 -8 -24 8
-8 20 -3 43 21 29 30 32 31 50 15 13 -12 20 -13 26 -4 4 7 0 17 -9 24 -25 18
-21 25 13 25 29 0 30 -2 30 -44 0 -32 -5 -46 -17 -50 -12 -5 -13 -10 -5 -18
20 -20 62 31 62 75 0 26 4 37 15 37 9 0 15 -9 15 -25 0 -14 7 -28 15 -31 21
-9 19 -16 -16 -52 -17 -17 -28 -36 -24 -42 5 -7 26 8 56 40 28 28 54 48 59 45
19 -12 9 -40 -25 -75 -22 -21 -31 -38 -26 -43 12 -12 101 71 101 95 0 9 -9 23
-20 31 -23 16 -16 27 17 27 20 0 23 -5 23 -39 0 -22 6 -44 15 -51 16 -13 20
-7 27 35 6 34 23 22 26 -19 2 -28 -1 -42 -12 -48 -18 -10 -22 -38 -6 -38 26 0
60 53 60 92 0 24 4 37 10 33 6 -3 10 -32 10 -65 0 -45 -4 -59 -17 -64 -13 -5
-14 -9 -4 -19 10 -9 15 -8 25 6 7 9 18 17 24 17 6 0 12 25 14 60 4 76 22 83
26 10 3 -46 8 -60 34 -87 30 -31 31 -33 14 -52 -12 -13 -14 -21 -6 -26 6 -4
32 14 58 39 26 25 50 46 55 46 18 0 4 -43 -23 -70 -16 -16 -30 -34 -30 -40 0
-20 26 -9 54 22 26 30 29 31 41 15 15 -21 34 -22 41 -2 5 13 10 12 28 -7 19
-20 21 -25 8 -40 -17 -21 -12 -63 8 -63 9 0 16 11 18 28 4 33 15 34 43 6 20
-20 20 -23 5 -31 -22 -12 -20 -26 7 -49 38 -32 62 -23 31 12 -14 16 -14 19 5
38 l21 21 24 -25 c18 -18 21 -25 10 -29 -22 -8 -16 -29 15 -57 16 -14 31 -36
33 -50 1 -13 11 -25 21 -27 23 -5 24 53 1 66 -15 8 -15 11 5 31 l21 21 21 -21
c20 -20 20 -21 2 -34 -17 -13 -17 -14 0 -32 17 -17 19 -17 36 6 15 20 19 21
24 7 7 -17 37 -22 37 -6 0 6 7 10 15 10 11 0 15 -12 15 -52 0 -34 6 -58 16
-70 16 -16 16 -18 0 -24 -9 -3 -16 -10 -16 -15 0 -14 51 -60 61 -54 14 9 11
26 -8 40 -15 11 -15 13 5 19 27 9 28 32 2 46 -16 8 -20 21 -20 60 0 27 5 52
10 55 6 4 10 -11 10 -39 0 -35 5 -48 20 -56 11 -6 20 -21 20 -34 0 -13 7 -27
16 -30 16 -6 16 -8 0 -24 -9 -10 -16 -28 -16 -39 0 -12 -7 -23 -15 -27 -18 -7
-20 -36 -2 -36 19 0 57 46 57 69 0 26 5 26 31 0 l21 -21 -32 -33 -32 -33 27
-26 c14 -14 30 -26 35 -26 15 0 12 26 -4 39 -12 10 -11 15 7 35 26 26 37 24
37 -9 0 -13 8 -29 18 -35 16 -10 16 -10 0 -20 -20 -12 -24 -40 -6 -40 6 0 20
7 30 17 17 15 18 15 18 -12 0 -15 -8 -34 -17 -41 -17 -12 -16 -15 15 -42 l32
-29 0 -270 c0 -217 3 -273 14 -282 10 -9 14 -62 18 -232 3 -136 8 -223 15
-227 5 -4 13 -61 17 -127 10 -164 14 -206 25 -219 4 -6 11 -69 14 -139 3 -73
10 -134 16 -140 6 -6 11 -38 12 -71 0 -34 5 -88 10 -121 6 -33 14 -110 19
-170 5 -61 16 -137 25 -170 8 -33 15 -92 15 -131 0 -51 4 -77 15 -88 11 -11
15 -38 15 -101 0 -54 5 -99 14 -118 8 -18 16 -72 18 -120 2 -49 8 -91 14 -95
6 -4 14 -51 17 -105 4 -67 10 -104 21 -115 10 -12 15 -43 17 -105 1 -48 -1
-90 -5 -94 -3 -3 -6 15 -6 41 0 32 -5 48 -15 52 -10 4 -15 20 -15 44 0 21 -6
45 -14 52 -7 8 -16 34 -20 59 -4 26 -13 55 -21 65 -8 11 -15 35 -15 55 0 20
-7 42 -15 49 -8 7 -15 27 -15 46 0 18 -6 39 -13 46 -8 7 -16 33 -20 56 -3 24
-12 51 -21 61 -9 10 -16 31 -16 48 0 17 -7 36 -15 43 -8 7 -15 27 -15 45 0 18
-7 38 -15 45 -8 7 -15 24 -15 39 0 14 -9 40 -20 56 -11 17 -20 40 -20 52 0 12
-7 28 -15 37 -8 8 -15 28 -15 45 0 16 -6 36 -13 43 -8 7 -17 31 -21 53 -4 21
-14 48 -22 59 -8 11 -14 30 -14 43 0 12 -7 28 -15 37 -8 8 -15 26 -15 40 0 13
-7 31 -15 40 -8 8 -15 23 -15 33 -1 10 -9 36 -20 58 -11 22 -19 47 -20 56 0 9
-7 22 -15 29 -8 7 -15 23 -15 36 0 12 -7 29 -15 38 -8 8 -15 23 -15 33 0 10
-9 35 -20 56 -11 20 -20 43 -20 51 0 7 -7 19 -15 26 -8 7 -15 23 -15 35 0 12
-7 28 -15 35 -8 7 -15 21 -15 32 0 11 -7 32 -15 46 -8 15 -19 38 -25 52 -5 14
-14 32 -19 40 -26 46 -41 80 -41 93 0 8 -7 20 -15 27 -8 7 -15 23 -15 35 0 12
-6 28 -14 34 -8 7 -17 23 -21 38 -3 14 -13 32 -20 40 -8 8 -15 23 -15 34 0 11
-7 22 -15 25 -8 4 -15 16 -15 29 0 12 -7 28 -15 35 -8 7 -15 18 -15 25 0 6 -9
22 -20 35 -11 13 -20 31 -20 40 0 10 -7 23 -15 30 -8 7 -15 18 -15 26 0 7 -6
19 -12 26 -7 7 -24 36 -38 63 -14 27 -31 56 -37 63 -7 7 -13 20 -13 28 0 8 -7
17 -15 20 -8 4 -15 12 -15 18 0 10 -47 84 -158 249 -14 20 -29 37 -34 37 -4 0
-8 7 -8 15 0 9 -7 18 -15 21 -8 4 -15 11 -15 16 0 32 -216 248 -248 248 -5 0
-15 7 -22 15 -7 8 -22 15 -33 15 -11 0 -28 7 -38 16 -29 26 -163 24 -221 -5
-49 -23 -148 -109 -148 -128 0 -6 -6 -13 -12 -16 -27 -10 -124 -226 -149 -330
-5 -21 -13 -45 -18 -55 -5 -9 -15 -37 -21 -62 -28 -107 -42 -168 -52 -215 -5
-27 -16 -72 -23 -100 -14 -53 -30 -140 -44 -240 -4 -33 -13 -76 -19 -95 -6
-19 -16 -69 -21 -110 -13 -97 -29 -201 -42 -270 -6 -30 -15 -98 -20 -151 -5
-53 -13 -109 -19 -123 -5 -15 -13 -70 -16 -124 -4 -53 -10 -101 -15 -107 -4
-5 -10 -41 -13 -80 -12 -141 -16 -171 -25 -215 -6 -25 -10 -67 -11 -95 0 -27
-9 -111 -20 -185 -11 -74 -20 -164 -20 -200 0 -37 -4 -70 -10 -76 -5 -5 -12
-57 -15 -114 -3 -58 -12 -152 -20 -210 -8 -58 -19 -163 -25 -235 -6 -71 -15
-166 -20 -210 -5 -44 -9 -126 -9 -183 -1 -57 -6 -113 -12 -124 -7 -12 -15
-121 -20 -257 -5 -130 -13 -245 -19 -256 -10 -23 -20 -101 -20 -160 0 -36 -2
-38 -14 -23 -18 25 -36 22 -36 -4 0 -32 -47 -75 -63 -59 -9 10 -8 14 6 22 21
12 23 57 2 65 -20 8 -19 24 3 40 13 10 14 15 5 25 -14 14 -6 107 11 128 7 9
12 89 14 223 3 190 2 215 -17 270 -12 34 -21 73 -21 86 0 34 -31 82 -58 89
-12 3 -111 3 -220 -1 -492 -15 -792 -18 -805 -8 -6 6 -77 13 -157 17 -106 5
-156 12 -185 25 -24 10 -53 16 -72 13 -33 -5 -33 -5 -34 38 -1 35 -2 39 -8 19
-9 -32 -51 -41 -51 -11 0 25 -16 36 -24 16 -9 -24 -24 -18 -72 31 -43 42 -47
44 -64 29 -16 -14 -18 -14 -31 1 -11 14 -11 18 4 29 12 9 17 27 17 64 0 28 -2
51 -5 51 -3 0 -14 -9 -25 -20 -17 -17 -18 -21 -5 -26 18 -7 20 -44 3 -44 -7 0
-24 12 -37 25 -23 25 -23 55 1 55 8 1 7 6 -5 14 -10 8 -15 20 -11 30 8 21 23
20 41 -1 13 -16 14 -13 8 26 -3 24 -2 47 2 50 10 8 53 69 53 75 0 3 16 22 35
42 19 19 35 42 35 50 0 8 7 17 15 20 8 4 15 13 15 20 0 8 7 17 15 20 8 4 15
10 15 15 0 10 35 63 58 87 6 7 12 19 12 27 0 7 7 15 15 19 8 3 15 14 15 25 0
10 6 21 14 24 7 3 17 18 21 34 3 15 11 30 16 34 13 8 155 280 197 379 18 42
34 80 61 142 12 26 21 55 21 65 0 10 7 27 15 37 8 11 15 32 15 46 0 14 7 35
15 46 8 10 15 35 15 54 0 19 7 48 16 65 8 16 19 57 24 90 5 33 14 85 21 115 7
34 12 156 12 315 0 210 -3 267 -15 295 -8 20 -18 57 -22 82 -4 26 -11 50 -16
53 -4 3 -11 23 -15 44 -3 22 -13 47 -20 58 -8 10 -15 25 -15 34 0 9 -7 22 -15
29 -8 7 -15 21 -15 31 0 9 -6 24 -13 31 -7 7 -18 24 -25 38 -12 25 -30 54 -45
74 -4 6 -25 34 -45 61 -71 95 -226 235 -261 235 -5 0 -14 7 -21 15 -7 8 -20
15 -30 15 -10 0 -23 6 -29 14 -6 7 -25 16 -41 20 -20 4 -30 11 -30 24 0 17 -6
18 -56 14 -41 -3 -59 -1 -65 9 -5 8 -8 49 -8 92 1 67 4 78 18 75 13 -3 17 -18
19 -76 4 -103 22 -90 22 17 0 62 -4 92 -14 100 -16 13 -9 64 8 58 6 -2 13 -14
14 -27 2 -13 10 -29 17 -35 8 -5 15 -27 17 -48 5 -59 23 -48 26 16 2 44 0 59
-12 63 -9 4 -16 18 -16 34 0 16 -7 30 -15 34 -17 6 -21 26 -5 26 20 0 60 -44
60 -67 0 -13 5 -23 10 -23 6 0 10 18 10 40 0 28 6 45 20 57 24 21 26 49 3 61
-11 7 -14 16 -9 28 7 18 8 18 20 2 21 -28 33 -21 39 23 6 46 11 54 27 44 15
-9 3 -87 -15 -97 -14 -8 -8 -58 6 -58 5 0 9 13 9 29 0 20 6 31 18 33 14 3 17
14 18 61 0 52 4 61 32 86 17 16 34 41 38 55 3 15 11 25 18 23 19 -6 19 -37 0
-58 -17 -19 -17 -20 4 -39 36 -34 42 -25 42 59 0 96 5 111 36 111 27 0 33 -24
9 -34 -16 -6 -20 -67 -9 -125 11 -52 21 -35 27 45 4 50 11 80 21 87 8 7 16 27
18 46 5 54 28 52 28 -3 0 -34 4 -46 15 -46 11 0 15 12 15 45 0 25 -4 45 -10
45 -5 0 -10 10 -10 22 0 22 0 22 26 -3 16 -16 28 -42 31 -68 7 -53 26 -48 34
9 3 24 11 46 17 48 7 2 12 15 12 28 0 17 6 24 20 24 15 0 20 -7 20 -26 0 -16
5 -24 13 -22 18 7 21 47 3 54 -24 9 -19 56 9 83 20 18 25 20 25 7 0 -9 -4 -16
-10 -16 -5 0 -10 -16 -10 -36 0 -42 23 -43 28 0 5 36 36 31 40 -7 2 -15 7 -27
11 -27 15 0 19 50 5 61 -19 15 -18 39 1 39 20 0 19 20 -2 36 -10 7 -15 16 -10
20 4 4 16 -2 27 -14 22 -23 26 -42 10 -42 -5 0 -10 -7 -10 -15 0 -18 4 -19 31
-2 17 10 22 9 30 -5 6 -10 16 -18 24 -18 7 0 15 -5 17 -12 2 -6 9 -8 15 -5 8
5 2 18 -18 39 -16 18 -29 36 -29 40 0 4 19 8 43 10 l42 3 3 44 c2 32 -1 47
-12 53 -20 11 -21 28 -1 28 8 0 15 -7 15 -15 0 -8 7 -15 15 -15 9 0 18 7 21
15 4 8 17 15 30 15 14 0 27 -7 30 -15 4 -8 12 -15 20 -15 8 0 14 -7 14 -16 0
-22 34 -13 38 10 2 10 -6 28 -18 41 -15 16 -18 25 -10 30 13 8 32 -14 24 -27
-12 -19 21 -6 42 18 28 29 30 44 9 44 -8 0 -15 -7 -15 -15 0 -8 -7 -15 -15
-15 -21 0 -18 11 10 38 21 21 26 22 31 8 3 -9 12 -16 20 -16 8 0 14 -7 14 -15
0 -8 -7 -15 -16 -15 -9 0 -14 -7 -12 -17 2 -13 13 -18 33 -18 27 0 30 4 33 33
2 20 9 32 18 32 8 0 14 7 14 15 0 8 7 15 15 15 8 0 15 -7 15 -15 0 -11 12 -15
50 -15 49 0 50 1 50 30 0 20 5 30 15 30 10 0 15 -10 15 -30 0 -23 4 -30 20
-30 11 0 20 -7 20 -15 0 -8 7 -15 15 -15 8 0 15 5 15 10 0 15 38 50 55 50 9 0
15 9 15 23 0 13 9 32 20 42 12 10 18 25 15 33 -6 17 3 34 16 27 5 -4 9 -24 9
-46z m70 0 c0 -28 -4 -39 -15 -39 -11 0 -15 11 -15 38 0 21 3 42 6 45 14 13
24 -6 24 -44z m90 36 c0 -8 -4 -15 -10 -15 -5 0 -10 7 -10 15 0 8 5 15 10 15
6 0 10 -7 10 -15z m70 -1 c0 -17 -22 -14 -28 4 -2 7 3 12 12 12 9 0 16 -7 16
-16z m100 -29 c0 -33 -4 -45 -15 -45 -9 0 -15 9 -15 25 0 14 -7 28 -15 31 -27
11 -17 34 15 34 29 0 30 -2 30 -45z m130 15 c0 -20 -5 -30 -15 -30 -10 0 -15
10 -15 30 0 20 5 30 15 30 10 0 15 -10 15 -30z m330 22 c0 -13 -12 -22 -22
-16 -10 6 -1 24 13 24 5 0 9 -4 9 -8z m60 -7 c0 -8 -4 -15 -10 -15 -5 0 -10 7
-10 15 0 8 5 15 10 15 6 0 10 -7 10 -15z m70 7 c0 -13 -12 -22 -22 -16 -10 6
-1 24 13 24 5 0 9 -4 9 -8z m61 -5 c-1 -12 -15 -9 -19 4 -3 6 1 10 8 8 6 -3
11 -8 11 -12z m233 -38 c-3 -5 -9 -9 -15 -9 -11 0 -12 43 -2 54 9 9 25 -33 17
-45z m66 41 c0 -5 -4 -10 -10 -10 -5 0 -10 5 -10 10 0 6 5 10 10 10 6 0 10 -4
10 -10z m60 0 c0 -5 -5 -10 -11 -10 -5 0 -7 5 -4 10 3 6 8 10 11 10 2 0 4 -4
4 -10z m-1680 -10 c0 -5 -2 -10 -4 -10 -3 0 -8 5 -11 10 -3 6 -1 10 4 10 6 0
11 -4 11 -10z m270 -10 c0 -11 -6 -20 -14 -20 -9 0 -12 7 -9 20 3 11 9 20 14
20 5 0 9 -9 9 -20z m6878 8 c88 -21 180 -97 294 -239 49 -62 208 -297 253
-374 15 -27 31 -52 34 -55 4 -3 12 -16 19 -30 6 -14 34 -65 62 -115 69 -125
300 -594 300 -608 0 -6 35 -86 81 -183 10 -23 19 -48 19 -57 0 -9 4 -18 9 -21
5 -3 12 -18 15 -33 4 -16 13 -41 21 -58 7 -16 24 -57 36 -90 13 -33 27 -64 31
-69 4 -6 8 -16 8 -24 0 -8 7 -28 14 -45 15 -32 56 -144 83 -227 8 -25 21 -59
29 -77 8 -17 14 -35 14 -41 0 -5 7 -23 15 -38 8 -16 15 -38 15 -49 0 -11 6
-29 14 -40 7 -11 16 -33 19 -50 6 -36 35 -123 48 -147 5 -10 13 -34 18 -55 9
-36 14 -53 41 -133 6 -19 18 -56 26 -82 8 -27 21 -72 30 -100 9 -29 22 -73 29
-98 8 -25 18 -58 24 -75 10 -29 49 -168 77 -270 12 -47 36 -134 68 -250 41
-144 59 -214 66 -250 5 -22 27 -114 50 -204 30 -114 40 -169 33 -180 -14 -23
-100 -65 -183 -91 -59 -18 -101 -23 -195 -24 -133 -1 -159 8 -221 76 -34 38
-144 257 -144 288 0 7 -6 24 -14 38 -7 15 -39 79 -71 142 -73 147 -150 273
-172 281 -19 6 -62 -2 -103 -19 -58 -25 -449 -112 -500 -112 -19 0 -51 -4 -70
-9 -19 -5 -62 -14 -95 -22 -102 -22 -170 -81 -189 -164 -3 -16 -13 -173 -21
-347 -15 -355 -23 -399 -84 -466 -69 -76 -141 -96 -346 -96 -175 -1 -330 16
-375 39 -28 15 -31 20 -27 48 3 18 11 138 17 267 6 129 15 303 21 385 5 83 14
233 19 335 6 102 14 205 19 230 6 25 15 110 20 190 16 219 30 381 46 525 8 72
21 195 30 275 22 204 53 458 71 570 8 52 14 111 14 130 0 19 7 68 15 110 7 41
19 111 24 155 6 44 17 118 25 165 8 47 22 132 30 189 9 57 19 107 21 112 3 4
10 38 15 76 5 37 19 111 31 163 11 52 27 128 34 168 8 40 18 80 23 90 5 9 12
38 15 64 4 26 11 56 16 65 5 10 28 78 52 151 23 73 46 135 51 138 4 3 8 12 8
20 0 24 77 147 115 184 56 55 105 68 183 48z m-7374 -29 c-3 -5 -10 -7 -15 -3
-5 3 -7 10 -3 15 3 5 10 7 15 3 5 -3 7 -10 3 -15z m197 -2 c-13 -13 -26 -3
-16 12 3 6 11 8 17 5 6 -4 6 -10 -1 -17z m166 -3 c-9 -9 -28 6 -21 18 4 6 10
6 17 -1 6 -6 8 -13 4 -17z m403 -4 c0 -20 -5 -30 -15 -30 -10 0 -15 10 -15 30
0 20 5 30 15 30 10 0 15 -10 15 -30z m490 15 c0 -8 -7 -15 -15 -15 -16 0 -20
12 -8 23 11 12 23 8 23 -8z m260 0 c0 -8 -4 -15 -10 -15 -5 0 -10 7 -10 15 0
8 5 15 10 15 6 0 10 -7 10 -15z m130 0 c0 -8 -4 -15 -10 -15 -5 0 -10 7 -10
15 0 8 5 15 10 15 6 0 10 -7 10 -15z m64 -6 c-3 -5 -10 -7 -15 -3 -5 3 -7 10
-3 15 3 5 10 7 15 3 5 -3 7 -10 3 -15z m231 12 c3 -5 1 -12 -5 -16 -5 -3 -10
1 -10 9 0 18 6 21 15 7z m100 -1 c8 -13 -20 -24 -41 -16 -20 8 -9 26 16 26 10
0 22 -5 25 -10z m-1775 -10 c0 -5 -4 -10 -10 -10 -5 0 -10 5 -10 10 0 6 5 10
10 10 6 0 10 -4 10 -10z m1610 0 c0 -5 -4 -10 -10 -10 -5 0 -10 5 -10 10 0 6
5 10 10 10 6 0 10 -4 10 -10z m230 -15 c0 -14 -4 -25 -10 -25 -5 0 -10 11 -10
25 0 14 5 25 10 25 6 0 10 -11 10 -25z m70 -15 c0 -22 -4 -40 -10 -40 -5 0
-10 18 -10 40 0 22 5 40 10 40 6 0 10 -18 10 -40z m-2076 -1 c-3 -5 -10 -7
-15 -3 -5 3 -7 10 -3 15 3 5 10 7 15 3 5 -3 7 -10 3 -15z m62 -6 c-10 -10 -19
5 -10 18 6 11 8 11 12 0 2 -7 1 -15 -2 -18z m174 6 c0 -5 -7 -9 -15 -9 -15 0
-20 12 -9 23 8 8 24 -1 24 -14z m60 0 c0 -5 -4 -9 -10 -9 -5 0 -10 7 -10 16 0
8 5 12 10 9 6 -3 10 -10 10 -16z m70 -15 c0 -24 -31 -64 -50 -64 -5 0 -10 14
-10 30 0 19 5 30 14 30 8 0 18 9 21 20 8 26 25 16 25 -16z m1280 16 c0 -5 -4
-10 -10 -10 -5 0 -10 5 -10 10 0 6 5 10 10 10 6 0 10 -4 10 -10z m230 -15 c0
-14 -4 -25 -10 -25 -5 0 -10 11 -10 25 0 14 5 25 10 25 6 0 10 -11 10 -25z
m-2105 -15 c3 -5 1 -10 -4 -10 -6 0 -11 5 -11 10 0 6 2 10 4 10 3 0 8 -4 11
-10z m100 0 c3 -5 -1 -10 -9 -10 -9 0 -16 5 -16 10 0 6 4 10 9 10 6 0 13 -4
16 -10z m65 0 c0 -5 -4 -10 -10 -10 -5 0 -10 5 -10 10 0 6 5 10 10 10 6 0 10
-4 10 -10z m161 -3 c-1 -12 -15 -9 -19 4 -3 6 1 10 8 8 6 -3 11 -8 11 -12z
m107 1 c-5 -15 -33 -22 -54 -14 -24 9 -6 26 27 26 20 0 29 -4 27 -12z m1932 2
c0 -5 -5 -10 -11 -10 -5 0 -7 5 -4 10 3 6 8 10 11 10 2 0 4 -4 4 -10z m100
-15 c0 -14 -4 -25 -10 -25 -11 0 -14 33 -3 43 11 11 13 8 13 -18z m-2162 -17
c-6 -18 -28 -21 -28 -4 0 9 7 16 16 16 9 0 14 -5 12 -12z m2262 -24 c0 -8 -4
-14 -10 -14 -5 0 -10 9 -10 21 0 11 5 17 10 14 6 -3 10 -13 10 -21z m61 -17
c-8 -8 -11 -3 -11 19 1 25 2 27 11 11 8 -14 8 -22 0 -30z m-2627 2 c-3 -5 -10
-7 -15 -3 -5 3 -7 10 -3 15 3 5 10 7 15 3 5 -3 7 -10 3 -15z m62 -6 c-10 -10
-19 5 -10 18 6 11 8 11 12 0 2 -7 1 -15 -2 -18z m71 1 c-9 -9 -28 6 -21 18 4
6 10 6 17 -1 6 -6 8 -13 4 -17z m-197 6 c0 -5 -4 -10 -10 -10 -5 0 -10 5 -10
10 0 6 5 10 10 10 6 0 10 -4 10 -10z m2560 0 c0 -5 -2 -10 -4 -10 -3 0 -8 5
-11 10 -3 6 -1 10 4 10 6 0 11 -4 11 -10z m-2690 -30 c0 -5 -4 -10 -10 -10 -5
0 -10 5 -10 10 0 6 5 10 10 10 6 0 10 -4 10 -10z m100 0 c0 -5 -4 -10 -10 -10
-5 0 -10 5 -10 10 0 6 5 10 10 10 6 0 10 -4 10 -10z m2560 -15 c0 -14 -4 -25
-10 -25 -5 0 -10 11 -10 25 0 14 5 25 10 25 6 0 10 -11 10 -25z m70 0 c0 -14
-4 -25 -10 -25 -5 0 -10 11 -10 25 0 14 5 25 10 25 6 0 10 -11 10 -25z m-2670
-15 c0 -5 -5 -10 -11 -10 -5 0 -7 5 -4 10 3 6 8 10 11 10 2 0 4 -4 4 -10z m70
1 c0 -6 -4 -13 -10 -16 -5 -3 -10 1 -10 9 0 9 5 16 10 16 6 0 10 -4 10 -9z
m2700 -36 c0 -19 -4 -36 -9 -40 -15 -8 -19 6 -14 47 6 46 23 40 23 -7z m60 0
c0 -19 -4 -35 -10 -35 -5 0 -10 16 -10 35 0 19 5 35 10 35 6 0 10 -16 10 -35z
m68 -35 c-1 -38 -5 -70 -8 -70 -4 0 -15 9 -26 21 -17 19 -18 21 -1 30 12 7 17
22 17 49 0 22 5 40 10 40 6 0 9 -28 8 -70z m-3131 28 c-3 -8 -6 -5 -6 6 -1 11
2 17 5 13 3 -3 4 -12 1 -19z m130 0 c-3 -8 -6 -5 -6 6 -1 11 2 17 5 13 3 -3 4
-12 1 -19z m73 12 c0 -5 -5 -10 -11 -10 -5 0 -7 5 -4 10 3 6 8 10 11 10 2 0 4
-4 4 -10z m2664 -11 c-3 -5 -10 -7 -15 -3 -5 3 -7 10 -3 15 3 5 10 7 15 3 5
-3 7 -10 3 -15z m-2530 -18 c8 -13 -21 -34 -39 -27 -25 9 -18 36 9 36 14 0 27
-4 30 -9z m-264 -11 c0 -5 -4 -10 -10 -10 -5 0 -10 5 -10 10 0 6 5 10 10 10 6
0 10 -4 10 -10z m90 0 c0 -5 -2 -10 -4 -10 -3 0 -8 5 -11 10 -3 6 -1 10 4 10
6 0 11 -4 11 -10z m3026 -68 c-11 -10 -13 3 -7 43 l6 40 3 -39 c2 -21 1 -41
-2 -44z m2448 67 c159 -28 229 -48 306 -88 158 -81 263 -185 338 -334 29 -56
52 -109 52 -118 0 -9 6 -32 14 -50 7 -19 19 -83 26 -144 18 -157 3 -497 -27
-595 -6 -19 -21 -69 -34 -110 -12 -41 -28 -89 -36 -107 -7 -17 -13 -36 -13
-43 0 -7 -6 -24 -14 -38 -8 -15 -35 -70 -60 -122 -44 -91 -61 -122 -134 -241
-41 -67 -124 -185 -157 -223 -14 -15 -25 -31 -25 -35 0 -15 -250 -280 -376
-398 -134 -127 -237 -212 -357 -299 -112 -80 -110 -76 -92 -224 16 -130 26
-204 50 -355 7 -49 19 -126 25 -170 6 -44 18 -120 26 -170 7 -49 19 -124 25
-165 6 -41 17 -100 25 -131 8 -30 14 -76 14 -102 0 -25 5 -58 11 -74 6 -15 17
-71 25 -123 7 -52 20 -131 29 -175 8 -44 19 -111 25 -150 6 -38 16 -90 22
-115 6 -25 13 -95 16 -156 l4 -111 -73 -74 c-115 -116 -194 -147 -389 -156
-100 -5 -174 4 -245 28 -16 6 -44 14 -62 19 -62 15 -86 42 -100 112 -16 76
-38 193 -52 268 -6 30 -18 87 -26 125 -8 39 -19 102 -26 140 -6 39 -17 104
-25 145 -8 41 -21 113 -29 160 -23 144 -36 222 -50 295 -8 39 -19 104 -25 145
-7 41 -18 111 -25 155 -8 44 -19 114 -25 155 -6 41 -16 98 -22 125 -6 28 -15
82 -19 120 -11 109 -39 286 -50 325 -6 19 -14 76 -19 125 -4 50 -13 126 -19
170 -7 44 -18 132 -26 195 -8 63 -19 151 -25 195 -6 44 -17 136 -24 205 -7 69
-18 170 -24 225 -46 415 -77 1157 -51 1208 19 37 108 137 208 236 219 214 477
369 741 445 25 7 68 19 95 25 28 7 64 17 80 22 17 5 75 14 130 20 55 6 102 12
104 15 9 9 307 4 365 -7z m-5507 -41 c-3 -8 -6 -5 -6 6 -1 11 2 17 5 13 3 -3
4 -12 1 -19z m143 12 c0 -5 -7 -10 -15 -10 -8 0 -15 5 -15 10 0 6 7 10 15 10
8 0 15 -4 15 -10z m3050 -52 c0 -34 -4 -58 -8 -52 -8 9 -4 114 4 114 2 0 4
-28 4 -62z m-61 -3 c0 -31 -3 -55 -9 -55 -6 0 -10 6 -10 14 0 8 -8 17 -17 21
-17 6 -17 7 0 16 9 6 17 21 17 34 0 14 4 25 9 25 4 0 9 -25 10 -55z m-3325 14
c-3 -5 -10 -7 -15 -3 -5 3 -7 10 -3 15 3 5 10 7 15 3 5 -3 7 -10 3 -15z m70 0
c-3 -5 -10 -7 -15 -3 -5 3 -7 10 -3 15 3 5 10 7 15 3 5 -3 7 -10 3 -15z m66 6
c0 -8 -4 -15 -9 -15 -13 0 -22 16 -14 24 11 11 23 6 23 -9z m95 5 c3 -5 -1
-10 -10 -10 -9 0 -13 5 -10 10 3 6 8 10 10 10 2 0 7 -4 10 -10z m2995 -40 c0
-5 -4 -10 -10 -10 -5 0 -10 5 -10 10 0 6 5 10 10 10 6 0 10 -4 10 -10z m221
-33 c-8 -8 -11 -5 -11 9 0 27 14 41 18 19 2 -9 -1 -22 -7 -28z m-3479 -9 c-9
-9 -12 -7 -12 12 0 19 3 21 12 12 9 -9 9 -15 0 -24z m138 -3 c0 -13 -4 -27
-10 -30 -11 -7 -25 39 -15 55 10 16 25 2 25 -25z m-200 15 c0 -5 -4 -10 -10
-10 -5 0 -10 5 -10 10 0 6 5 10 10 10 6 0 10 -4 10 -10z m130 -21 c0 -17 -4
-28 -10 -24 -5 3 -10 17 -10 31 0 13 5 24 10 24 6 0 10 -14 10 -31z m3320 -9
c0 -5 -5 -10 -11 -10 -5 0 -7 5 -4 10 3 6 8 10 11 10 2 0 4 -4 4 -10z m65 0
c3 -5 1 -10 -4 -10 -6 0 -11 5 -11 10 0 6 2 10 4 10 3 0 8 -4 11 -10z m-3589
-47 c-10 -10 -19 5 -10 18 6 11 8 11 12 0 2 -7 1 -15 -2 -18z m74 6 c0 -5 -4
-9 -10 -9 -5 0 -10 7 -10 16 0 8 5 12 10 9 6 -3 10 -10 10 -16z m64 0 c-3 -5
-10 -7 -15 -3 -5 3 -7 10 -3 15 3 5 10 7 15 3 5 -3 7 -10 3 -15z m106 -14 c0
-16 -6 -25 -15 -25 -9 0 -15 9 -15 25 0 16 6 25 15 25 9 0 15 -9 15 -25z
m3250 21 c0 -3 -4 -8 -10 -11 -5 -3 -10 -1 -10 4 0 6 5 11 10 11 6 0 10 -2 10
-4z m-3390 -36 c0 -5 -4 -10 -10 -10 -5 0 -10 5 -10 10 0 6 5 10 10 10 6 0 10
-4 10 -10z m11883 -317 c4 -6 12 -127 18 -268 5 -141 14 -267 19 -279 5 -13
12 -115 16 -227 3 -112 11 -210 17 -217 5 -7 13 -97 17 -200 4 -103 13 -207
18 -232 6 -25 12 -90 12 -145 1 -55 6 -122 11 -150 5 -27 14 -115 20 -195 5
-80 14 -154 21 -165 6 -11 13 -61 16 -112 4 -79 2 -93 -10 -93 -9 0 -21 7 -28
15 -7 8 -20 15 -30 15 -10 0 -23 7 -30 15 -7 8 -27 15 -44 15 -17 0 -44 8 -61
18 -27 15 -62 17 -325 16 -227 0 -301 -3 -320 -14 -14 -7 -68 -15 -121 -18
l-97 -5 -15 29 c-8 16 -18 58 -21 94 -4 36 -11 69 -15 75 -5 5 -11 49 -15 97
-7 95 7 186 30 195 8 3 14 13 14 23 0 9 9 29 20 43 11 14 20 28 20 32 0 3 7
13 15 21 8 9 15 24 15 34 0 11 6 23 13 27 13 9 30 33 53 78 8 17 23 44 34 60
11 17 25 42 31 58 6 15 15 27 20 27 5 0 9 8 9 19 0 10 9 30 20 44 11 14 20 32
20 40 0 8 7 20 15 27 8 7 15 21 15 32 0 10 6 21 14 24 8 3 19 18 25 32 6 15
15 34 19 42 25 43 36 64 85 165 30 61 57 122 61 138 3 15 11 27 16 27 6 0 10
7 10 16 0 8 9 32 20 52 10 20 21 44 24 52 3 8 10 22 15 30 21 38 39 77 45 102
3 15 20 56 36 91 17 36 30 73 30 81 0 9 6 27 14 39 8 12 17 38 21 57 4 19 11
40 15 45 4 6 11 26 15 45 4 19 12 40 17 47 5 7 13 36 18 65 4 29 19 85 34 123
14 39 28 95 31 125 13 110 20 92 25 -60 3 -85 8 -160 13 -167z m-12186 275
c-3 -8 -6 -5 -6 6 -1 11 2 17 5 13 3 -3 4 -12 1 -19z m73 12 c0 -5 -4 -10 -10
-10 -5 0 -10 5 -10 10 0 6 5 10 10 10 6 0 10 -4 10 -10z m134 -11 c-3 -5 -10
-7 -15 -3 -5 3 -7 10 -3 15 3 5 10 7 15 3 5 -3 7 -10 3 -15z m66 13 c0 -13
-12 -22 -22 -16 -10 6 -1 24 13 24 5 0 9 -4 9 -8z m-98 -57 c-2 -14 -8 -25
-13 -25 -5 0 -9 11 -9 25 0 14 6 25 14 25 9 0 12 -8 8 -25z m3848 -7 c0 -5 -4
-8 -10 -8 -5 0 -10 10 -10 23 0 18 2 19 10 7 5 -8 10 -18 10 -22z m-3920 -4
c0 -8 -5 -12 -10 -9 -6 4 -8 11 -5 16 9 14 15 11 15 -7z m4011 -67 c-8 -8 -11
2 -10 34 l1 44 10 -34 c6 -23 6 -37 -1 -44z m-4071 33 c0 -5 -4 -10 -10 -10
-5 0 -10 5 -10 10 0 6 5 10 10 10 6 0 10 -4 10 -10z m100 0 c0 -5 -4 -10 -10
-10 -5 0 -10 5 -10 10 0 6 5 10 10 10 6 0 10 -4 10 -10z m3910 -15 c0 -14 -4
-25 -10 -25 -5 0 -10 11 -10 25 0 14 5 25 10 25 6 0 10 -11 10 -25z m-4110
-15 c0 -5 -4 -10 -10 -10 -5 0 -10 5 -10 10 0 6 5 10 10 10 6 0 10 -4 10 -10z
m57 -12 c-3 -8 -6 -5 -6 6 -1 11 2 17 5 13 3 -3 4 -12 1 -19z m84 -19 c-12
-13 -24 -20 -27 -16 -4 3 4 18 17 31 13 14 25 21 27 16 2 -5 -6 -19 -17 -31z
m3999 -9 c0 -5 -2 -10 -4 -10 -3 0 -8 5 -11 10 -3 6 -1 10 4 10 6 0 11 -4 11
-10z m-4114 -37 c-10 -10 -19 5 -10 18 6 11 8 11 12 0 2 -7 1 -15 -2 -18z
m-126 7 c0 -5 -4 -10 -10 -10 -5 0 -10 5 -10 10 0 6 5 10 10 10 6 0 10 -4 10
-10z m200 1 c0 -6 -4 -13 -10 -16 -5 -3 -10 1 -10 9 0 9 5 16 10 16 6 0 10 -4
10 -9z m-130 -31 c0 -5 -4 -10 -10 -10 -5 0 -10 5 -10 10 0 6 5 10 10 10 6 0
10 -4 10 -10z m100 0 c0 -5 -4 -10 -10 -10 -5 0 -10 5 -10 10 0 6 5 10 10 10
6 0 10 -4 10 -10z m4140 0 c0 -5 -4 -10 -10 -10 -5 0 -10 5 -10 10 0 6 5 10
10 10 6 0 10 -4 10 -10z m130 -20 c0 -11 -4 -20 -10 -20 -5 0 -10 9 -10 20 0
11 5 20 10 20 6 0 10 -9 10 -20z m-4410 -20 c0 -5 -4 -10 -10 -10 -5 0 -10 5
-10 10 0 6 5 10 10 10 6 0 10 -4 10 -10z m100 5 c0 -11 -40 -48 -46 -43 -8 9
19 48 33 48 7 0 13 -2 13 -5z m4210 -21 c0 -14 -4 -23 -10 -19 -5 3 -10 15
-10 26 0 10 5 19 10 19 6 0 10 -12 10 -26z m70 -8 c0 -3 -4 -8 -10 -11 -5 -3
-10 -1 -10 4 0 6 5 11 10 11 6 0 10 -2 10 -4z m-4484 -43 c-10 -10 -19 5 -10
18 6 11 8 11 12 0 2 -7 1 -15 -2 -18z m74 7 c0 -5 -4 -10 -10 -10 -5 0 -10 5
-10 10 0 6 5 10 10 10 6 0 10 -4 10 -10z m65 1 c3 -5 1 -12 -5 -16 -5 -3 -10
1 -10 9 0 18 6 21 15 7z m4375 -1 c0 -5 -5 -10 -11 -10 -5 0 -7 5 -4 10 3 6 8
10 11 10 2 0 4 -4 4 -10z m-4336 -28 c2 -4 -9 -20 -25 -36 -22 -22 -29 -25
-29 -13 0 17 29 57 42 57 4 0 9 -3 12 -8z m4301 -42 c-4 -17 -13 -34 -21 -37
-23 -9 -29 5 -11 25 10 10 17 29 17 42 0 18 3 21 11 13 7 -7 8 -24 4 -43z
m-4405 5 c0 -9 -6 -12 -15 -9 -8 4 -12 10 -9 15 8 14 24 10 24 -6z m-60 1 c0
-11 -19 -15 -25 -6 -3 5 1 10 9 10 9 0 16 -2 16 -4z m-113 -38 c-3 -8 -6 -5
-6 6 -1 11 2 17 5 13 3 -3 4 -12 1 -19z m69 -5 c-10 -10 -19 5 -10 18 6 11 8
11 12 0 2 -7 1 -15 -2 -18z m3053 6 c20 -6 43 -15 51 -20 8 -5 24 -13 35 -18
29 -12 173 -158 202 -204 13 -21 38 -54 56 -75 42 -49 77 -99 77 -111 0 -5 3
-11 8 -13 8 -4 62 -81 62 -90 0 -4 19 -35 43 -70 23 -35 53 -86 67 -113 14
-28 28 -52 31 -55 16 -14 201 -374 258 -505 12 -27 28 -63 36 -80 7 -16 20
-46 29 -65 8 -19 31 -70 50 -113 20 -42 36 -82 36 -87 0 -6 9 -27 20 -47 11
-21 20 -45 20 -53 0 -9 4 -20 8 -26 5 -5 21 -43 37 -84 16 -41 32 -79 37 -84
4 -6 8 -17 8 -25 1 -9 9 -34 20 -56 11 -22 19 -47 20 -56 0 -8 5 -20 11 -26 6
-6 14 -26 19 -44 11 -47 30 -99 46 -132 8 -16 14 -36 14 -45 1 -9 9 -35 20
-57 11 -22 19 -48 20 -58 0 -10 5 -28 12 -40 6 -12 15 -35 19 -52 12 -45 39
-126 55 -162 8 -17 14 -38 14 -46 0 -8 7 -28 15 -43 8 -16 15 -38 15 -49 1
-11 7 -31 15 -45 8 -14 14 -34 15 -45 0 -11 6 -32 14 -46 7 -14 16 -43 20 -65
4 -21 14 -51 22 -66 8 -15 14 -40 14 -55 1 -15 7 -39 15 -53 8 -14 14 -36 15
-50 0 -14 6 -34 14 -45 7 -11 17 -44 21 -72 4 -29 11 -55 15 -58 5 -3 11 -24
15 -48 4 -23 11 -46 15 -52 5 -5 13 -36 19 -68 6 -31 15 -66 21 -76 5 -11 10
-29 10 -40 0 -11 5 -32 12 -48 12 -30 30 -95 49 -183 6 -30 18 -69 25 -87 8
-17 14 -42 14 -56 0 -14 5 -38 11 -54 11 -29 31 -106 51 -202 l12 -53 -35 -29
c-19 -16 -41 -29 -50 -29 -9 0 -22 -7 -29 -15 -7 -8 -21 -15 -32 -15 -10 0
-33 -8 -51 -17 -50 -26 -308 -25 -357 1 -45 24 -120 108 -120 134 0 5 -7 15
-15 22 -8 7 -15 20 -15 29 -1 9 -9 34 -20 56 -11 22 -19 45 -20 50 0 6 -13 37
-29 70 -123 254 -146 301 -151 305 -3 3 -11 16 -18 30 -15 32 -33 60 -49 78
-7 7 -13 18 -13 23 0 14 -73 11 -95 -5 -11 -7 -40 -17 -65 -21 -25 -4 -50 -12
-57 -17 -7 -5 -36 -13 -65 -18 -29 -5 -71 -13 -93 -19 -56 -14 -145 -31 -250
-47 -141 -21 -213 -38 -227 -51 -6 -7 -17 -13 -23 -13 -16 0 -59 -49 -79 -90
-14 -28 -19 -82 -26 -265 -12 -311 -29 -481 -51 -525 -18 -37 -76 -95 -119
-119 -27 -16 -74 -26 -185 -42 -71 -10 -129 -7 -285 12 -47 6 -104 13 -128 15
-55 7 -85 35 -78 72 3 15 10 152 16 306 5 153 14 317 19 365 6 47 13 153 16
236 3 82 9 165 14 185 5 19 12 96 16 170 4 74 13 185 21 245 7 61 14 142 15
180 0 39 4 93 9 120 5 28 14 113 20 190 5 77 14 163 20 190 6 28 14 100 20
160 5 61 14 137 19 170 14 84 31 223 41 337 4 53 11 101 14 106 3 5 10 51 16
103 6 52 17 126 25 164 17 85 34 197 45 290 4 39 12 90 19 115 11 48 24 111
45 230 8 41 19 88 25 103 6 16 11 45 11 65 0 20 6 49 14 63 7 14 16 49 20 78
4 29 11 60 16 69 14 28 50 147 50 168 0 10 7 28 15 38 8 11 15 30 15 42 0 12
7 27 15 34 8 7 15 19 15 26 0 8 9 31 20 51 11 21 20 43 20 50 0 6 3 13 8 15 4
2 20 22 36 46 61 89 150 128 235 101z m-3149 -35 c0 -8 -5 -12 -10 -9 -6 4 -8
11 -5 16 9 14 15 11 15 -7z m175 6 c3 -5 -3 -10 -15 -10 -12 0 -18 5 -15 10 3
6 10 10 15 10 5 0 12 -4 15 -10z m-105 -35 c0 -8 -4 -15 -10 -15 -5 0 -10 7
-10 15 0 8 5 15 10 15 6 0 10 -7 10 -15z m68 -26 c-1 -13 -7 -23 -13 -22 -13
3 -18 30 -11 50 10 24 29 1 24 -28z m-138 -41 c0 -16 -3 -19 -11 -11 -6 6 -8
16 -5 22 11 17 16 13 16 -11z m86 -6 c16 -13 22 -30 22 -60 1 -39 -12 -62 -26
-48 -3 4 -5 22 -4 40 2 20 -4 40 -13 49 -16 16 -20 37 -7 37 4 -1 17 -9 28
-18z m-152 -33 c-3 -5 -10 -7 -15 -3 -5 3 -7 10 -3 15 3 5 10 7 15 3 5 -3 7
-10 3 -15z m106 -44 c0 -13 -4 -27 -10 -30 -11 -7 -25 39 -15 55 10 16 25 2
25 -25z m-140 -21 c0 -8 -4 -12 -10 -9 -5 3 -10 10 -10 16 0 5 5 9 10 9 6 0
10 -7 10 -16z m70 6 c0 -5 -4 -10 -10 -10 -5 0 -10 5 -10 10 0 6 5 10 10 10 6
0 10 -4 10 -10z m40 -28 c0 -13 -12 -22 -22 -16 -10 6 -1 24 13 24 5 0 9 -4 9
-8z m84 -18 c29 -11 17 -24 -21 -24 -36 1 -37 2 -19 15 23 17 20 17 40 9z
m-59 -134 c74 -10 141 -28 177 -46 14 -8 32 -14 38 -14 19 0 100 -42 100 -52
0 -4 6 -8 14 -8 15 0 94 -57 150 -109 48 -45 151 -179 160 -208 4 -13 11 -23
16 -23 5 0 11 -13 15 -29 3 -16 13 -35 21 -42 8 -6 14 -19 14 -29 0 -10 7 -23
15 -30 8 -7 15 -21 15 -32 0 -10 7 -32 15 -47 8 -16 17 -48 21 -72 3 -24 13
-64 22 -89 22 -65 22 -479 0 -565 -9 -33 -19 -86 -23 -118 -4 -31 -11 -59 -15
-62 -5 -3 -11 -24 -15 -48 -4 -23 -14 -54 -21 -69 -8 -15 -14 -35 -14 -45 0
-10 -7 -31 -15 -47 -8 -15 -15 -33 -15 -40 -1 -6 -9 -29 -20 -51 -11 -22 -19
-50 -20 -61 0 -12 -7 -27 -15 -34 -8 -7 -15 -21 -15 -31 0 -10 -4 -20 -9 -23
-9 -6 -37 -59 -60 -116 -6 -14 -16 -34 -23 -45 -23 -40 -28 -50 -33 -62 -3 -7
-7 -19 -10 -25 -3 -7 -23 -40 -45 -73 -22 -33 -44 -70 -50 -82 -5 -12 -33 -57
-62 -98 -29 -42 -57 -84 -63 -93 -5 -9 -30 -44 -55 -77 -25 -33 -54 -72 -65
-87 -52 -69 -145 -186 -170 -213 -15 -16 -45 -49 -67 -73 -43 -46 -56 -98 -28
-112 8 -4 29 -15 47 -24 17 -9 36 -16 43 -16 7 0 32 -13 57 -30 24 -16 50 -30
58 -30 7 0 20 -6 27 -13 12 -12 55 -34 139 -70 21 -9 53 -19 73 -22 20 -4 38
-11 41 -15 3 -5 31 -12 63 -15 31 -4 75 -13 97 -20 22 -8 76 -16 120 -19 44
-4 114 -11 155 -16 121 -15 505 -12 781 7 140 9 263 14 272 10 9 -3 17 -17 17
-30 0 -14 7 -41 15 -60 21 -51 21 -344 0 -413 -8 -27 -15 -62 -15 -79 0 -16
-7 -43 -15 -59 -8 -15 -15 -33 -15 -38 0 -10 -30 -81 -58 -137 -25 -50 -162
-185 -212 -210 -107 -53 -163 -63 -319 -58 -201 6 -324 22 -551 72 -36 8 -83
17 -105 21 -22 4 -54 13 -72 21 -18 7 -46 13 -62 13 -17 0 -45 6 -63 14 -32
13 -78 26 -168 48 -25 6 -49 14 -55 18 -5 5 -28 11 -50 15 -22 4 -52 14 -67
21 -15 8 -38 14 -52 14 -14 0 -28 4 -31 10 -3 5 -25 14 -48 20 -23 6 -56 18
-74 26 -17 8 -35 14 -41 14 -5 0 -23 7 -38 15 -16 8 -39 15 -50 15 -12 0 -27
7 -34 15 -7 8 -22 15 -34 15 -12 0 -30 6 -41 14 -11 7 -35 17 -52 21 -18 3
-33 10 -33 15 0 4 -12 11 -27 15 -30 7 -290 135 -338 166 -16 10 -40 24 -52
30 -13 7 -23 16 -23 21 0 4 -5 8 -11 8 -11 0 -88 59 -122 93 -12 12 -30 17
-50 15 l-32 -3 2 -114 c2 -63 9 -163 18 -223 8 -60 15 -132 15 -161 0 -47 5
-97 41 -377 25 -192 57 -376 72 -410 16 -35 24 -108 14 -126 -31 -56 -181
-150 -268 -169 -19 -4 -40 -12 -48 -19 -16 -13 -428 -16 -472 -4 -29 9 -63 57
-74 107 -3 17 -11 33 -16 36 -12 8 -12 68 0 80 15 15 41 153 41 214 0 71 -19
213 -35 271 -7 25 -16 65 -20 90 -4 25 -14 57 -21 72 -8 15 -14 38 -14 51 0
12 -4 27 -10 33 -5 5 -14 30 -19 54 -9 41 -54 182 -87 270 -31 84 -45 435 -51
1310 -5 827 1 1201 28 1700 l10 185 47 45 c106 103 351 303 433 355 9 6 54 35
100 65 117 76 121 79 149 92 14 7 27 15 30 18 5 5 169 87 300 149 36 17 72 31
80 31 8 1 33 9 55 20 22 11 47 19 56 20 9 0 30 7 45 15 16 8 39 15 52 15 12 0
39 7 59 15 19 8 48 15 64 15 15 0 40 5 56 11 74 31 347 40 508 19z m-3484
-907 c36 -28 58 -58 123 -168 42 -71 186 -356 186 -368 0 -4 14 -37 31 -74 17
-38 39 -88 50 -113 11 -25 27 -57 35 -72 8 -14 14 -35 14 -46 0 -11 7 -25 15
-32 8 -7 15 -20 15 -29 0 -10 7 -26 15 -37 8 -10 15 -26 15 -34 0 -8 9 -33 20
-55 11 -22 19 -44 20 -48 0 -4 14 -35 30 -69 17 -33 30 -64 30 -70 0 -8 13
-41 50 -123 5 -11 19 -45 30 -75 12 -30 30 -73 41 -96 10 -23 19 -46 19 -53 0
-6 4 -19 10 -29 16 -30 80 -185 80 -195 0 -6 16 -43 35 -83 19 -40 35 -78 35
-84 0 -7 6 -24 13 -38 8 -15 21 -42 30 -60 9 -19 17 -39 17 -45 1 -7 9 -30 20
-52 11 -22 20 -47 20 -55 0 -8 7 -24 15 -34 8 -11 15 -30 15 -42 0 -12 7 -27
15 -34 8 -7 15 -21 15 -31 0 -11 9 -36 20 -56 11 -21 20 -45 20 -55 0 -9 6
-29 14 -45 8 -15 22 -48 32 -73 10 -25 26 -64 36 -87 10 -23 18 -46 18 -51 0
-5 7 -23 15 -38 8 -16 15 -36 15 -44 0 -8 7 -24 15 -34 8 -11 15 -26 15 -34 0
-13 51 -152 79 -217 10 -21 36 -99 51 -150 17 -58 42 -130 56 -162 8 -17 14
-38 14 -47 0 -8 6 -30 14 -48 21 -50 44 -128 52 -173 4 -22 10 -44 14 -50 4
-5 11 -35 15 -65 4 -30 13 -80 21 -110 28 -107 9 -256 -43 -337 -62 -100 -203
-187 -404 -252 -70 -22 -225 -30 -305 -15 -57 11 -148 70 -181 117 -15 23 -31
44 -35 45 -5 2 -8 8 -8 12 0 5 -15 42 -33 82 -19 40 -41 91 -49 113 -9 22 -25
65 -37 95 -11 31 -21 62 -21 70 0 8 -7 24 -15 34 -8 11 -15 31 -15 45 0 14 -7
35 -15 45 -8 11 -15 29 -15 41 0 11 -13 59 -29 105 -16 47 -32 101 -36 120 -7
34 -26 101 -47 165 -5 17 -17 57 -25 90 -8 33 -21 87 -30 120 -8 33 -21 85
-29 115 -7 30 -23 91 -34 135 -12 44 -27 107 -35 140 -34 149 -57 253 -65 295
-5 25 -13 59 -19 75 -5 17 -12 46 -15 66 -4 20 -15 44 -25 53 -16 15 -22 15
-41 4 -21 -13 -60 -87 -60 -115 0 -8 -6 -29 -14 -46 -18 -44 -105 -303 -117
-350 -5 -21 -13 -45 -18 -55 -16 -32 -51 -147 -51 -167 0 -11 -7 -29 -15 -39
-8 -11 -15 -31 -15 -44 0 -13 -6 -36 -14 -50 -7 -15 -24 -61 -36 -102 -21 -70
-28 -89 -59 -180 -7 -19 -17 -53 -22 -75 -5 -22 -14 -49 -19 -60 -6 -11 -21
-57 -34 -102 -14 -45 -29 -91 -35 -102 -6 -11 -11 -30 -11 -43 0 -13 -7 -36
-15 -52 -8 -15 -15 -36 -15 -45 0 -9 -7 -29 -15 -44 -8 -15 -17 -45 -21 -65
-4 -20 -13 -46 -20 -57 -8 -11 -14 -31 -14 -45 0 -14 -7 -34 -15 -44 -8 -11
-15 -26 -15 -34 0 -8 -10 -36 -21 -61 -60 -129 -87 -161 -137 -161 -28 0 -45
12 -115 80 -45 45 -100 110 -122 146 -22 36 -48 75 -57 86 -10 12 -18 25 -18
30 0 4 -12 27 -27 51 -14 23 -42 71 -61 107 -19 36 -42 81 -52 100 -11 19 -29
58 -41 85 -12 28 -48 108 -80 178 -33 70 -59 131 -59 134 0 3 -10 27 -21 52
-25 54 -40 89 -65 151 -10 25 -25 63 -34 85 -34 82 -50 122 -85 215 -20 52
-43 109 -51 127 -7 17 -14 37 -14 45 0 8 -5 19 -11 25 -6 6 -14 26 -19 44 -5
19 -18 59 -30 89 -12 30 -26 71 -32 90 -21 71 -47 110 -73 110 -47 0 -56 -31
-66 -247 -5 -109 -13 -242 -19 -297 -5 -54 -10 -134 -10 -179 0 -44 -4 -106
-10 -136 -8 -50 -24 -232 -51 -601 -8 -116 -28 -301 -54 -505 -13 -102 -21
-161 -46 -335 -13 -92 -54 -253 -76 -297 -20 -42 -84 -90 -158 -118 -41 -16
-74 -20 -180 -19 -140 0 -199 13 -315 72 l-55 28 2 244 c3 415 22 1083 33
1130 5 25 12 122 15 215 7 204 30 573 52 820 9 99 19 223 23 275 10 124 27
287 41 378 6 41 17 126 25 190 25 205 76 510 106 627 5 22 16 67 23 100 8 33
21 85 29 115 9 30 23 82 32 115 9 33 20 64 25 70 5 5 9 18 9 28 0 10 6 31 14
45 8 15 34 67 58 117 47 98 126 192 182 219 127 60 287 -56 478 -349 36 -55
68 -107 72 -115 3 -8 15 -28 25 -45 19 -30 192 -374 217 -430 7 -16 22 -52 34
-80 12 -27 35 -78 51 -111 16 -34 29 -66 29 -72 0 -6 7 -24 15 -41 8 -17 22
-45 30 -62 8 -17 15 -36 15 -42 0 -7 6 -23 13 -37 7 -14 23 -54 36 -90 13 -36
29 -78 36 -95 39 -92 45 -107 45 -116 0 -6 6 -25 14 -42 7 -18 26 -65 41 -105
32 -81 44 -95 77 -90 18 2 27 15 40 53 9 28 19 70 22 95 4 25 13 70 21 100 7
30 21 91 31 135 9 44 37 161 61 260 25 99 49 203 54 230 5 28 14 59 19 70 5
11 12 39 15 62 4 24 10 45 15 48 5 3 11 24 15 48 4 23 14 54 21 69 8 15 14 38
14 52 0 14 6 40 14 58 18 43 75 214 86 257 5 18 13 38 19 44 6 6 11 20 11 32
0 12 7 30 15 41 8 10 15 26 15 34 0 8 9 33 20 55 11 22 19 47 20 56 0 9 7 22
15 29 8 7 15 18 15 25 0 15 96 193 116 216 8 8 14 19 14 24 0 22 128 159 182
193 50 33 134 30 179 -5z m-5475 -803 c78 -40 109 -64 199 -155 74 -75 225
-251 225 -263 0 -4 11 -19 24 -33 13 -14 45 -56 71 -95 27 -38 65 -92 86 -120
20 -28 46 -66 56 -85 10 -19 32 -54 48 -79 34 -51 31 -46 108 -175 31 -53 57
-99 57 -102 0 -4 6 -14 14 -22 8 -9 26 -38 41 -66 14 -27 55 -104 90 -170 87
-164 271 -538 324 -660 30 -69 44 -98 85 -188 20 -43 36 -81 36 -85 1 -4 9
-25 20 -47 11 -22 19 -43 20 -47 0 -4 11 -31 24 -60 14 -29 37 -82 51 -118 14
-36 32 -78 40 -95 7 -16 20 -48 28 -70 30 -82 49 -131 62 -160 7 -16 23 -57
35 -90 13 -33 29 -73 36 -90 7 -16 27 -70 44 -120 18 -49 38 -103 46 -120 7
-16 31 -85 53 -151 23 -67 48 -134 56 -150 8 -16 15 -37 15 -47 0 -10 5 -28
12 -40 6 -12 15 -35 19 -52 10 -39 36 -112 54 -152 8 -17 15 -38 15 -46 0 -8
7 -28 15 -43 8 -16 15 -38 15 -50 0 -11 7 -29 15 -40 8 -10 14 -39 15 -64 0
-50 -6 -55 -115 -108 -62 -30 -90 -39 -185 -57 -222 -44 -282 -4 -424 276 -49
96 -103 197 -122 226 -19 28 -34 54 -34 58 0 3 -21 35 -48 70 -26 35 -60 83
-76 106 -27 39 -31 41 -67 35 -35 -6 -53 -12 -144 -51 -16 -7 -64 -23 -105
-35 -41 -13 -84 -26 -95 -31 -23 -9 -122 -35 -210 -54 -150 -34 -185 -43 -227
-64 -101 -48 -155 -151 -144 -272 31 -335 31 -569 1 -652 -31 -85 -122 -145
-255 -168 -96 -16 -348 -23 -375 -10 -11 5 -42 12 -68 14 -26 3 -51 8 -55 12
-4 4 -7 554 -7 1223 0 920 3 1229 13 1267 6 28 16 180 22 338 5 158 12 291 14
296 3 4 10 98 15 207 6 110 15 220 20 244 6 25 15 99 20 165 15 188 29 304 45
385 8 41 19 104 25 140 24 150 80 356 117 430 85 173 184 224 310 160z m9068
-1425 c4 -10 -1 -15 -14 -15 -11 0 -20 7 -20 15 0 8 6 15 14 15 8 0 16 -7 20
-15z m3847 -281 c15 -19 35 -52 44 -74 4 -8 11 -24 18 -35 6 -11 16 -31 23
-44 7 -13 17 -27 22 -30 17 -11 22 -79 6 -85 -19 -7 -18 -36 1 -36 8 0 15 -6
15 -14 0 -8 7 -16 15 -20 8 -3 15 -10 15 -16 0 -5 -7 -10 -15 -10 -8 0 -15 5
-15 10 0 12 -37 50 -49 50 -11 0 -21 -51 -21 -112 0 -35 -4 -48 -12 -46 -9 3
-14 31 -16 82 -3 94 -24 101 -32 11 -6 -72 -30 -89 -30 -21 0 24 -5 48 -11 51
-15 10 -18 4 -25 -47 -6 -41 -4 -46 17 -51 19 -5 21 -9 11 -19 -11 -11 -16
-10 -26 5 -7 9 -18 17 -24 17 -5 0 -13 -8 -17 -17 -6 -17 -7 -17 -20 0 -8 12
-23 17 -39 15 -34 -4 -34 -22 -1 -26 35 -5 32 -31 -5 -38 -16 -4 -30 -10 -30
-15 0 -5 -7 -9 -15 -9 -8 0 -15 5 -15 10 0 6 -7 10 -15 10 -8 0 -15 -7 -15
-15 0 -8 5 -15 10 -15 6 0 10 -7 10 -15 0 -8 -4 -15 -10 -15 -5 0 -10 -7 -10
-15 0 -8 5 -15 10 -15 6 0 10 -7 10 -15 0 -8 -4 -15 -10 -15 -5 0 -10 7 -10
15 0 8 -7 15 -15 15 -8 0 -15 7 -15 15 0 8 7 15 15 15 8 0 15 7 15 15 0 18
-14 19 -40 3 -17 -11 -22 -10 -30 2 -8 13 -11 13 -22 1 -10 -11 -10 -14 0 -18
14 -6 16 -33 2 -33 -5 0 -10 -7 -10 -15 0 -20 -24 -19 -40 0 -10 12 -16 13
-24 5 -8 -8 -6 -15 7 -24 21 -16 22 -36 3 -36 -8 0 -16 -6 -19 -12 -2 -8 -8
-9 -13 -4 -5 5 -4 11 4 13 17 6 15 33 -2 33 -8 0 -16 -6 -19 -12 -3 -10 -9
-10 -26 0 -27 16 -31 15 -31 -3 0 -8 5 -15 10 -15 16 0 12 -18 -10 -40 -24
-24 -30 -25 -30 -5 0 8 5 15 10 15 6 0 10 7 10 15 0 20 -26 19 -34 -1 -6 -16
-8 -16 -24 0 -23 20 -32 20 -32 1 0 -8 5 -15 10 -15 20 0 9 -29 -20 -53 -34
-29 -37 -42 -14 -51 8 -3 12 -11 9 -16 -4 -7 -16 -2 -31 12 -27 27 -30 38 -9
38 22 0 18 15 -10 46 -27 29 -32 25 -37 -36 -5 -54 -32 -46 -38 10 -4 37 -9
46 -27 48 l-23 3 0 223 c0 187 2 226 15 236 8 7 15 28 15 46 0 22 5 34 14 34
7 0 25 9 39 20 19 15 40 20 89 20 41 0 71 5 84 15 12 9 44 14 92 15 41 0 88 6
105 14 18 8 56 17 85 20 29 3 62 12 74 21 13 8 41 15 64 15 25 0 47 6 54 15
16 20 64 19 81 -1z m149 -286 c0 -16 -3 -19 -11 -11 -6 6 -8 16 -5 22 11 17
16 13 16 -11z m-11560 -30 c0 -5 -4 -8 -10 -8 -5 0 -10 10 -10 23 0 18 2 19
10 7 5 -8 10 -18 10 -22z m11538 -89 c-1 -13 -7 -23 -13 -22 -13 3 -18 30 -11
50 10 24 29 1 24 -28z m62 -9 c0 -5 -4 -10 -10 -10 -5 0 -10 5 -10 10 0 6 5
10 10 10 6 0 10 -4 10 -10z m-260 -65 c0 -8 -4 -15 -10 -15 -5 0 -10 7 -10 15
0 8 5 15 10 15 6 0 10 -7 10 -15z m61 2 c-1 -12 -15 -9 -19 4 -3 6 1 10 8 8 6
-3 11 -8 11 -12z m133 -8 c-3 -5 -10 -7 -15 -3 -5 3 -7 10 -3 15 3 5 10 7 15
3 5 -3 7 -10 3 -15z m-226 -41 c-5 -32 -28 -35 -28 -4 0 17 5 26 16 26 10 0
14 -7 12 -22z m62 -3 c0 -14 -4 -25 -10 -25 -5 0 -10 11 -10 25 0 14 5 25 10
25 6 0 10 -11 10 -25z m70 15 c0 -5 -4 -10 -10 -10 -5 0 -10 5 -10 10 0 6 5
10 10 10 6 0 10 -4 10 -10z m60 0 c0 -5 -4 -10 -10 -10 -5 0 -10 5 -10 10 0 6
5 10 10 10 6 0 10 -4 10 -10z m70 0 c0 -5 -4 -10 -10 -10 -5 0 -10 5 -10 10 0
6 5 10 10 10 6 0 10 -4 10 -10z m-330 -35 c0 -8 -4 -15 -10 -15 -5 0 -10 7
-10 15 0 8 5 15 10 15 6 0 10 -7 10 -15z m30 -25 c0 -5 -4 -10 -10 -10 -5 0
-10 5 -10 10 0 6 5 10 10 10 6 0 10 -4 10 -10z m157 -12 c-3 -8 -6 -5 -6 6 -1
11 2 17 5 13 3 -3 4 -12 1 -19z m-217 8 c0 -11 -19 -15 -25 -6 -3 5 1 10 9 10
9 0 16 -2 16 -4z m-100 -41 c0 -8 -6 -15 -14 -15 -8 0 -16 -6 -19 -12 -2 -8
-8 -9 -13 -4 -5 5 -4 11 4 13 6 3 12 11 12 19 0 8 7 14 15 14 8 0 15 -7 15
-15z m130 11 c0 -3 -4 -8 -10 -11 -5 -3 -10 -1 -10 4 0 6 5 11 10 11 6 0 10
-2 10 -4z m130 -6 c0 -5 -2 -10 -4 -10 -3 0 -8 5 -11 10 -3 6 -1 10 4 10 6 0
11 -4 11 -10z m-230 -30 c0 -5 -4 -10 -10 -10 -5 0 -10 5 -10 10 0 6 5 10 10
10 6 0 10 -4 10 -10z m-35 -29 c3 -5 1 -12 -5 -16 -5 -3 -10 1 -10 9 0 18 6
21 15 7z m295 -1 c0 -5 -5 -10 -11 -10 -5 0 -7 5 -4 10 3 6 8 10 11 10 2 0 4
-4 4 -10z m-230 -10 c0 -5 -2 -10 -4 -10 -3 0 -8 5 -11 10 -3 6 -1 10 4 10 6
0 11 -4 11 -10z m-165 -19 c3 -5 1 -12 -5 -16 -5 -3 -10 1 -10 9 0 18 6 21 15
7z m-65 -11 c0 -5 -4 -10 -10 -10 -5 0 -10 5 -10 10 0 6 5 10 10 10 6 0 10 -4
10 -10z m140 6 c0 -3 -4 -8 -10 -11 -5 -3 -10 -1 -10 4 0 6 5 11 10 11 6 0 10
-2 10 -4z m-240 -42 c0 -8 -4 -12 -10 -9 -5 3 -10 10 -10 16 0 5 5 9 10 9 6 0
10 -7 10 -16z m70 6 c0 -5 -4 -10 -10 -10 -5 0 -10 5 -10 10 0 6 5 10 10 10 6
0 10 -4 10 -10z m57 -12 c-3 -8 -6 -5 -6 6 -1 11 2 17 5 13 3 -3 4 -12 1 -19z
m73 12 c0 -5 -5 -10 -11 -10 -5 0 -7 5 -4 10 3 6 8 10 11 10 2 0 4 -4 4 -10z
m-165 -30 c3 -5 -1 -10 -10 -10 -9 0 -13 5 -10 10 3 6 8 10 10 10 2 0 7 -4 10
-10z m70 0 c3 -5 -1 -10 -10 -10 -9 0 -13 5 -10 10 3 6 8 10 10 10 2 0 7 -4
10 -10z m-108 -42 c-3 -8 -6 -5 -6 6 -1 11 2 17 5 13 3 -3 4 -12 1 -19z m168
12 c3 -5 1 -10 -4 -10 -6 0 -11 5 -11 10 0 6 2 10 4 10 3 0 8 -4 11 -10z m62
-12 c-3 -8 -6 -5 -6 6 -1 11 2 17 5 13 3 -3 4 -12 1 -19z m-157 8 c0 -3 -4 -8
-10 -11 -5 -3 -10 -1 -10 4 0 6 5 11 10 11 6 0 10 -2 10 -4z m-170 -38 c0 -16
-3 -19 -11 -11 -6 6 -8 16 -5 22 11 17 16 13 16 -11z m-60 2 c0 -5 -4 -10 -10
-10 -5 0 -10 5 -10 10 0 6 5 10 10 10 6 0 10 -4 10 -10z m130 0 c0 -5 -2 -10
-4 -10 -3 0 -8 5 -11 10 -3 6 -1 10 4 10 6 0 11 -4 11 -10z m95 -30 c3 -5 1
-10 -4 -10 -6 0 -11 5 -11 10 0 6 2 10 4 10 3 0 8 -4 11 -10z m-1405 -35 c0
-8 -7 -15 -15 -15 -8 0 -15 7 -15 15 0 8 7 15 15 15 8 0 15 -7 15 -15z m1110
-1 c0 -8 -5 -12 -10 -9 -6 4 -8 11 -5 16 9 14 15 11 15 -7z m127 -6 c-3 -8 -6
-5 -6 6 -1 11 2 17 5 13 3 -3 4 -12 1 -19z"/>
<path d="M12305 10450 c-6 -10 32 -59 48 -60 14 0 7 19 -17 45 -15 16 -27 22
-31 15z"/>
<path d="M11182 10358 c4 -46 28 -49 28 -4 0 26 -4 36 -16 36 -11 0 -14 -8
-12 -32z"/>
<path d="M11312 10363 c4 -39 28 -42 28 -4 0 21 -5 31 -16 31 -11 0 -14 -8
-12 -27z"/>
<path d="M11876 10382 c-3 -6 -1 -14 5 -17 15 -10 25 3 12 16 -7 7 -13 7 -17
1z"/>
<path d="M12045 10379 c-10 -15 3 -25 16 -12 7 7 7 13 1 17 -6 3 -14 1 -17 -5z"/>
<path d="M12106 10382 c-3 -6 -1 -14 5 -17 15 -10 25 3 12 16 -7 7 -13 7 -17
1z"/>
<path d="M12175 10379 c-10 -15 3 -25 16 -12 7 7 7 13 1 17 -6 3 -14 1 -17 -5z"/>
<path d="M12275 10379 c-10 -15 3 -25 16 -12 7 7 7 13 1 17 -6 3 -14 1 -17 -5z"/>
<path d="M12500 10375 c0 -9 5 -15 11 -13 6 2 11 8 11 13 0 5 -5 11 -11 13 -6
2 -11 -4 -11 -13z"/>
<path d="M12712 10365 c-14 -14 -19 -26 -13 -30 13 -7 62 26 58 39 -6 17 -22
14 -45 -9z"/>
<path d="M11416 10353 c-11 -11 -6 -23 9 -23 8 0 15 4 15 9 0 13 -16 22 -24
14z"/>
<path d="M11485 10349 c-10 -15 3 -25 16 -12 7 7 7 13 1 17 -6 3 -14 1 -17 -5z"/>
<path d="M12406 10353 c-11 -11 -6 -23 9 -23 8 0 15 4 15 9 0 13 -16 22 -24
14z"/>
<path d="M12566 10353 c-11 -11 -6 -23 9 -23 8 0 15 4 15 9 0 13 -16 22 -24
14z"/>
<path d="M12635 10350 c-4 -6 -3 -16 3 -22 6 -6 12 -6 17 2 4 6 3 16 -3 22 -6
6 -12 6 -17 -2z"/>
<path d="M11250 10340 c0 -5 7 -10 15 -10 8 0 15 5 15 10 0 6 -7 10 -15 10 -8
0 -15 -4 -15 -10z"/>
<path d="M11640 10340 c0 -5 7 -10 15 -10 8 0 15 5 15 10 0 6 -7 10 -15 10 -8
0 -15 -4 -15 -10z"/>
<path d="M11740 10340 c0 -5 7 -10 15 -10 8 0 15 5 15 10 0 6 -7 10 -15 10 -8
0 -15 -4 -15 -10z"/>
<path d="M11810 10340 c0 -5 5 -10 10 -10 6 0 10 5 10 10 0 6 -4 10 -10 10 -5
0 -10 -4 -10 -10z"/>
<path d="M11940 10340 c0 -5 7 -10 15 -10 8 0 15 5 15 10 0 6 -7 10 -15 10 -8
0 -15 -4 -15 -10z"/>
<path d="M13025 10320 c-10 -17 12 -37 25 -24 8 8 6 15 -4 23 -10 9 -16 9 -21
1z"/>
<path d="M11050 10289 c0 -38 24 -35 28 4 2 19 -1 27 -12 27 -11 0 -16 -10
-16 -31z"/>
<path d="M11150 10305 c0 -8 7 -15 15 -15 8 0 15 -7 15 -16 0 -9 5 -14 12 -12
18 6 21 28 4 28 -9 0 -16 7 -16 15 0 8 -7 15 -15 15 -8 0 -15 -7 -15 -15z"/>
<path d="M11215 10311 c-6 -11 9 -23 19 -14 9 9 7 23 -3 23 -6 0 -12 -4 -16
-9z"/>
<path d="M11350 10310 c0 -5 5 -10 10 -10 6 0 10 5 10 10 0 6 -4 10 -10 10 -5
0 -10 -4 -10 -10z"/>
<path d="M11550 10304 c0 -8 5 -12 10 -9 6 3 10 10 10 16 0 5 -4 9 -10 9 -5 0
-10 -7 -10 -16z"/>
<path d="M12762 10309 c2 -6 8 -10 13 -10 5 0 11 4 13 10 2 6 -4 11 -13 11 -9
0 -15 -5 -13 -11z"/>
<path d="M11281 10286 c-9 -10 -8 -16 3 -25 10 -9 16 -8 25 3 9 10 8 16 -3 25
-10 9 -16 8 -25 -3z"/>
<path d="M10880 10271 c0 -10 3 -33 6 -50 5 -25 9 -29 20 -20 8 6 14 20 14 31
0 10 7 21 15 24 30 12 16 34 -20 34 -28 0 -35 -4 -35 -19z"/>
<path d="M11120 10275 c0 -9 5 -15 11 -13 6 2 11 8 11 13 0 5 -5 11 -11 13 -6
2 -11 -4 -11 -13z"/>
<path d="M11416 10281 c-4 -5 -2 -12 3 -15 5 -4 12 -2 15 3 4 5 2 12 -3 15 -5
4 -12 2 -15 -3z"/>
<path d="M11486 10281 c-4 -5 -2 -12 3 -15 5 -4 12 -2 15 3 4 5 2 12 -3 15 -5
4 -12 2 -15 -3z"/>
<path d="M11680 10276 c0 -9 5 -16 10 -16 6 0 10 4 10 9 0 6 -4 13 -10 16 -5
3 -10 -1 -10 -9z"/>
<path d="M12860 10276 c0 -9 7 -16 16 -16 9 0 14 5 12 12 -6 18 -28 21 -28 4z"/>
<path d="M10952 10228 c2 -18 8 -33 13 -33 6 0 11 15 13 33 3 24 -1 32 -13 32
-12 0 -16 -8 -13 -32z"/>
<path d="M11020 10246 c0 -9 7 -16 16 -16 17 0 14 22 -4 28 -7 2 -12 -3 -12
-12z"/>
<path d="M11155 10249 c-10 -15 3 -25 16 -12 7 7 7 13 1 17 -6 3 -14 1 -17 -5z"/>
<path d="M12960 10246 c0 -9 7 -16 16 -16 17 0 14 22 -4 28 -7 2 -12 -3 -12
-12z"/>
<path d="M13027 10253 c-12 -11 -8 -23 8 -23 8 0 15 7 15 15 0 16 -12 20 -23
8z"/>
<path d="M13095 10250 c-4 -6 -3 -16 3 -22 6 -6 12 -6 17 2 4 6 3 16 -3 22 -6
6 -12 6 -17 -2z"/>
<path d="M13225 10250 c-8 -13 4 -32 16 -25 12 8 12 35 0 35 -6 0 -13 -4 -16
-10z"/>
<path d="M11350 10240 c0 -5 5 -10 10 -10 6 0 10 5 10 10 0 6 -4 10 -10 10 -5
0 -10 -4 -10 -10z"/>
<path d="M11610 10240 c0 -5 4 -10 9 -10 6 0 13 5 16 10 3 6 -1 10 -9 10 -9 0
-16 -4 -16 -10z"/>
<path d="M11052 10209 c2 -6 8 -10 13 -10 5 0 11 4 13 10 2 6 -4 11 -13 11 -9
0 -15 -5 -13 -11z"/>
<path d="M11120 10210 c0 -5 5 -10 10 -10 6 0 10 5 10 10 0 6 -4 10 -10 10 -5
0 -10 -4 -10 -10z"/>
<path d="M11220 10210 c0 -5 5 -10 10 -10 6 0 10 5 10 10 0 6 -4 10 -10 10 -5
0 -10 -4 -10 -10z"/>
<path d="M11286 10211 c-4 -5 -2 -12 3 -15 5 -4 12 -2 15 3 4 5 2 12 -3 15 -5
4 -12 2 -15 -3z"/>
<path d="M13153 10208 c2 -7 10 -13 17 -13 7 0 15 6 18 13 2 7 -5 12 -18 12
-13 0 -20 -5 -17 -12z"/>
<path d="M10852 10178 c6 -18 28 -21 28 -4 0 9 -7 16 -16 16 -9 0 -14 -5 -12
-12z"/>
<path d="M10985 10181 c-6 -11 9 -23 19 -14 9 9 7 23 -3 23 -6 0 -12 -4 -16
-9z"/>
<path d="M13220 10175 c0 -8 7 -15 15 -15 8 0 15 7 15 15 0 8 -7 15 -15 15 -8
0 -15 -7 -15 -15z"/>
<path d="M13450 10155 c-10 -11 -10 -19 -2 -27 15 -15 44 -2 40 19 -4 23 -22
27 -38 8z"/>
<path d="M10825 10149 c-10 -15 3 -25 16 -12 7 7 7 13 1 17 -6 3 -14 1 -17 -5z"/>
<path d="M10890 10131 c0 -17 5 -31 10 -31 6 0 10 11 10 24 0 14 -4 28 -10 31
-6 4 -10 -7 -10 -24z"/>
<path d="M10956 10151 c-4 -5 -2 -12 3 -15 5 -4 12 -2 15 3 4 5 2 12 -3 15 -5
4 -12 2 -15 -3z"/>
<path d="M11056 10151 c-4 -5 -2 -12 3 -15 5 -4 12 -2 15 3 4 5 2 12 -3 15 -5
4 -12 2 -15 -3z"/>
<path d="M11186 10151 c-4 -5 -2 -12 3 -15 5 -4 12 -2 15 3 4 5 2 12 -3 15 -5
4 -12 2 -15 -3z"/>
<path d="M13096 10153 c-11 -11 -6 -23 9 -23 8 0 15 4 15 9 0 13 -16 22 -24
14z"/>
<path d="M13285 10150 c-3 -6 1 -13 10 -16 19 -8 30 0 20 15 -8 14 -22 14 -30
1z"/>
<path d="M11120 10140 c0 -5 5 -10 10 -10 6 0 10 5 10 10 0 6 -4 10 -10 10 -5
0 -10 -4 -10 -10z"/>
<path d="M13355 10120 c-4 -6 -3 -16 3 -22 6 -6 12 -6 17 2 4 6 3 16 -3 22 -6
6 -12 6 -17 -2z"/>
<path d="M13455 10090 c-7 -12 2 -30 16 -30 12 0 12 27 0 35 -5 3 -12 1 -16
-5z"/>
<path d="M10727 10084 c-11 -12 3 -24 29 -24 15 0 24 6 24 15 0 15 -40 21 -53
9z"/>
<path d="M10855 10080 c-3 -5 1 -10 9 -10 9 0 16 5 16 10 0 6 -4 10 -9 10 -6
0 -13 -4 -16 -10z"/>
<path d="M11025 10080 c-3 -5 -1 -10 4 -10 6 0 11 5 11 10 0 6 -2 10 -4 10 -3
0 -8 -4 -11 -10z"/>
<path d="M10624 10045 c-8 -19 2 -45 16 -45 5 0 10 14 10 30 0 31 -16 41 -26
15z"/>
<path d="M10692 10051 c4 -13 18 -16 19 -4 0 4 -5 9 -11 12 -7 2 -11 -2 -8 -8z"/>
<path d="M10790 10051 c0 -6 5 -13 10 -16 6 -3 10 1 10 9 0 9 -4 16 -10 16 -5
0 -10 -4 -10 -9z"/>
<path d="M10926 10051 c-4 -5 -2 -12 3 -15 5 -4 12 -2 15 3 4 5 2 12 -3 15 -5
4 -12 2 -15 -3z"/>
<path d="M13385 10051 c-7 -12 12 -24 25 -16 11 7 4 25 -10 25 -5 0 -11 -4
-15 -9z"/>
<path d="M13515 10050 c-3 -6 1 -13 10 -16 19 -8 30 0 20 15 -8 14 -22 14 -30
1z"/>
<path d="M10725 10010 c4 -6 11 -8 16 -5 14 9 11 15 -7 15 -8 0 -12 -5 -9 -10z"/>
<path d="M10860 10010 c0 -5 5 -10 10 -10 6 0 10 5 10 10 0 6 -4 10 -10 10 -5
0 -10 -4 -10 -10z"/>
<path d="M13524 9986 c-8 -22 3 -33 18 -18 9 9 9 15 0 24 -9 9 -13 7 -18 -6z"/>
<path d="M13585 9990 c-7 -12 2 -30 16 -30 12 0 12 27 0 35 -5 3 -12 1 -16 -5z"/>
<path d="M13654 9986 c-8 -22 3 -33 18 -18 9 9 9 15 0 24 -9 9 -13 7 -18 -6z"/>
<path d="M10530 9982 c0 -4 6 -14 12 -20 10 -10 10 -17 0 -33 -17 -27 -8 -36
13 -15 9 9 21 16 26 16 18 0 9 32 -11 37 -11 3 -20 9 -20 14 0 5 -4 9 -10 9
-5 0 -10 -4 -10 -8z"/>
<path d="M10660 9980 c0 -5 5 -10 10 -10 6 0 10 5 10 10 0 6 -4 10 -10 10 -5
0 -10 -4 -10 -10z"/>
<path d="M10790 9980 c0 -5 5 -10 10 -10 6 0 10 5 10 10 0 6 -4 10 -10 10 -5
0 -10 -4 -10 -10z"/>
<path d="M10625 9951 c-6 -11 9 -23 19 -14 9 9 7 23 -3 23 -6 0 -12 -4 -16 -9z"/>
<path d="M10726 9951 c-4 -5 -2 -12 3 -15 5 -4 12 -2 15 3 4 5 2 12 -3 15 -5
4 -12 2 -15 -3z"/>
<path d="M13809 9924 c-11 -14 -9 -19 16 -37 16 -12 36 -30 44 -39 9 -10 21
-18 28 -18 19 0 16 27 -4 40 -17 10 -17 10 0 20 9 6 17 18 17 25 0 20 -27 19
-38 -2 -9 -14 -11 -14 -21 5 -14 26 -24 28 -42 6z"/>
<path d="M13652 9916 c1 -10 8 -17 13 -17 15 1 12 24 -3 29 -9 3 -13 -2 -10
-12z"/>
<path d="M13750 9880 c0 -13 5 -20 13 -17 6 2 12 10 12 17 0 7 -6 15 -12 18
-8 2 -13 -5 -13 -18z"/>
<path d="M10362 9848 c2 -24 8 -43 13 -43 6 0 11 19 13 43 3 33 0 42 -13 42
-13 0 -16 -9 -13 -42z"/>
<path d="M10430 9880 c0 -5 5 -10 10 -10 6 0 10 5 10 10 0 6 -4 10 -10 10 -5
0 -10 -4 -10 -10z"/>
<path d="M10560 9880 c0 -5 5 -10 10 -10 6 0 10 5 10 10 0 6 -4 10 -10 10 -5
0 -10 -4 -10 -10z"/>
<path d="M10660 9880 c0 -5 5 -10 10 -10 6 0 10 5 10 10 0 6 -4 10 -10 10 -5
0 -10 -4 -10 -10z"/>
<path d="M10460 9851 c0 -6 5 -13 10 -16 6 -3 10 1 10 9 0 9 -4 16 -10 16 -5
0 -10 -4 -10 -9z"/>
<path d="M10630 9850 c0 -5 5 -10 11 -10 5 0 7 5 4 10 -3 6 -8 10 -11 10 -2 0
-4 -4 -4 -10z"/>
<path d="M10496 9821 c-4 -5 -2 -12 3 -15 5 -4 12 -2 15 3 4 5 2 12 -3 15 -5
4 -12 2 -15 -3z"/>
<path d="M13815 9819 c-10 -15 1 -23 20 -15 9 3 13 10 10 16 -8 13 -22 13 -30
-1z"/>
<path d="M10430 9809 c0 -5 5 -7 10 -4 6 3 10 8 10 11 0 2 -4 4 -10 4 -5 0
-10 -5 -10 -11z"/>
<path d="M10565 9810 c3 -5 8 -10 11 -10 2 0 4 5 4 10 0 6 -5 10 -11 10 -5 0
-7 -4 -4 -10z"/>
<path d="M13882 9786 c1 -10 8 -17 13 -17 15 1 12 24 -3 29 -9 3 -13 -2 -10
-12z"/>
<path d="M10400 9780 c0 -5 5 -10 10 -10 6 0 10 5 10 10 0 6 -4 10 -10 10 -5
0 -10 -4 -10 -10z"/>
<path d="M10162 9683 c3 -89 20 -101 29 -21 8 64 2 98 -18 98 -11 0 -13 -16
-11 -77z"/>
<path d="M10364 9746 c-8 -21 3 -49 16 -41 5 3 10 15 10 25 0 25 -18 36 -26
16z"/>
<path d="M10266 9721 c-4 -5 -2 -12 3 -15 5 -4 12 -2 15 3 4 5 2 12 -3 15 -5
4 -12 2 -15 -3z"/>
<path d="M10465 9720 c-3 -5 -1 -10 4 -10 6 0 11 5 11 10 0 6 -2 10 -4 10 -3
0 -8 -4 -11 -10z"/>
<path d="M13910 9715 c0 -10 7 -15 18 -13 21 4 19 22 -2 26 -10 2 -16 -3 -16
-13z"/>
<path d="M10235 9680 c3 -5 8 -10 11 -10 2 0 4 5 4 10 0 6 -5 10 -11 10 -5 0
-7 -4 -4 -10z"/>
<path d="M10335 9680 c3 -5 8 -10 11 -10 2 0 4 5 4 10 0 6 -5 10 -11 10 -5 0
-7 -4 -4 -10z"/>
<path d="M13980 9650 c0 -13 5 -20 13 -17 6 2 12 10 12 17 0 7 -6 15 -12 18
-8 2 -13 -5 -13 -18z"/>
<path d="M10235 9620 c-3 -5 -1 -10 4 -10 6 0 11 5 11 10 0 6 -2 10 -4 10 -3
0 -8 -4 -11 -10z"/>
<path d="M14042 9618 c5 -15 28 -18 29 -3 0 6 -7 12 -17 13 -10 3 -15 -1 -12
-10z"/>
<path d="M10136 9591 c-4 -5 -2 -12 3 -15 5 -4 12 -2 15 3 4 5 2 12 -3 15 -5
4 -12 2 -15 -3z"/>
<path d="M14112 9584 c4 -21 22 -23 26 -1 2 10 -3 17 -13 17 -10 0 -15 -6 -13
-16z"/>
<path d="M10032 9518 c2 -24 8 -43 13 -43 6 0 11 19 13 43 3 33 0 42 -13 42
-13 0 -16 -9 -13 -42z"/>
<path d="M10100 9550 c0 -5 5 -10 10 -10 6 0 10 5 10 10 0 6 -4 10 -10 10 -5
0 -10 -4 -10 -10z"/>
<path d="M10170 9549 c0 -5 5 -7 10 -4 6 3 10 8 10 11 0 2 -4 4 -10 4 -5 0
-10 -5 -10 -11z"/>
<path d="M10235 9550 c3 -5 8 -10 11 -10 2 0 4 5 4 10 0 6 -5 10 -11 10 -5 0
-7 -4 -4 -10z"/>
<path d="M10300 9549 c0 -5 5 -7 10 -4 6 3 10 8 10 11 0 2 -4 4 -10 4 -5 0
-10 -5 -10 -11z"/>
<path d="M14114 9526 c-8 -22 3 -33 18 -18 9 9 9 15 0 24 -9 9 -13 7 -18 -6z"/>
<path d="M10135 9520 c-3 -5 -1 -10 4 -10 6 0 11 5 11 10 0 6 -2 10 -4 10 -3
0 -8 -4 -11 -10z"/>
<path d="M10107 9493 c-11 -10 -8 -53 3 -53 6 0 10 14 10 30 0 31 -2 35 -13
23z"/>
<path d="M14175 9491 c-7 -12 12 -24 25 -16 11 7 4 25 -10 25 -5 0 -11 -4 -15
-9z"/>
<path d="M10000 9435 c0 -14 5 -25 10 -25 6 0 10 11 10 25 0 14 -4 25 -10 25
-5 0 -10 -11 -10 -25z"/>
<path d="M10070 9420 c0 -5 5 -10 10 -10 6 0 10 5 10 10 0 6 -4 10 -10 10 -5
0 -10 -4 -10 -10z"/>
<path d="M10035 9390 c-3 -5 1 -10 10 -10 9 0 13 5 10 10 -3 6 -8 10 -10 10
-2 0 -7 -4 -10 -10z"/>
<path d="M10135 9390 c-3 -5 -1 -10 4 -10 6 0 11 5 11 10 0 6 -2 10 -4 10 -3
0 -8 -4 -11 -10z"/>
<path d="M14205 9391 c-3 -5 -1 -12 5 -16 12 -7 30 2 30 16 0 12 -27 12 -35 0z"/>
<path d="M10005 9350 c3 -5 8 -10 11 -10 2 0 4 5 4 10 0 6 -5 10 -11 10 -5 0
-7 -4 -4 -10z"/>
<path d="M9970 9320 c0 -5 5 -10 10 -10 6 0 10 5 10 10 0 6 -4 10 -10 10 -5 0
-10 -4 -10 -10z"/>
<path d="M10070 9319 c0 -5 5 -7 10 -4 6 3 10 8 10 11 0 2 -4 4 -10 4 -5 0
-10 -5 -10 -11z"/>
<path d="M9940 9290 c0 -5 5 -10 11 -10 5 0 7 5 4 10 -3 6 -8 10 -11 10 -2 0
-4 -4 -4 -10z"/>
<path d="M9970 6030 c0 -22 5 -40 10 -40 6 0 10 12 10 26 0 15 8 33 18 40 15
12 14 13 -10 14 -26 0 -28 -3 -28 -40z"/>
<path d="M10042 6015 c0 -16 2 -22 5 -12 2 9 2 23 0 30 -3 6 -5 -1 -5 -18z"/>
<path d="M11750 5039 c0 -5 5 -7 10 -4 6 3 10 8 10 11 0 2 -4 4 -10 4 -5 0
-10 -5 -10 -11z"/>
<path d="M11750 4980 c0 -5 5 -10 11 -10 5 0 7 5 4 10 -3 6 -8 10 -11 10 -2 0
-4 -4 -4 -10z"/>
<path d="M11715 4951 c-3 -5 -1 -12 5 -16 5 -3 10 1 10 9 0 18 -6 21 -15 7z"/>
<path d="M18426 9018 c-3 -13 -6 -48 -6 -79 0 -31 -5 -81 -10 -110 -6 -30 -15
-112 -20 -184 -6 -71 -15 -161 -20 -200 -5 -38 -14 -131 -20 -205 -5 -74 -14
-178 -20 -230 -5 -52 -15 -147 -21 -210 -6 -63 -17 -176 -24 -250 -7 -74 -11
-138 -9 -142 8 -13 84 -9 164 7 175 37 267 60 290 72 14 7 30 13 36 13 19 0
107 41 162 76 53 34 92 84 92 117 0 21 -38 121 -81 215 -16 34 -29 68 -29 75
0 7 -7 22 -15 33 -8 10 -15 24 -15 31 0 7 -16 45 -35 86 -19 41 -35 81 -35 89
0 9 -7 21 -15 28 -8 7 -15 18 -15 26 0 7 -13 41 -29 76 -17 35 -42 92 -56 128
-14 36 -39 91 -56 123 -16 31 -29 62 -29 67 0 10 -31 79 -96 217 -19 39 -34
76 -34 80 0 5 -11 24 -24 41 -23 32 -24 32 -30 10z"/>
<path d="M15750 9463 c-25 -2 -59 -10 -77 -18 -17 -8 -40 -15 -51 -15 -11 0
-25 -7 -32 -15 -7 -8 -19 -15 -27 -15 -53 0 -343 -263 -359 -324 -3 -14 -4
-43 -1 -63 3 -21 10 -81 16 -133 7 -52 19 -144 26 -205 8 -60 19 -150 25 -200
11 -100 28 -204 36 -217 3 -4 22 -8 42 -8 37 0 270 109 372 174 59 37 177 132
213 171 76 82 177 238 177 275 0 6 7 27 16 45 12 25 14 59 12 151 -4 108 -14
159 -39 204 -5 8 -13 25 -19 38 -16 38 -78 98 -128 124 -49 27 -122 38 -202
31z"/>
<path d="M12920 8000 c-6 -11 -16 -89 -21 -173 -6 -83 -15 -159 -19 -167 -5
-9 -11 -69 -15 -135 -4 -66 -13 -160 -21 -210 -8 -49 -14 -117 -14 -150 0 -33
-6 -109 -14 -170 -9 -60 -20 -164 -25 -230 -6 -66 -16 -169 -22 -228 -7 -62
-8 -112 -3 -116 14 -13 262 24 317 47 16 7 41 12 55 12 15 0 36 6 47 13 11 8
35 17 53 20 44 9 145 60 193 98 50 39 77 94 61 120 -7 10 -12 26 -12 34 0 9
-9 33 -19 53 -11 20 -27 57 -37 82 -9 25 -30 72 -45 105 -16 33 -29 64 -29 69
0 9 -27 71 -56 129 -8 16 -14 34 -14 42 0 7 -7 18 -15 25 -8 7 -15 20 -15 29
-1 9 -9 34 -20 56 -11 22 -19 43 -20 47 0 4 -15 40 -34 80 -18 40 -41 91 -50
113 -10 22 -24 54 -31 70 -7 17 -27 59 -43 95 -16 36 -38 86 -50 113 -12 26
-22 52 -22 58 0 6 -7 17 -15 25 -8 9 -15 24 -15 34 0 28 -17 34 -30 10z m116
-468 c7 -18 20 -47 28 -65 8 -17 24 -54 36 -82 11 -27 27 -62 35 -77 8 -14 15
-35 15 -46 0 -11 7 -25 15 -32 8 -7 15 -18 15 -25 0 -11 19 -60 56 -142 8 -17
14 -35 14 -41 0 -5 7 -15 15 -22 8 -7 15 -21 15 -32 0 -11 6 -32 13 -46 8 -15
21 -42 30 -60 9 -19 17 -39 17 -45 1 -7 9 -30 19 -52 22 -44 15 -69 -22 -85
-12 -6 -29 -14 -37 -20 -29 -18 -109 -50 -128 -50 -10 0 -27 -7 -38 -15 -10
-8 -31 -15 -46 -15 -15 0 -45 -6 -65 -14 -45 -17 -117 -26 -130 -17 -5 3 -6
48 -2 111 4 58 9 132 10 165 2 33 6 65 11 71 4 6 12 78 17 160 6 82 15 196 21
254 6 58 14 142 19 187 9 92 29 133 44 92 5 -13 15 -39 23 -57z"/>
<path d="M9091 8165 c-18 -8 -42 -15 -53 -15 -18 0 -64 -18 -148 -59 -59 -28
-232 -148 -286 -198 -78 -73 -77 -68 -64 -276 6 -100 16 -272 21 -382 5 -110
13 -254 18 -320 5 -66 10 -183 10 -261 1 -126 3 -143 21 -159 14 -12 29 -16
57 -12 48 6 124 34 177 63 23 13 55 30 71 38 30 14 109 70 218 153 137 105
305 298 392 453 6 10 16 24 22 31 19 24 83 153 83 170 0 8 5 20 11 26 5 5 17
37 25 69 8 32 20 77 25 99 15 54 4 253 -15 291 -8 16 -23 46 -33 67 -38 79
-169 185 -266 214 -74 23 -242 27 -286 8z m145 -170 c-5 -14 -9 -15 -21 -5
-12 10 -13 16 -4 27 15 18 34 1 25 -22z m69 19 c15 -15 17 -15 34 0 16 15 20
15 31 1 8 -9 21 -13 36 -9 17 5 24 2 24 -9 0 -8 -6 -18 -12 -21 -7 -3 -3 -3
10 0 25 6 92 -32 92 -52 0 -6 9 -19 20 -29 11 -10 20 -29 20 -42 0 -13 7 -26
15 -29 21 -9 21 -220 0 -248 -8 -11 -15 -34 -15 -50 0 -41 -12 -58 -36 -50
-15 5 -16 4 -4 -4 12 -9 11 -17 -8 -55 -12 -24 -22 -51 -22 -60 0 -9 -9 -21
-20 -27 -15 -8 -19 -17 -14 -32 5 -18 3 -20 -19 -14 -22 5 -26 3 -29 -21 -5
-41 -36 -43 -44 -3 -6 29 -8 30 -25 14 -17 -16 -20 -15 -44 7 -28 27 -32 44
-10 53 13 4 13 9 4 25 -11 16 -8 23 19 49 37 36 40 52 12 52 -11 0 -20 -7 -20
-15 0 -8 -4 -15 -10 -15 -5 0 -10 7 -10 16 0 9 -9 18 -20 21 -22 6 -26 18 -8
29 6 4 17 -1 25 -12 13 -18 15 -18 24 -1 6 9 15 17 21 17 6 0 17 -8 24 -17 12
-16 13 -13 14 26 l0 44 -21 -19 c-20 -18 -21 -18 -35 0 -13 18 -15 18 -32 2
-16 -14 -21 -14 -30 -3 -9 11 -7 16 13 25 30 14 32 32 5 39 -23 6 -27 33 -5
33 7 0 18 -7 23 -16 8 -15 12 -14 32 6 21 21 22 24 7 35 -22 16 -21 31 1 44
16 9 16 11 -2 24 -11 8 -16 19 -12 25 10 17 27 15 42 -5 12 -16 13 -12 13 32
0 45 -1 48 -14 31 -8 -11 -21 -16 -30 -13 -19 8 -19 26 0 33 8 4 15 17 15 30
0 28 -8 30 -26 7 -12 -17 -15 -16 -38 11 -24 27 -26 46 -5 46 5 0 9 -7 9 -15
0 -8 9 -15 20 -15 23 0 27 28 5 36 -18 7 -20 31 -2 37 8 3 6 9 -7 19 -12 9
-17 21 -13 32 8 20 12 20 32 0z m-75 -69 c0 -8 -4 -15 -10 -15 -5 0 -10 7 -10
15 0 8 5 15 10 15 6 0 10 -7 10 -15z m-25 -64 c7 -12 -12 -24 -25 -16 -11 7
-4 25 10 25 5 0 11 -4 15 -9z m69 -66 c3 -9 -1 -18 -10 -22 -19 -7 -28 2 -21
22 8 19 23 19 31 0z m-69 -5 c3 -5 -3 -10 -15 -10 -12 0 -18 5 -15 10 3 6 10
10 15 10 5 0 12 -4 15 -10z m69 -58 c8 -13 -11 -35 -23 -28 -16 10 -14 36 3
36 8 0 17 -4 20 -8z m-64 -12 c0 -5 -6 -10 -14 -10 -8 0 -18 5 -21 10 -3 6 3
10 14 10 12 0 21 -4 21 -10z m59 -76 c-9 -11 -15 -12 -25 -3 -11 9 -12 15 -3
25 9 11 15 12 25 3 11 -9 12 -15 3 -25z m-64 17 c7 -12 -12 -24 -25 -16 -11 7
-4 25 10 25 5 0 11 -4 15 -9z m5 -71 c0 -5 -9 -10 -20 -10 -11 0 -20 5 -20 10
0 6 9 10 20 10 11 0 20 -4 20 -10z m-5 -59 c7 -12 -12 -24 -25 -16 -11 7 -4
25 10 25 5 0 11 -4 15 -9z m5 -71 c0 -5 -9 -10 -21 -10 -11 0 -17 5 -14 10 3
6 13 10 21 10 8 0 14 -4 14 -10z m57 -76 c-9 -9 -28 6 -21 18 4 6 10 6 17 -1
6 -6 8 -13 4 -17z m-67 6 c0 -5 -4 -10 -9 -10 -6 0 -13 5 -16 10 -3 6 1 10 9
10 9 0 16 -4 16 -10z m30 -36 c0 -8 -4 -12 -10 -9 -5 3 -10 10 -10 16 0 5 5 9
10 9 6 0 10 -7 10 -16z m-34 -141 c-11 -11 -19 6 -11 24 8 17 8 17 12 0 3 -10
2 -21 -1 -24z m77 22 c8 -18 -11 -31 -25 -17 -11 11 -3 32 12 32 4 0 10 -7 13
-15z m64 -31 c8 -20 -8 -36 -26 -25 -15 10 -8 41 9 41 6 0 13 -7 17 -16z m49
-41 c-10 -10 -19 5 -10 18 6 11 8 11 12 0 2 -7 1 -15 -2 -18z m-80 -24 c10
-17 -13 -36 -27 -22 -12 12 -4 33 11 33 5 0 12 -5 16 -11z"/>
<path d="M9310 7940 c0 -5 5 -10 10 -10 6 0 10 5 10 10 0 6 -4 10 -10 10 -5 0
-10 -4 -10 -10z"/>
<path d="M9363 7925 c-21 -21 -21 -21 -2 -33 11 -7 19 -23 19 -38 0 -14 4 -23
10 -19 12 7 14 102 3 108 -5 2 -18 -6 -30 -18z"/>
<path d="M9410 7775 c0 -19 5 -35 10 -35 6 0 10 16 10 35 0 19 -4 35 -10 35
-5 0 -10 -16 -10 -35z"/>
<path d="M9307 7594 c-14 -15 -6 -34 14 -34 14 0 19 5 17 17 -3 18 -20 27 -31
17z"/>
<path d="M9380 7580 c0 -5 5 -10 11 -10 5 0 7 5 4 10 -3 6 -8 10 -11 10 -2 0
-4 -4 -4 -10z"/>
<path d="M9410 7510 c0 -22 5 -40 10 -40 6 0 10 18 10 40 0 22 -4 40 -10 40
-5 0 -10 -18 -10 -40z"/>
<path d="M9331 7399 l-23 -19 23 -19 c24 -19 24 -19 42 0 17 18 17 20 0 38
-18 19 -18 19 -42 0z"/>
<path d="M9300 7316 c0 -15 24 -28 34 -19 13 14 5 33 -14 33 -11 0 -20 -6 -20
-14z"/>
<path d="M894 5999 c-5 -8 -10 -63 -11 -124 -2 -60 -10 -371 -18 -690 -17
-666 -18 -844 -6 -864 8 -12 14 -13 36 -3 14 7 36 12 49 12 25 0 69 12 241 66
215 68 352 152 400 243 22 44 21 46 -165 406 -150 289 -177 341 -202 380 -14
22 -28 50 -32 63 -4 13 -27 56 -50 95 -23 40 -61 110 -84 157 -53 105 -113
213 -121 220 -4 3 -11 16 -17 29 -8 20 -12 22 -20 10z m201 -594 c36 -73 77
-149 90 -169 14 -20 25 -43 25 -50 0 -8 7 -19 15 -26 8 -7 15 -21 15 -31 0 -9
7 -24 15 -33 8 -8 15 -19 15 -25 0 -10 43 -95 59 -115 4 -6 11 -23 15 -38 3
-16 11 -28 16 -28 6 0 10 -5 10 -12 0 -10 41 -104 75 -170 12 -24 11 -29 -14
-57 -28 -31 -111 -81 -135 -81 -7 0 -39 -13 -71 -30 -32 -16 -66 -30 -74 -30
-9 0 -28 -7 -43 -14 -36 -19 -109 -29 -126 -18 -11 7 -13 41 -9 153 2 79 7
317 11 529 5 212 10 389 13 393 10 17 36 -21 98 -148z"/>
<path d="M13650 5540 c0 -5 7 -10 16 -10 8 0 12 5 9 10 -3 6 -10 10 -16 10 -5
0 -9 -4 -9 -10z"/>
<path d="M13720 5541 c0 -6 5 -13 10 -16 6 -3 10 1 10 9 0 9 -4 16 -10 16 -5
0 -10 -4 -10 -9z"/>
<path d="M13750 5505 c0 -9 5 -15 11 -13 6 2 11 8 11 13 0 5 -5 11 -11 13 -6
2 -11 -4 -11 -13z"/>
<path d="M13655 5479 c-10 -15 3 -25 16 -12 7 7 7 13 1 17 -6 3 -14 1 -17 -5z"/>
<path d="M13714 5466 c-6 -26 1 -46 17 -46 5 0 9 16 9 35 0 40 -17 47 -26 11z"/>
<path d="M13590 5470 c0 -5 5 -10 10 -10 6 0 10 5 10 10 0 6 -4 10 -10 10 -5
0 -10 -4 -10 -10z"/>
<path d="M13490 5440 c0 -5 5 -10 10 -10 6 0 10 5 10 10 0 6 -4 10 -10 10 -5
0 -10 -4 -10 -10z"/>
<path d="M13620 5440 c0 -5 5 -10 10 -10 6 0 10 5 10 10 0 6 -4 10 -10 10 -5
0 -10 -4 -10 -10z"/>
<path d="M13426 5411 c-4 -5 -2 -12 3 -15 5 -4 12 -2 15 3 4 5 2 12 -3 15 -5
4 -12 2 -15 -3z"/>
<path d="M13587 5414 c-8 -8 1 -24 14 -24 5 0 9 7 9 15 0 15 -12 20 -23 9z"/>
<path d="M13555 5379 c-10 -15 3 -25 16 -12 7 7 7 13 1 17 -6 3 -14 1 -17 -5z"/>
<path d="M13490 5370 c0 -5 5 -10 10 -10 6 0 10 5 10 10 0 6 -4 10 -10 10 -5
0 -10 -4 -10 -10z"/>
<path d="M13325 5340 c3 -5 8 -10 11 -10 2 0 4 5 4 10 0 6 -5 10 -11 10 -5 0
-7 -4 -4 -10z"/>
<path d="M13390 5340 c0 -5 5 -10 10 -10 6 0 10 5 10 10 0 6 -4 10 -10 10 -5
0 -10 -4 -10 -10z"/>
<path d="M13450 5340 c0 -5 7 -10 15 -10 8 0 15 5 15 10 0 6 -7 10 -15 10 -8
0 -15 -4 -15 -10z"/>
<path d="M13520 5340 c0 -5 7 -10 15 -10 8 0 15 5 15 10 0 6 -7 10 -15 10 -8
0 -15 -4 -15 -10z"/>
<path d="M13230 5310 c0 -5 5 -10 11 -10 5 0 7 5 4 10 -3 6 -8 10 -11 10 -2 0
-4 -4 -4 -10z"/>
<path d="M13422 5309 c2 -6 8 -10 13 -10 5 0 11 4 13 10 2 6 -4 11 -13 11 -9
0 -15 -5 -13 -11z"/>
<path d="M13550 5305 c0 -8 7 -15 15 -15 8 0 15 7 15 15 0 8 -7 15 -15 15 -8
0 -15 -7 -15 -15z"/>
<path d="M13325 5279 c-10 -15 3 -25 16 -12 7 7 7 13 1 17 -6 3 -14 1 -17 -5z"/>
<path d="M13390 5260 c0 -28 13 -40 24 -22 7 12 -5 52 -15 52 -5 0 -9 -13 -9
-30z"/>
<path d="M13295 5249 c-10 -15 3 -25 16 -12 7 7 7 13 1 17 -6 3 -14 1 -17 -5z"/>
<path d="M13457 5253 c-12 -11 -8 -23 8 -23 8 0 15 7 15 15 0 16 -12 20 -23 8z"/>
<path d="M13060 5240 c0 -5 5 -10 10 -10 6 0 10 5 10 10 0 6 -4 10 -10 10 -5
0 -10 -4 -10 -10z"/>
<path d="M13220 5240 c0 -5 7 -10 15 -10 8 0 15 5 15 10 0 6 -7 10 -15 10 -8
0 -15 -4 -15 -10z"/>
<path d="M13000 5210 c0 -5 5 -10 11 -10 5 0 7 5 4 10 -3 6 -8 10 -11 10 -2 0
-4 -4 -4 -10z"/>
<path d="M13130 5210 c0 -5 5 -10 10 -10 6 0 10 5 10 10 0 6 -4 10 -10 10 -5
0 -10 -4 -10 -10z"/>
<path d="M13190 5210 c0 -5 4 -10 9 -10 6 0 13 5 16 10 3 6 -1 10 -9 10 -9 0
-16 -4 -16 -10z"/>
<path d="M13254 5205 c-8 -19 2 -45 16 -45 5 0 10 14 10 30 0 31 -16 41 -26
15z"/>
<path d="M13357 5214 c-8 -8 1 -24 14 -24 5 0 9 7 9 15 0 15 -12 20 -23 9z"/>
<path d="M13065 5180 c-3 -5 -1 -10 4 -10 6 0 11 5 11 10 0 6 -2 10 -4 10 -3
0 -8 -4 -11 -10z"/>
<path d="M13160 5174 c0 -8 5 -12 10 -9 6 3 10 10 10 16 0 5 -4 9 -10 9 -5 0
-10 -7 -10 -16z"/>
<path d="M13126 5153 c-12 -13 -6 -53 9 -53 9 0 15 9 15 24 0 26 -12 40 -24
29z"/>
<path d="M13227 5153 c-12 -11 -8 -23 8 -23 8 0 15 7 15 15 0 16 -12 20 -23 8z"/>
<path d="M13290 5146 c0 -9 7 -16 16 -16 17 0 14 22 -4 28 -7 2 -12 -3 -12
-12z"/>
<path d="M12960 5140 c0 -5 5 -10 10 -10 6 0 10 5 10 10 0 6 -4 10 -10 10 -5
0 -10 -4 -10 -10z"/>
<path d="M13030 5140 c0 -5 5 -10 10 -10 6 0 10 5 10 10 0 6 -4 10 -10 10 -5
0 -10 -4 -10 -10z"/>
<path d="M12930 5110 c0 -5 5 -10 10 -10 6 0 10 5 10 10 0 6 -4 10 -10 10 -5
0 -10 -4 -10 -10z"/>
<path d="M13060 5110 c0 -5 5 -10 10 -10 6 0 10 5 10 10 0 6 -4 10 -10 10 -5
0 -10 -4 -10 -10z"/>
<path d="M13190 5110 c0 -5 7 -10 15 -10 8 0 15 5 15 10 0 6 -7 10 -15 10 -8
0 -15 -4 -15 -10z"/>
<path d="M12900 5074 c0 -8 5 -12 10 -9 6 3 10 10 10 16 0 5 -4 9 -10 9 -5 0
-10 -7 -10 -16z"/>
<path d="M12997 5083 c-11 -10 -8 -53 3 -53 13 0 50 37 50 50 0 11 -43 14 -53
3z"/>
<path d="M13092 5078 c6 -18 28 -21 28 -4 0 9 -7 16 -16 16 -9 0 -14 -5 -12
-12z"/>
<path d="M12930 5046 c0 -9 5 -16 10 -16 6 0 10 4 10 9 0 6 -4 13 -10 16 -5 3
-10 -1 -10 -9z"/>
<path d="M13027 5023 c-12 -11 -8 -23 8 -23 8 0 15 7 15 15 0 16 -12 20 -23 8z"/>
<path d="M2642 8975 c0 -16 2 -22 5 -12 2 9 2 23 0 30 -3 6 -5 -1 -5 -18z"/>
</g>
</svg>
