<svg xmlns="http://www.w3.org/2000/svg" xmlns:xlink="http://www.w3.org/1999/xlink" viewBox="0 0 1684.77 365.35"><defs><style>.cls-1{fill:url(#linear-gradient);}.cls-2{fill:url(#linear-gradient-2);}.cls-3{fill:none;clip-rule:evenodd;}.cls-4{fill:url(#linear-gradient-3);}.cls-5{fill:url(#linear-gradient-4);}.cls-6{fill:url(#linear-gradient-5);}.cls-7{fill:url(#linear-gradient-6);}.cls-8{fill:url(#linear-gradient-7);}.cls-9{fill:url(#linear-gradient-8);}.cls-10{fill:url(#linear-gradient-9);}.cls-11{fill:url(#linear-gradient-10);}.cls-12{fill:url(#linear-gradient-11);}.cls-13{fill:url(#linear-gradient-12);}.cls-14{fill:url(#linear-gradient-13);}.cls-15{fill:url(#linear-gradient-14);}.cls-16,.cls-20,.cls-22{fill-rule:evenodd;}.cls-16{fill:url(#linear-gradient-15);}.cls-17{clip-path:url(#clip-path);}.cls-18{fill:url(#linear-gradient-16);}.cls-19{mask:url(#mask);}.cls-20{fill:url(#linear-gradient-17);}.cls-21{mask:url(#mask-2);}.cls-22{fill:url(#linear-gradient-18);}.cls-23{fill:#fff;}.cls-24{fill:url(#linear-gradient-19);}.cls-25{fill:url(#linear-gradient-20);}.cls-26{fill:url(#linear-gradient-21);}.cls-27{fill:url(#linear-gradient-22);}.cls-28{fill:url(#linear-gradient-23);}.cls-29{fill:url(#linear-gradient-24);}.cls-30{fill:url(#linear-gradient-25);}.cls-31{fill:url(#linear-gradient-26);}</style><linearGradient id="linear-gradient" x1="-150.27" y1="855.03" x2="-226.65" y2="926.57" gradientTransform="translate(-126.9 1176.61) rotate(180)" gradientUnits="userSpaceOnUse"><stop offset="0" stop-color="#fff"/><stop offset="1"/></linearGradient><linearGradient id="linear-gradient-2" x1="-204.13" y1="923.26" x2="-127.91" y2="795.46" gradientTransform="translate(138.3 965.07) rotate(180)" xlink:href="#linear-gradient"/><linearGradient id="linear-gradient-3" x1="499.47" y1="45.88" x2="499.47" y2="369.27" gradientUnits="userSpaceOnUse"><stop offset="0" stop-color="#b27f2a"/><stop offset="0.06" stop-color="#b7862e"/><stop offset="0.14" stop-color="#c49939"/><stop offset="0.24" stop-color="#dab84c"/><stop offset="0.33" stop-color="#f4dd62"/><stop offset="0.52" stop-color="#f4e38b"/><stop offset="0.66" stop-color="#f4dd62"/><stop offset="1" stop-color="#b27f2a"/></linearGradient><linearGradient id="linear-gradient-4" x1="361.98" y1="287.14" x2="642.58" y2="125.14" xlink:href="#linear-gradient-3"/><linearGradient id="linear-gradient-5" x1="719.44" y1="45.88" x2="719.44" y2="369.27" xlink:href="#linear-gradient-3"/><linearGradient id="linear-gradient-6" x1="568.24" y1="254.1" x2="886.56" y2="70.32" xlink:href="#linear-gradient-3"/><linearGradient id="linear-gradient-7" x1="933.49" y1="45.88" x2="933.49" y2="369.27" xlink:href="#linear-gradient-3"/><linearGradient id="linear-gradient-8" x1="782.29" y1="254.1" x2="1100.61" y2="70.32" xlink:href="#linear-gradient-3"/><linearGradient id="linear-gradient-9" x1="1129.51" y1="45.88" x2="1129.51" y2="369.27" xlink:href="#linear-gradient-3"/><linearGradient id="linear-gradient-10" x1="992.02" y1="287.14" x2="1272.62" y2="125.14" xlink:href="#linear-gradient-3"/><linearGradient id="linear-gradient-11" x1="1361.86" y1="45.88" x2="1361.86" y2="369.27" xlink:href="#linear-gradient-3"/><linearGradient id="linear-gradient-12" x1="1209.04" y1="272.23" x2="1525.98" y2="89.25" xlink:href="#linear-gradient-3"/><linearGradient id="linear-gradient-13" x1="1594.2" y1="45.88" x2="1594.2" y2="369.27" xlink:href="#linear-gradient-3"/><linearGradient id="linear-gradient-14" x1="1456.71" y1="287.14" x2="1737.32" y2="125.14" xlink:href="#linear-gradient-3"/><linearGradient id="linear-gradient-15" x1="145.43" y1="132.58" x2="470.31" y2="132.58" gradientTransform="translate(515.87 70.62) rotate(133.02)" gradientUnits="userSpaceOnUse"><stop offset="0" stop-color="#b27f2a"/><stop offset="0.03" stop-color="#b7862e"/><stop offset="0.09" stop-color="#c49939"/><stop offset="0.14" stop-color="#dab84c"/><stop offset="0.2" stop-color="#f4dd62"/><stop offset="0.42" stop-color="#f4e38b"/><stop offset="0.63" stop-color="#f4dd62"/><stop offset="0.85" stop-color="#b27f2a"/><stop offset="0.95" stop-color="#b27f2a"/></linearGradient><clipPath id="clip-path"><path class="cls-3" d="M67,286.28C63.91,276.74,64,261.16,82,240.94c-21.85,9.4-46,24.3-54.27,42.3-19.54,42.77,30.89,65.69,81,23.89C176,250.88,181.82,79,263.82,87.17c40.32,4,71.37,55.27,57.06,98.47C447.28,95,286.12-44.35,183.36,26.78c-82.11,56.84-30.42,234.11-96.7,271.75C76.28,304.42,70,295.22,67,286.28"/></clipPath><linearGradient id="linear-gradient-16" x1="285.77" y1="275.83" x2="307.27" y2="91.9" gradientTransform="translate(491 341.22) rotate(180)" xlink:href="#linear-gradient-15"/><mask id="mask" x="9.58" y="231.98" width="105" height="106.68" maskUnits="userSpaceOnUse"><rect class="cls-1" x="16.06" y="256.46" width="92.05" height="57.72" transform="translate(-188.89 136.07) rotate(-46.98)"/></mask><linearGradient id="linear-gradient-17" x1="420.54" y1="185.33" x2="512.58" y2="185.33" xlink:href="#linear-gradient-15"/><mask id="mask-2" x="200.21" y="12.68" width="199.73" height="200.29" maskUnits="userSpaceOnUse"><rect class="cls-2" x="226.44" y="44.94" width="147.25" height="135.77" transform="translate(12.86 255.26) rotate(-46.98)"/></mask><linearGradient id="linear-gradient-18" x1="104.45" y1="128.99" x2="251.71" y2="128.99" xlink:href="#linear-gradient-15"/><linearGradient id="linear-gradient-19" x1="-1.15" y1="334.46" x2="40.72" y2="342.97" gradientUnits="userSpaceOnUse"><stop offset="0" stop-color="#797979"/><stop offset="0.02" stop-color="#878787"/><stop offset="0.08" stop-color="#acacac"/><stop offset="0.15" stop-color="#cacaca"/><stop offset="0.22" stop-color="#e1e1e1"/><stop offset="0.29" stop-color="#f2f2f2"/><stop offset="0.37" stop-color="#fcfcfc"/><stop offset="0.47" stop-color="#fff"/><stop offset="0.53" stop-color="#f9f9f9"/><stop offset="0.6" stop-color="#e9e9e9"/><stop offset="0.67" stop-color="#cfcfcf"/><stop offset="0.76" stop-color="#ababab"/><stop offset="0.77" stop-color="#a3a3a3"/><stop offset="0.94" stop-color="#e5e5e5"/><stop offset="1" stop-color="#fff"/></linearGradient><linearGradient id="linear-gradient-20" x1="-0.35" y1="330.51" x2="41.53" y2="339.02" xlink:href="#linear-gradient-19"/><linearGradient id="linear-gradient-21" x1="0.22" y1="327.75" x2="42.09" y2="336.26" xlink:href="#linear-gradient-19"/><linearGradient id="linear-gradient-22" x1="-0.6" y1="331.76" x2="41.27" y2="340.27" xlink:href="#linear-gradient-19"/><linearGradient id="linear-gradient-23" x1="-0.03" y1="328.98" x2="41.84" y2="337.49" xlink:href="#linear-gradient-19"/><linearGradient id="linear-gradient-24" x1="22.18" y1="331.66" x2="17.76" y2="363.66" xlink:href="#linear-gradient-19"/><linearGradient id="linear-gradient-25" x1="12.74" y1="330.35" x2="8.32" y2="362.35" xlink:href="#linear-gradient-19"/><linearGradient id="linear-gradient-26" x1="35.14" y1="333.45" x2="30.71" y2="365.45" xlink:href="#linear-gradient-19"/></defs><g id="Layer_2" data-name="Layer 2"><g id="Layer_1-2" data-name="Layer 1"><path class="cls-4" d="M512.23,269.39v-9.74c16.59-2.37,16.59-5.27,12.91-16.59-2.64-7.89-6.85-19.74-10.8-30.28H463c-2.89,8.17-6.58,18.17-9.21,26.33-5.53,16.59.79,18.69,21.59,20.54v9.74h-65v-9.74c16.59-2.11,20.8-4.48,29.75-26.59L494.86,97l12.64-2.37c16.84,45.81,34.75,92.67,51.86,136.63,9.74,24.49,12.11,26.33,29.22,28.44v9.74ZM489.07,143.55c-7.64,18.95-15,36.59-21.59,55.81h41.86Z"/><path class="cls-5" d="M590,270.84H510.79V258.39l1.24-.18c8.09-1.15,11.88-2.42,13.1-4.37s.2-5.51-1.37-10.33c-2.62-7.86-6.68-19.25-10.42-29.28H464c-.63,1.76-1.29,3.59-2,5.47-2.43,6.77-4.94,13.76-6.9,19.86-2.16,6.46-2.4,10.42-.8,12.85,2.3,3.52,8.92,4.71,21.13,5.8l1.32.11v12.52H408.9V258.37l1.27-.16c16.28-2.06,19.87-4.15,28.59-25.69L493.81,95.67l14.62-2.74.42,1.15c15,40.88,32.49,86.84,51.86,136.61,9.74,24.49,11.85,25.53,28,27.52l1.27.16Zm-76.35-2.9h73.46v-7c-16.89-2.19-19.55-5.11-29.13-29.17-19.2-49.33-36.5-94.92-51.45-135.52l-10.65,2L441.44,233.6c-8.95,22.13-13.5,25.16-29.64,27.32v7h62.13v-7c-10.92-1-18.86-2.21-22-7-2.16-3.29-2-7.88.47-15.35,2-6.12,4.49-13.14,6.92-19.93.8-2.22,1.57-4.37,2.3-6.42l.34-1h53.36l.36.94c3.85,10.28,8.09,22.18,10.81,30.32,1.87,5.76,3,9.75,1.08,12.77-1.71,2.74-5.4,4.23-13.91,5.53Zm-2.27-67.13h-46l.66-1.92c5.55-16.21,11.61-31.16,18-47q1.8-4.41,3.6-8.9l1.42-3.51Zm-41.9-2.9h37.76L489,147.59c-.74,1.81-1.47,3.62-2.19,5.41C480.67,168.16,474.86,182.5,469.51,197.91Z"/><path class="cls-6" d="M722.86,98.27c20.8,0,36.6,3.68,47.39,10.79,13.16,8.69,20.54,21.32,20.54,39.49,0,38.17-32.39,54.23-60.55,54.49a66.66,66.66,0,0,1-7.9-.52l-15.27-4v35.8c0,22.12,1.84,23.17,24.74,25.28v9.74H648.1v-9.74c19.74-2.37,22.37-3.16,22.37-25.28V133.81c0-22.12-2.63-24.49-22.37-25.8V98.27Zm-15.79,89.24c3.16,1.58,8.42,2.64,13.95,2.64,12.11,0,31.86-7.11,31.86-41.86,0-29.49-16.06-39.23-33.18-39.23-5.52,0-8.68,1.32-10.26,2.63-1.85,1.58-2.37,4.21-2.37,8.16Z"/><path class="cls-7" d="M733.26,270.84H646.65V258.36l1.27-.15C667,255.92,669,255.68,669,234.37V133.81c0-21.68-2.38-23.11-21-24.36l-1.35-.09V96.82h76.21c20.86,0,37.07,3.71,48.19,11,14.25,9.41,21.18,22.72,21.18,40.7,0,38-32.13,55.66-62,55.94a67.57,67.57,0,0,1-8.12-.54l-.16,0-13.45-3.48v33.93c0,20.87.87,21.76,23.43,23.84l1.31.12Zm-83.72-2.9h80.83v-7c-21.91-2.06-24.75-3.63-24.75-26.6V196.7l17,4.4a66.9,66.9,0,0,0,7.62.5c29.41-.28,59.1-16.79,59.1-53,0-16.93-6.51-29.45-19.89-38.28-10.63-7-26.3-10.56-46.59-10.56H649.54v7c19.62,1.45,22.38,5.1,22.38,27.15V234.37c0,22.72-3.22,24.23-22.38,26.56ZM721,191.59c-5.57,0-11.17-1.06-14.6-2.78l-.8-.4V119.85c0-3.53.35-7.09,2.88-9.26,1.64-1.37,4.9-3,11.2-3,10.41,0,34.62,4,34.62,40.68C754.32,188.47,728.83,191.59,721,191.59Zm-12.5-5A34.38,34.38,0,0,0,721,188.7c7.13,0,30.41-2.92,30.41-40.41,0-32.88-19.88-37.78-31.73-37.78-5.94,0-8.51,1.6-9.34,2.29-1.3,1.12-1.84,3.17-1.84,7Z"/><path class="cls-8" d="M936.91,98.27c20.8,0,36.6,3.68,47.39,10.79,13.17,8.69,20.54,21.32,20.54,39.49,0,38.17-32.39,54.23-60.55,54.49a66.66,66.66,0,0,1-7.9-.52l-15.27-4v35.8c0,22.12,1.84,23.17,24.74,25.28v9.74H862.15v-9.74c19.74-2.37,22.37-3.16,22.37-25.28V133.81c0-22.12-2.63-24.49-22.37-25.8V98.27Zm-15.79,89.24c3.16,1.58,8.42,2.64,14,2.64,12.11,0,31.86-7.11,31.86-41.86,0-29.49-16.06-39.23-33.18-39.23-5.52,0-8.68,1.32-10.26,2.63-1.85,1.58-2.37,4.21-2.37,8.16Z"/><path class="cls-9" d="M947.31,270.84H860.7V258.36l1.27-.15c19.11-2.29,21.11-2.53,21.11-23.84V133.81c0-21.68-2.38-23.11-21-24.36l-1.35-.09V96.82h76.21c20.86,0,37.07,3.71,48.19,11,14.25,9.41,21.18,22.72,21.18,40.7,0,38-32.13,55.66-62,55.94a67.57,67.57,0,0,1-8.12-.54l-.16,0-13.45-3.48v33.93c0,20.87.87,21.76,23.43,23.84l1.31.12Zm-83.72-2.9h80.83v-7c-21.91-2.06-24.75-3.63-24.75-26.6V196.7l17,4.4a66.9,66.9,0,0,0,7.62.5c29.41-.28,59.1-16.79,59.1-53,0-16.93-6.51-29.45-19.89-38.28-10.63-7-26.3-10.56-46.59-10.56H863.59v7c19.62,1.45,22.38,5.1,22.38,27.15V234.37c0,22.72-3.22,24.23-22.38,26.56Zm71.48-76.35c-5.57,0-11.17-1.06-14.6-2.78l-.8-.4V119.85c0-3.53.35-7.09,2.88-9.26,1.64-1.37,4.9-3,11.2-3,10.41,0,34.62,4,34.62,40.68C968.37,188.47,942.88,191.59,935.07,191.59Zm-12.5-5a34.38,34.38,0,0,0,12.5,2.11c7.13,0,30.41-2.92,30.41-40.41,0-32.88-19.88-37.78-31.73-37.78-5.94,0-8.51,1.6-9.34,2.29-1.3,1.12-1.84,3.17-1.84,7Z"/><path class="cls-10" d="M1142.27,269.39v-9.74c16.59-2.37,16.59-5.27,12.91-16.59-2.64-7.89-6.85-19.74-10.8-30.28H1093c-2.89,8.17-6.58,18.17-9.21,26.33-5.53,16.59.79,18.69,21.59,20.54v9.74h-65v-9.74c16.59-2.11,20.8-4.48,29.75-26.59L1124.9,97l12.64-2.37c16.85,45.81,34.75,92.67,51.86,136.63,9.74,24.49,12.11,26.33,29.22,28.44v9.74Zm-23.16-125.84c-7.64,18.95-15,36.59-21.59,55.81h41.86Z"/><path class="cls-11" d="M1220.07,270.84h-79.24V258.39l1.24-.18c8.09-1.15,11.88-2.42,13.1-4.37s.2-5.51-1.37-10.33c-2.62-7.86-6.68-19.25-10.42-29.28h-49.31c-.63,1.76-1.29,3.59-2,5.47-2.43,6.77-4.94,13.76-6.9,19.86-2.16,6.46-2.4,10.42-.8,12.85,2.3,3.52,8.92,4.71,21.13,5.8l1.32.11v12.52h-67.92V258.37l1.27-.16c16.28-2.06,19.87-4.15,28.59-25.69l55-136.85,14.62-2.74.42,1.15c15,40.88,32.49,86.84,51.86,136.61,9.74,24.49,11.85,25.53,28,27.52l1.27.16Zm-76.35-2.9h73.46v-7c-16.89-2.19-19.55-5.11-29.13-29.17-19.2-49.33-36.5-94.92-51.45-135.52l-10.65,2L1071.48,233.6c-9,22.13-13.5,25.16-29.64,27.32v7H1104v-7c-10.92-1-18.86-2.21-22-7-2.16-3.29-2-7.88.47-15.35,2-6.12,4.49-13.14,6.93-19.93l2.29-6.42.34-1h53.36l.36.94c3.85,10.27,8.09,22.18,10.81,30.32,1.87,5.76,3,9.75,1.08,12.77-1.71,2.74-5.4,4.23-13.91,5.53Zm-2.27-67.13h-46l.66-1.92c5.54-16.18,11.58-31.1,18-46.88,1.2-3,2.42-6,3.64-9l1.41-3.51Zm-41.9-2.9h37.76L1119,147.59l-2.23,5.5C1110.68,168.22,1104.89,182.54,1099.55,197.91Z"/><path class="cls-12" d="M1443.73,271c-1.58,0-4.74,0-7.9-.26-33.43-1.58-43.17-8.69-51.07-19.75-10.53-14.48-18.17-30.54-27.12-46.33-4-7.11-7.63-8.69-16.06-8.69l-5.26-.27v38.44c0,21.33,2.63,23.17,22.38,25.54v9.74h-80.56v-9.74c20-2.11,22.37-4.21,22.37-25.54V133.28c0-20.8-2.63-23.69-22.37-25.27V98.27h76.34c23.44,0,36.86,2.63,47.66,10,10.53,7.11,17.63,18.69,17.63,35,0,23.42-15.53,35.8-32.9,42.64,3.94,7.9,14.21,25,22.11,37.13,9.21,14.47,15,21.58,20,27.37,6,6.85,9,9,16.58,11.59Zm-100.3-86.09c11.32,0,20-1.84,25.8-6.84,8.69-7.38,12.37-17.38,12.37-30.81,0-27.9-16.06-37.91-30.8-37.91-7.11,0-10.53,1.06-12.11,2.64-1.84,1.57-2.37,4.74-2.37,10v62.92Z"/><path class="cls-13" d="M1444.91,272.42h-1.18c-1.56,0-4.8,0-8-.27-32.7-1.55-43.55-8.35-52.13-20.35-7.63-10.5-13.88-22-19.92-33.21-2.35-4.35-4.78-8.84-7.28-13.25-3.51-6.32-6.55-8-14.8-8l-3.81-.19v36.92c0,20.77,2.39,21.86,21.1,24.1l1.27.15v12.48h-83.45v-12.5l1.29-.13c19.51-2,21.09-3.86,21.09-24.1V133.28c0-20.08-2-22.3-21-23.83l-1.33-.11V96.82h77.79c24.07,0,37.66,2.87,48.47,10.25,8.33,5.63,18.27,16.48,18.27,36.22,0,19.89-10.88,34.49-32.35,43.39,4.17,8,13.56,23.69,21.32,35.58,9.36,14.71,15.18,21.77,19.89,27.23,6,6.77,8.68,8.65,16,11.16l1.2.41Zm-103.24-77.93c8.28,0,12.76,1.37,17.24,9.43,2.5,4.42,4.94,8.93,7.3,13.29,6.27,11.6,12.19,22.55,19.72,32.9,6.79,9.51,15.24,17.51,50,19.15,2.48.21,5,.25,6.65.26l1.35-6.56c-6.93-2.5-10-4.77-16-11.57-4.79-5.55-10.69-12.7-20.14-27.56-8.42-12.91-18.38-29.63-22.19-37.25l-.71-1.41,1.47-.58c21.23-8.37,32-22.26,32-41.3,0-14.62-5.88-26.31-17-33.82-10.29-7-23.42-9.76-46.85-9.76h-74.9v7c19.41,1.7,22.38,5.5,22.38,26.6V234.11c0,21.28-2.54,24.63-22.38,26.84v7h77.67v-7c-19-2.36-22.38-5-22.38-26.82v-40l6.78.34Zm1.76-8.16h-8.56V122c0-5.3.48-9,2.83-11.07,2.1-2,6.26-3,13.1-3,14.87,0,32.25,10.3,32.25,39.35,0,14.31-4.1,24.45-12.89,31.91C1364.49,184,1356,186.33,1343.43,186.33Zm-5.66-2.9h5.66c11.82,0,19.72-2.06,24.85-6.49,8.1-6.88,11.87-16.31,11.87-29.71,0-26.88-15.16-36.46-29.35-36.46-5.9,0-9.63.75-11.09,2.21l-.08.08c-1.32,1.13-1.86,3.71-1.86,8.9Z"/><path class="cls-14" d="M1607,269.39v-9.74c16.59-2.37,16.59-5.27,12.9-16.59-2.63-7.89-6.84-19.74-10.79-30.28h-51.34c-2.9,8.17-6.58,18.17-9.21,26.33-5.53,16.59.78,18.69,21.58,20.54v9.74h-65v-9.74c16.58-2.11,20.79-4.48,29.75-26.59L1589.6,97l12.63-2.37c16.85,45.81,34.75,92.67,51.87,136.63,9.74,24.49,12.11,26.33,29.22,28.44v9.74ZM1583.8,143.55c-7.63,18.95-15,36.59-21.58,55.81h41.86Z"/><path class="cls-15" d="M1684.77,270.84h-79.25V258.39l1.25-.18c8.08-1.15,11.88-2.42,13.09-4.37s.2-5.51-1.37-10.33c-2.62-7.86-6.67-19.25-10.42-29.28h-49.31c-.62,1.75-1.28,3.58-2,5.44-2.43,6.78-4.94,13.79-6.91,19.89-2.15,6.46-2.4,10.42-.8,12.85,2.31,3.52,8.93,4.71,21.14,5.8l1.32.11v12.52h-67.92V258.37l1.26-.16c16.28-2.06,19.88-4.15,28.59-25.69l55.06-136.85,14.62-2.74.42,1.15c15,40.86,32.47,86.82,51.85,136.61,9.75,24.49,11.85,25.53,28.06,27.52l1.27.16Zm-76.35-2.9h73.45v-7c-16.88-2.19-19.55-5.11-29.12-29.17-19.21-49.35-36.52-94.94-51.45-135.52l-10.66,2L1536.18,233.6c-9,22.13-13.51,25.16-29.65,27.32v7h62.14v-7c-10.92-1-18.87-2.21-22-7-2.16-3.29-2-7.88.47-15.35,2-6.13,4.5-13.16,6.94-20l2.29-6.4.34-1h53.36l.35.94c3.85,10.27,8.1,22.18,10.81,30.32,1.88,5.76,3,9.75,1.08,12.77-1.71,2.74-5.4,4.23-13.9,5.53Zm-2.28-67.13h-46l.66-1.92c5.55-16.21,11.6-31.15,18-47l3.6-8.92,1.41-3.51Zm-41.89-2.9H1602l-18.28-50.32c-.73,1.82-1.46,3.62-2.19,5.42C1575.4,168.16,1569.59,182.51,1564.25,197.91Z"/><path class="cls-16" d="M85.59,267.78c9.56-6.51,22.7-11.36,35.23-14.85a284.27,284.27,0,0,1,33.78-7.08c2.8-.41,4.42-.6,4.42-.6,36.53-4.73,112.71-24.35,161.86-59.61C332.3,151.16,314,83.11,299.64,67.82c-12.77-13.59-21.08,23-21.08,23,19.73,10.57,30.6,36.26,20.1,63.38-21.39,55.24-83.36,61.81-134.72,69.1-4.78.68-9.47,1.36-14,2.09l-22.15,3.24-14.83,2.17c-7.55,1.43-18.9,4.94-31,10.13-35.49,37.71-13.7,60.55-8,56.94-4.18-6.3-2.38-20.55,11.63-30.1"/><g class="cls-17"><rect class="cls-18" x="-42.09" y="46.93" width="468.47" height="260.77" transform="translate(-68.58 196.84) rotate(-46.98)"/></g><g class="cls-19"><path class="cls-20" d="M24.79,310.09C38.23,344.59,87.68,299,94,293.4a48.75,48.75,0,0,1-7.35,5.13c-5.24,3-9.45,2.1-12.7-.65s-5.47-7.18-6.92-11.6C63.91,276.74,64,261.16,82,240.94c-21.85,9.4-46,24.3-54.27,42.3-4.71,10.31-5.35,19.47-2.91,26.85"/></g><g class="cls-21"><path class="cls-22" d="M278.56,90.83c26.12,10.51,45.5,40.66,45.86,71.61a70.82,70.82,0,0,1-3.54,23.2C378,144.69,376.4,93.81,348,56.87c-80.69-48.37-143.62,67.4-143.62,67.4,15.07-24.18,33.41-39.69,59.41-37.1a53.46,53.46,0,0,1,14.74,3.66"/></g><path class="cls-23" d="M342.32,187C335.08,274,262,342.6,173.14,342.6a168.7,168.7,0,0,1-78.09-19.05c1.94-1.31,4.07-2.83,6.1-4.31a163.73,163.73,0,0,0,68.35,14.85c82.77,0,151.49-61.34,163.11-140.94C335.76,191.29,339.08,189.19,342.32,187Z"/><path class="cls-23" d="M205.63,3.58a68.28,68.28,0,0,0-16.1,5.57q-7.83-.78-15.85-.78c-89.91,0-163,73.14-163,163a162,162,0,0,0,24.29,85.53c-2.21,2.11-4.25,4.27-5.87,6.07a168.72,168.72,0,0,1-28-93.25C1.08,76.15,77.24,0,170.85,0A169.64,169.64,0,0,1,205.63,3.58Z"/><polygon class="cls-24" points="14.23 339.04 7.08 331.78 0 339.04 14.23 339.04"/><polygon class="cls-25" points="19.99 330.87 14.19 337.24 8.09 330.87 19.99 330.87"/><polygon class="cls-26" points="34.39 330.87 28.06 337.24 21.68 330.87 34.39 330.87"/><polygon class="cls-27" points="13.83 339.04 20.91 331.78 28.06 339.04 13.83 339.04"/><polygon class="cls-28" points="28.06 339.04 35.15 331.78 42.29 339.04 28.06 339.04"/><polygon class="cls-29" points="27.71 340.57 21.91 365.35 20.16 365.35 14.19 340.57 27.71 340.57"/><polygon class="cls-30" points="12.69 340.57 19.23 365.35 0 340.57 12.69 340.57"/><polygon class="cls-31" points="42.03 340.57 22.85 365.35 29.35 340.57 42.03 340.57"/></g></g></svg>