<?xml version="1.0" standalone="no"?>
<!DOCTYPE svg PUBLIC "-//W3C//DTD SVG 20010904//EN"
 "http://www.w3.org/TR/2001/REC-SVG-20010904/DTD/svg10.dtd">
<svg version="1.0" xmlns="http://www.w3.org/2000/svg"
 width="707.000000pt" height="236.000000pt" viewBox="0 0 707.000000 236.000000"
 preserveAspectRatio="xMidYMid meet">

<g transform="translate(0.000000,236.000000) scale(0.100000,-0.100000)"
fill="#000000" stroke="none">
<path d="M1552 1688 c-30 -30 -1 -75 43 -64 22 6 26 11 23 39 -2 26 -8 33 -28
35 -14 2 -31 -3 -38 -10z"/>
<path d="M5687 1628 l43 -42 28 27 c29 28 72 36 72 14 0 -8 -11 -24 -25 -37
-27 -26 -31 -49 -14 -83 17 -32 17 -32 41 -11 l22 19 -16 -27 c-16 -25 -16
-29 5 -85 21 -56 22 -73 25 -484 l3 -426 62 -27 c34 -14 66 -26 70 -26 4 0 7
208 5 463 -4 449 -4 464 -26 521 -27 73 -57 125 -112 194 l-42 52 -91 0 -92 0
42 -42z"/>
<path d="M1554 1583 c-16 -3 -23 -16 -32 -61 -6 -31 -14 -67 -18 -79 -5 -18
-2 -23 13 -23 15 0 28 17 52 70 43 98 42 104 -15 93z"/>
<path d="M2482 1148 l3 -43 658 -3 657 -2 0 -49 0 -50 -42 -5 c-172 -19 -217
-28 -268 -53 -90 -46 -105 -110 -35 -156 19 -12 35 -25 35 -28 0 -3 -18 -14
-39 -24 -123 -55 -127 -156 -7 -211 186 -85 460 -92 616 -16 l35 17 3 83 c2
45 0 82 -4 82 -3 0 -30 -21 -58 -48 -100 -91 -213 -134 -351 -134 -90 0 -161
29 -172 69 -14 60 45 91 203 106 l114 11 0 27 0 27 -113 3 c-87 3 -119 8 -140
22 -15 9 -27 22 -27 28 0 20 57 67 96 79 67 19 193 23 267 8 l67 -15 0 39 c0
31 -5 41 -25 50 -23 10 -25 17 -25 74 l0 62 399 4 399 3 27 25 c15 14 31 33
36 43 9 16 -49 17 -1151 17 l-1161 0 3 -42z"/>
<path d="M4813 1149 c-24 -22 -43 -42 -43 -44 0 -3 86 -5 190 -5 l190 0 0 -85
c0 -74 -3 -86 -20 -97 -12 -8 -20 -24 -20 -39 l0 -27 93 30 c70 23 117 31 197
35 96 4 108 2 145 -19 32 -19 41 -30 43 -56 4 -36 3 -36 -33 -22 -57 22 -154
30 -222 20 -128 -20 -270 -111 -289 -185 -18 -73 37 -147 137 -181 82 -29 233
-25 321 8 l67 25 48 -23 c26 -13 61 -26 77 -30 l28 -7 -4 214 c-5 236 -11 264
-66 311 -63 53 -243 63 -384 22 -16 -5 -18 2 -18 50 l0 56 300 0 300 0 0 45 0
45 -497 0 -498 -1 -42 -40z m646 -409 c29 -5 73 -19 98 -30 l46 -20 -23 -25
c-106 -113 -379 -171 -475 -101 -19 13 -19 15 5 50 31 44 90 88 150 109 76 27
123 32 199 17z"/>
<path d="M6034 1176 c-3 -8 -4 -27 -2 -43 3 -26 7 -28 43 -28 40 0 40 0 43 43
l3 42 -41 0 c-26 0 -43 -5 -46 -14z"/>
<path d="M2860 1011 c-34 -11 -109 -49 -142 -73 l-27 -18 -3 37 -3 38 -67 3
-68 3 0 -256 0 -256 63 -29 62 -28 6 136 c7 153 19 197 74 272 65 88 165 137
258 127 97 -12 142 -63 141 -162 0 -92 -18 -129 -105 -220 l-79 -82 77 -42 77
-41 24 27 c91 108 128 202 119 302 -9 102 -76 194 -175 242 -51 24 -184 36
-232 20z"/>
<path d="M4534 990 c-32 -16 -90 -57 -129 -90 l-70 -61 -3 80 -3 81 -59 0 -60
0 0 -449 0 -448 59 -27 c32 -14 61 -26 65 -26 3 0 7 126 8 279 l3 279 77 -58
c96 -72 175 -104 241 -96 79 9 161 52 221 116 106 115 99 229 -21 347 -106
105 -217 129 -329 73z m277 -83 c19 -12 43 -39 53 -59 17 -31 18 -41 8 -75
-17 -57 -80 -124 -154 -163 -85 -45 -188 -53 -265 -20 -96 41 -103 70 -36 151
53 63 120 114 205 154 88 41 141 45 189 12z"/>
<path d="M1384 929 c-16 -17 -19 -37 -19 -111 0 -82 2 -91 24 -109 31 -25 73
-24 97 2 15 16 20 40 22 103 3 71 1 84 -18 109 -27 34 -78 37 -106 6z m82 -20
c3 -6 -11 -36 -32 -67 l-39 -56 -3 47 c-2 25 2 55 8 67 11 21 54 28 66 9z m4
-169 c-8 -15 -19 -20 -38 -18 -38 4 -37 26 6 83 l37 50 3 -47 c2 -26 -2 -57
-8 -68z"/>
</g>
</svg>
