<svg xmlns="http://www.w3.org/2000/svg" viewBox="0 0 99 46.46"><defs><style>.cls-1{fill:#4855b2;}.cls-2{fill:#afcf9d;}</style></defs><g id="Layer_2" data-name="Layer 2"><g id="Logo"><path class="cls-1" d="M53.27,20.85l2.41.26,7.41.76,7,.71c.8.08,1.61.14,2.4.27.33,0,.65,0,1,.09.09,0,.21,0,.21.15s-.14.14-.24.14l-6.82,0-14.24,0-4.34,0a.33.33,0,0,1-.24-.05l1-1.16,4.78-5.39,7.26-8.18c.18-.2.27-.23.48,0L66.39,13c.1.09.22.14,0,.28-1.08.76-2.14,1.53-3.21,2.29,0,0-.06,0-.11,0,0-.3-.06-.59-.06-.88a.63.63,0,0,0-.21-.48c-.52-.46-1-.93-1.52-1.42-.18-.17-.27-.18-.45,0q-1.65,1.74-3.31,3.47l-3.93,4.11Z"/><path class="cls-1" d="M25.61,22.61c.8-.72,1.58-1.46,2.35-2.21,1.12-1.1,2.26-2.17,3.39-3.26L41.53,7.41,49.12.14c.19-.18.28-.2.47,0,.7.84,1.42,1.66,2.15,2.46.18.21.11.28-.06.41L43.91,8.9q-5.58,4.2-11.14,8.42l-6.28,4.76-.83.61Z"/><path class="cls-1" d="M36.56,22.89l7.3-7.4,0-.06-5.67.19v0l2.92-1,5.36-1.86a1.43,1.43,0,0,0,.5-.34c2.63-2.37,5.27-4.73,7.9-7.11.19-.17.28-.17.45,0,.7.85,1.41,1.68,2.14,2.51.18.21.14.29-.06.43L51.6,12.31l-6.27,4.46-8.43,6C36.81,22.82,36.74,22.92,36.56,22.89Z"/><path class="cls-1" d="M9.38,29.42v.52c0,.79,0,1.59,0,2.38,0,.21-.06.27-.26.25s-.63.09-.8,0-.05-.51-.06-.78c0-1.32,0-2.65,0-4,0-.21,0-.27.27-.31a1.24,1.24,0,0,1,1.47.82,12.31,12.31,0,0,0,.66,1.1c.12.21.2.17.31,0,.33-.54.68-1.08,1-1.63a.43.43,0,0,1,.46-.27c.29,0,.7-.13.87.08s0,.56,0,.85c0,1.3,0,2.59,0,3.89,0,.22,0,.31-.28.28s-.63.12-.79-.06,0-.5,0-.77c0-.78,0-1.56,0-2.34-.12,0-.13.06-.16.1-.39.58-.77,1.15-1.15,1.74-.12.19-.18.17-.3,0l-1-1.58C9.56,29.57,9.53,29.46,9.38,29.42Z"/><path class="cls-1" d="M68.47,30.48V29.6c0-.63,0-1.26,0-1.9,0-.16,0-.24.22-.23s.65-.08.83.05.06.52.06.79c0,1.32,0,2.65,0,4,0,.22,0,.27-.28.3a1,1,0,0,1-1.1-.53c-.56-.81-1.17-1.57-1.77-2.34,0-.08-.1-.22-.21-.18s-.06.18-.06.28c0,.83,0,1.67,0,2.5,0,.19,0,.29-.25.26s-.66.12-.82-.06,0-.53,0-.8c0-1.32,0-2.63,0-3.94,0-.22,0-.28.28-.31a1.19,1.19,0,0,1,1.25.62c.51.76,1.1,1.48,1.66,2.21A.35.35,0,0,0,68.47,30.48Z"/><path class="cls-1" d="M62.72,30.49V28c0-.54,0-.54.53-.54s.58,0,.58.56c0,1.43,0,2.86,0,4.28,0,.21-.06.23-.25.26A1.09,1.09,0,0,1,62.44,32c-.54-.78-1.14-1.52-1.72-2.27l-.23-.3a.55.55,0,0,0-.08.38c0,.82,0,1.65,0,2.47,0,.21-.05.3-.27.27s-.62.11-.8,0,0-.52-.05-.79c0-1.32,0-2.63,0-3.94,0-.26.08-.3.33-.32a1.1,1.1,0,0,1,1.15.55c.59.86,1.25,1.66,1.88,2.48Z"/><path class="cls-1" d="M97.82,30.49V27.84c0-.22,0-.44.32-.32a.89.89,0,0,0,.51,0c.3-.11.29.05.29.25V32.3c0,.2,0,.25-.26.28A1.1,1.1,0,0,1,97.53,32c-.55-.79-1.16-1.55-1.75-2.31-.06-.08-.1-.18-.22-.22s0,.21,0,.31c0,.83,0,1.67,0,2.51,0,.19,0,.3-.26.27s-.63.11-.8,0,0-.52,0-.79c0-1.33,0-2.65,0-4,0-.21.06-.25.27-.28a1.19,1.19,0,0,1,1.28.65c.57.82,1.2,1.59,1.8,2.39Z"/><path class="cls-1" d="M43.32,30.51a.55.55,0,0,0,.06-.36c0-.81,0-1.61,0-2.42,0-.2,0-.27.25-.26s.62-.1.8.06,0,.52.06.79c0,1.31,0,2.63,0,3.94,0,.27-.09.29-.33.32a1,1,0,0,1-1.05-.52c-.54-.8-1.16-1.54-1.75-2.31-.07-.09-.13-.21-.24-.26-.1.1-.06.21-.06.3,0,.84,0,1.67,0,2.51,0,.2,0,.29-.26.27s-.63.09-.8,0,0-.52,0-.79c0-1.33,0-2.65,0-4,0-.24.07-.27.29-.29a1.15,1.15,0,0,1,1.22.59c.53.79,1.14,1.52,1.71,2.27A2,2,0,0,0,43.32,30.51Z"/><path class="cls-1" d="M55.56,32.67A2.64,2.64,0,1,1,58.31,30,2.62,2.62,0,0,1,55.56,32.67ZM54.07,30a1.54,1.54,0,0,0,1.56,1.6A1.52,1.52,0,0,0,57.14,30a1.54,1.54,0,0,0-1.57-1.6A1.52,1.52,0,0,0,54.07,30Z"/><path class="cls-1" d="M90.73,27.39A2.6,2.6,0,0,1,93.41,30a2.72,2.72,0,1,1-2.68-2.61ZM89.17,30a1.54,1.54,0,1,0,1.52-1.54A1.5,1.5,0,0,0,89.17,30Z"/><path class="cls-1" d="M70.81,30c0-.76,0-1.53,0-2.29,0-.18,0-.25.24-.25q1.69,0,3.39,0c.17,0,.23.05.23.22,0,.78,0,.78-.73.78-.59,0-1.17,0-1.75,0-.19,0-.25.05-.25.26,0,.78,0,.78.77.78h1.41c.18,0,.22,0,.22.22,0,.78,0,.78-.74.78H72.16c-.18,0-.23,0-.23.22,0,.85,0,.85.79.85.57,0,1.14,0,1.71,0,.23,0,.27.08.27.28,0,.72,0,.72-.72.72H71.07c-.22,0-.27-.06-.27-.27C70.81,31.54,70.81,30.77,70.81,30Z"/><path class="cls-1" d="M4.61,30c0,.76,0,1.53,0,2.29,0,.2-.05.27-.26.25H3.68c-.16,0-.21,0-.21-.21,0-.52,0-1,0-1.55,0-.22-.06-.29-.27-.28H1.68c-.23,0-.27.08-.27.28,0,.51,0,1,0,1.53,0,.19-.06.24-.24.23s-.65.09-.83,0S.29,32,.29,31.71c0-1.31,0-2.62,0-3.94,0-.24.07-.33.31-.29s.61-.13.78.06,0,.51,0,.77,0,.64,0,1c0,.16,0,.24.22.24.54,0,1.07,0,1.61,0,.18,0,.23-.06.23-.23,0-.49,0-1,0-1.49,0-.22,0-.32.29-.3s.62-.11.79.06,0,.52.06.79C4.62,28.89,4.61,29.46,4.61,30Z"/><path class="cls-1" d="M33.77,32.56l2.12-5c0-.07.06-.14.15-.14h.85c.1,0,.13.08.16.16.68,1.6,1.37,3.2,2.05,4.79.06.15,0,.21-.13.19h0a2.41,2.41,0,0,1-.9,0c-.25-.13-.27-.52-.38-.8a.38.38,0,0,0-.44-.3c-.52,0-1,0-1.56,0a.36.36,0,0,0-.39.25c-.1.29-.14.69-.38.84s-.65,0-1,0Zm2.69-3.76c-.22.53-.41,1-.61,1.47-.07.16,0,.18.13.17h.94c.17,0,.2-.06.13-.21C36.86,29.79,36.67,29.32,36.46,28.8Z"/><path class="cls-1" d="M18.94,32.57c-.56,0-.56,0-.77-.51s-.26-.62-.92-.62H16.06c-.21,0-.36,0-.4.27,0,0,0,0,0,0-.34.86-.34.85-1.26.85-.24,0-.21-.08-.14-.25.61-1.42,1.21-2.84,1.82-4.27.27-.63.27-.62,1-.64a.42.42,0,0,1,.47.32c.63,1.5,1.27,3,1.91,4.49.14.34.14.34-.23.34Zm-2.1-3.77c-.22.54-.41,1-.61,1.5-.07.16,0,.14.13.14h.94c.15,0,.21,0,.14-.2C17.25,29.79,17.06,29.32,16.84,28.8Z"/><path class="cls-1" d="M29.19,32.57c-.57,0-.57,0-.78-.54s-.23-.59-.85-.59c-.44,0-.88,0-1.32,0-.17,0-.26.05-.3.22s0,.07-.05.11c-.11.26-.15.62-.35.76s-.59,0-.89,0-.22-.07-.15-.24c.58-1.34,1.15-2.69,1.73-4,0-.08.07-.15.1-.22.25-.64.25-.63.94-.65a.45.45,0,0,1,.5.32q1,2.3,1.94,4.58c.08.18.1.28-.15.25ZM27.1,28.79c-.22.53-.4,1-.6,1.47-.05.13-.05.19.11.19h1c.14,0,.18-.05.12-.19C27.5,29.8,27.32,29.33,27.1,28.79Z"/><path class="cls-1" d="M50.54,32.67A2.66,2.66,0,0,1,47.66,30a2.6,2.6,0,0,1,2.59-2.64,2.92,2.92,0,0,1,1.93.64c.13.1.17.19,0,.3l0,.05c-.17.19-.3.47-.51.55s-.39-.23-.6-.33a1.51,1.51,0,0,0-2.2,1.21,1.61,1.61,0,0,0,.77,1.63,1.51,1.51,0,0,0,1.76-.2c.22-.18.36-.22.52,0l.07.07c.46.47.46.47-.1.86A2.45,2.45,0,0,1,50.54,32.67Z"/><path class="cls-1" d="M78.12,27.39a2.75,2.75,0,0,1,1.79.58c.16.14.24.25,0,.4,0,0,0,0,0,.05-.15.18-.28.43-.47.51s-.36-.2-.55-.3a1.5,1.5,0,0,0-2,.43,1.76,1.76,0,0,0,.29,2.25,1.55,1.55,0,0,0,2-.08c.2-.16.34-.22.5,0a.53.53,0,0,0,.13.13c.39.4.39.4-.07.74a2.67,2.67,0,0,1-3.47-4.05A2.55,2.55,0,0,1,78.12,27.39Z"/><path class="cls-1" d="M29.27,27.48h1.16c.17,0,.23.12.29.23l.87,1.47.21.33c.38-.62.75-1.21,1.11-1.82a.37.37,0,0,1,.39-.21c.31,0,.63,0,1,0l-.76,1.21-1.1,1.72a.63.63,0,0,0-.09.38c0,.52,0,1,0,1.55,0,.19-.06.26-.24.24s-.65.12-.83,0-.09-.55-.05-.82a2.92,2.92,0,0,0-.63-2.12C30.14,28.93,29.74,28.22,29.27,27.48Z"/><path class="cls-1" d="M82.83,27.48h1.83c.18,0,.29,0,.26.25s.11.6,0,.76-.49,0-.74,0c-.76,0-.76,0-.76.76,0,1,0,2,0,3,0,.23-.05.33-.3.29s-.63.12-.79-.06,0-.51,0-.77c0-1,0-2,0-2.94,0-.23,0-.3-.29-.29s-.69,0-1,0c-.18,0-.22-.06-.22-.23,0-.81,0-.81.79-.81Z"/><path class="cls-1" d="M21.46,29.5c0,.6,0,1.2,0,1.8,0,.2.06.26.26.26h2c.18,0,.25,0,.25.24,0,.78,0,.78-.76.78H20.62c-.22,0-.29,0-.29-.27,0-1.52,0-3,0-4.55,0-.21.05-.3.27-.28s.65-.12.81.07.05.53.05.8Z"/><path class="cls-1" d="M5.87,30c0-.78,0-1.55,0-2.32,0-.18,0-.26.24-.25s.64-.09.83.05.06.54.06.81c0,1.33,0,2.65,0,4,0,.21,0,.3-.27.27s-.66.12-.82-.06,0-.52,0-.8Z"/><path class="cls-2" d="M64,36.27c0-.41,0-.82,0-1.22,0-.14-.08-.34.13-.39a.51.51,0,0,1,.56.15c.36.53.79,1,1.17,1.51.05.08.08.23.2.2s.13-.19.13-.31c0-.41,0-.82,0-1.22s.13-.35.37-.34.21.08.21.23c0,.92,0,1.83,0,2.75,0,.07,0,.19-.08.2a.53.53,0,0,1-.49,0,3.05,3.05,0,0,1-.45-.57c-.27-.34-.53-.69-.8-1-.07-.09-.14-.24-.28-.19s-.1.21-.09.33c0,.4,0,.81,0,1.21s-.09.4-.43.38-.18-.23-.19-.38C64,37.1,64,36.69,64,36.27Z"/><path class="cls-1" d="M86.94,30.05c0,.76,0,1.52,0,2.29,0,.19,0,.25-.23.23a4.14,4.14,0,0,0-.61,0c-.22,0-.28,0-.28-.26,0-1.24,0-2.48,0-3.72v-.92c0-.14,0-.21.19-.19h.06c.27,0,.62-.09.8.05s.05.51.06.78C87,28.89,86.94,29.47,86.94,30.05Z"/><path class="cls-2" d="M26.38,35.43a.91.91,0,0,1-.37.67c-.08.06-.21.09-.17.22a.4.4,0,0,0,.25.26c.16.05.18-.1.25-.17l0,0c.11-.11.15-.36.39-.21a.35.35,0,0,1,.06.56c-.25.29-.19.49.07.71.1.08.14.18,0,.28s-.23.26-.39.13a.62.62,0,0,0-.75-.07,1.17,1.17,0,0,1-1.38-.2,1,1,0,0,1,.11-1.31.37.37,0,0,0,.15-.52.72.72,0,0,1,.39-1,.94.94,0,0,1,1.21.25A1.16,1.16,0,0,1,26.38,35.43Zm-1.12,2h.15a.43.43,0,0,0,.38-.22c.05-.1-.11-.18-.18-.26s-.22-.23-.33-.35a.18.18,0,0,0-.27,0,.51.51,0,0,0-.21.56A.4.4,0,0,0,25.26,37.39Zm.26-2.28c-.26,0-.41.16-.38.38s.06.36.29.36a.45.45,0,0,0,.4-.41A.31.31,0,0,0,25.52,35.11Z"/><path class="cls-1" d="M12.66,42.37A1.43,1.43,0,0,1,13.61,41a15.25,15.25,0,0,1,1.65-.24c.21,0,.13.14.14.23,0,.93.12,1.87.22,2.8.06.56.08.57.63.66.05,0,.1,0,.1.07s0,.09-.09.1l-1,.17c-.13,0-.11-.09-.11-.17s-.06-.46-.06-.7-.1-.39-.44-.42a1.41,1.41,0,0,0-1.52.72,1.34,1.34,0,0,1-1.76.45c-.08-.05-.23-.09-.19-.2a.59.59,0,0,1,.24-.26c.12-.1.14,0,.2.1a.81.81,0,0,0,1,.08,2.19,2.19,0,0,0,.75-.82c.46-.75.89-1.51,1.34-2.26.1-.16,0-.2-.12-.22a1.1,1.1,0,0,0-1.39.95C13.07,42.29,12.82,42.25,12.66,42.37Zm1.07,1h.75c.52,0,.52,0,.48-.53l-.12-1.33h-.06Z"/><path class="cls-2" d="M93.5,36.28V34.91c0-.11,0-.25.14-.25a4.91,4.91,0,0,1,1.75.15,1.44,1.44,0,0,1,1,1.57c0,1-.79,1.49-1.81,1.52-.3,0-.61,0-.91,0s-.15-.13-.15-.24Zm.59,0h0v.36c0,.79-.16.69.7.67a1,1,0,0,0,1-.86,1,1,0,0,0-.69-1.18,2.83,2.83,0,0,0-.82,0c-.15,0-.14.12-.14.22Z"/><path class="cls-2" d="M6.28,36.25V34.94c0-.13,0-.27.17-.27a5.23,5.23,0,0,1,1.93.15.77.77,0,0,1,.5.66,1,1,0,0,1-.37,1c-.31.2-.32.24-.08.52.11.13.2.28.3.42s.24.22.16.38-.53.07-.62,0c-.22-.27-.42-.55-.63-.82a.64.64,0,0,0-.67-.2c-.1,0-.1.15-.1.24s0,.4,0,.61-.16.26-.34.28-.26-.09-.26-.27Zm1.11,0a1.1,1.1,0,0,0,.51,0,.53.53,0,0,0,.38-.58c0-.27-.23-.35-.46-.39l-.15,0c-.85,0-.83-.13-.83.78,0,.19.09.28.28.27Z"/><path class="cls-2" d="M59.18,36.25a1.62,1.62,0,0,1,1.64-1.64,1.64,1.64,0,0,1,1.69,1.5,1.67,1.67,0,1,1-3.33.14Zm1.64-1.08a1,1,0,0,0-1,1.06,1.06,1.06,0,1,0,2.11.06A1.07,1.07,0,0,0,60.82,35.17Z"/><path class="cls-2" d="M47.27,37.86h-.39c-.41,0-.42,0-.4-.39a20.85,20.85,0,0,0,0-2.5c0-.27.09-.33.33-.32a4,4,0,0,1,1.74.22A1.55,1.55,0,0,1,49.21,37a1.51,1.51,0,0,1-1.45.84h-.49Zm-.2-1.58h0v.33c0,.76,0,.76.76.7a1,1,0,0,0,.81-1.56,1.29,1.29,0,0,0-1.45-.51c-.12,0-.12.14-.12.24Z"/><path class="cls-1" d="M63.64,40.18c-.16.24-.3.4-.64.28a.73.73,0,0,0-1,.47,13.38,13.38,0,0,0-.53,2.25c-.08.32-.14.64-.19,1,0,.11-.07.24,0,.31a.26.26,0,0,0,.33-.06c.17-.12.32-.27.49-.41.05.13,0,.2-.09.28a2,2,0,0,1-.72.49c-.38.14-.64,0-.61-.44a3,3,0,0,1,.07-.43c0-.06,0-.14,0-.18s-.12.06-.16.11a3.33,3.33,0,0,1-.56.68,1.58,1.58,0,0,1-.39.24.56.56,0,0,1-.82-.51c-.08-.91.81-2.42,2-2.37.28,0,.38-.11.47-.35a1.93,1.93,0,0,1,2.15-1.36Zm-4.22,3.67c0,.47.18.66.41.48a3.17,3.17,0,0,0,1.31-1.92.17.17,0,0,0-.1-.22.85.85,0,0,0-1.12.25A3,3,0,0,0,59.42,43.85Zm1.41-.16a.13.13,0,0,0,.06-.13s0-.06,0-.06a.13.13,0,0,0-.07.14S60.81,43.67,60.83,43.69Z"/><path class="cls-1" d="M33.14,43a7,7,0,0,1,.62-.81c.37-.36.77-.52,1.06-.34s.31.64.24,1a2.49,2.49,0,0,1-1.34,1.75.59.59,0,0,1-.34.11c-.57-.11-.72.24-.92.67a1.76,1.76,0,0,1-2.09,1c.14-.22.25-.4.59-.29a.74.74,0,0,0,1-.5A8.51,8.51,0,0,0,32.34,44q.13-.62.24-1.23c.06-.42,0-.47-.42-.38l-.13,0a2.23,2.23,0,0,1,1.29-.53L33.07,43Zm1.4-.33c0-.18,0-.38-.16-.47s-.33.07-.45.18a4.1,4.1,0,0,0-.64.74,2.12,2.12,0,0,0-.46,1c0,.09,0,.17.07.24a.91.91,0,0,0,1.15-.25A2.92,2.92,0,0,0,34.54,42.69Z"/><path class="cls-2" d="M43.76,34.65h.88c.18,0,.36,0,.35.27s-.15.34-.39.32-.75,0-1.13,0-.26.22-.27.41,0,.37.27.36.67,0,1,0,.31.1.3.33-.12.24-.31.23a5.68,5.68,0,0,0-1,0c-.27,0-.26.2-.26.38s0,.34.28.35c.43,0,.86,0,1.28,0,.26,0,.27.16.25.35s-.08.19-.22.19l-2,0c-.15,0-.18,0-.18-.16,0-1,0-1.91,0-2.87,0-.15.07-.19.21-.18h.95Z"/><path class="cls-2" d="M12,37.85c-.44,0-.87,0-1.31,0-.18,0-.25-.08-.25-.26,0-.86,0-1.73,0-2.59,0-.27.1-.37.36-.36a11.64,11.64,0,0,0,1.67,0c.19,0,.41,0,.41.3s-.17.3-.47.28-.71,0-1.06,0-.28.25-.29.46.09.31.31.3.67,0,1,0,.24.17.27.32-.11.22-.25.23h-1c-.23,0-.34.06-.33.31s0,.49.33.49h1.17c.15,0,.34,0,.34.23s-.13.32-.35.31A5.09,5.09,0,0,0,12,37.85Z"/><path class="cls-2" d="M30.64,36.24c0-.4,0-.8,0-1.2s.07-.36.34-.36a16.67,16.67,0,0,0,1.87,0,.19.19,0,0,1,.23.21c0,.14,0,.35-.24.35H31.67c-.28,0-.4.09-.42.38s.16.38.41.38h.85c.19,0,.34,0,.35.26s-.17.27-.36.27h-.89c-.26,0-.35.13-.36.38s0,.42.34.42.79,0,1.19,0c.24,0,.29.12.31.31s-.15.22-.31.22c-.6,0-1.2,0-1.8,0-.27,0-.34-.11-.34-.34V36.24Z"/><path class="cls-2" d="M14.3,36.26c0-.45,0-.9,0-1.35,0-.24.12-.26.31-.26s.29,0,.28.26,0,.55,0,.82A.25.25,0,0,0,15,36c.1,0,.15,0,.2-.11a13.72,13.72,0,0,0,1-1,.69.69,0,0,1,.73-.15c.19.1,0,.2,0,.26-.23.25-.47.48-.71.72-.4.39-.39.39,0,.84A11.54,11.54,0,0,1,17,37.61c.09.15.13.22-.11.26a.58.58,0,0,1-.67-.28,7.47,7.47,0,0,0-.59-.77c-.09-.1-.17-.3-.33-.22a.56.56,0,0,0-.35.43,2.44,2.44,0,0,0,0,.6c0,.21-.07.28-.22.26s-.4.06-.38-.26,0-.91,0-1.37Z"/><path class="cls-2" d="M34.72,34.66a.43.43,0,0,1,.46.17c.13.18.26.36.38.55s.32.26.49,0,.23-.33.34-.5a.49.49,0,0,1,.55-.26c.33.07.34,0,.15.32s-.45.65-.69,1a.45.45,0,0,0,0,.61c.27.34.5.69.76,1,.14.18.16.25-.1.32a.54.54,0,0,1-.63-.26,4,4,0,0,1-.5-.72c-.05-.13-.13-.18-.23,0l-.57.82c-.09.14-.6.25-.71.14s0-.19.05-.26l.72-1c.23-.3.23-.4,0-.69s-.41-.56-.61-.84c-.07-.1-.21-.18-.14-.32S34.67,34.68,34.72,34.66Z"/><path class="cls-1" d="M28.29,44a4.08,4.08,0,0,0,.85-1.57,2.35,2.35,0,0,0,0-.27c0-.1-.16-.23,0-.28a.57.57,0,0,1,.48,0c.1.07.07.22,0,.34a3,3,0,0,1-.51.93c-.33.48-.67.94-1,1.41a.55.55,0,0,1-.12.14.3.3,0,0,1-.2,0c-.09,0-.06-.11-.06-.18a10.85,10.85,0,0,0-.07-1.4.59.59,0,0,0-.07-.31.82.82,0,0,0-.23.34,9.65,9.65,0,0,1-.77,1.28.91.91,0,0,1-.18.21.25.25,0,0,1-.26.06c-.07,0,0-.13,0-.2A10.57,10.57,0,0,0,26.09,43c0-.1,0-.2-.05-.3s-.14-.41-.38-.46-.36.1-.5.23l-.24.29a1.06,1.06,0,0,1,.95-.92.6.6,0,0,1,.51.39,3.52,3.52,0,0,1,.26,1.4V44c.15,0,.18-.11.22-.18a4.78,4.78,0,0,0,.76-1.78.21.21,0,0,1,.18-.2c.15,0,.13.11.15.18A9.93,9.93,0,0,1,28.29,44Z"/><path class="cls-2" d="M19.55,34.64a1.28,1.28,0,0,1,.84.25c.14.09.19.18.09.33s-.15.31-.37.19a1.56,1.56,0,0,0-.62-.23c-.21,0-.43,0-.51.23s.05.39.27.46l.76.23a.93.93,0,0,1,.7.81,1,1,0,0,1-.52.86,1.84,1.84,0,0,1-1.82-.23c-.12-.08-.19-.16-.08-.3s.23-.31.44-.16a1.27,1.27,0,0,0,.86.26c.2,0,.4-.06.45-.29s-.15-.33-.32-.4a3.92,3.92,0,0,0-.61-.18,1,1,0,0,1-.82-.95,1,1,0,0,1,1.06-.88Z"/><path class="cls-2" d="M75.81,37.9c-.2,0-.29-.07-.36-.25a10.69,10.69,0,0,0-.53-1.32A9.8,9.8,0,0,1,74.37,35c0-.08-.14-.2,0-.29s.31-.16.47,0a1.59,1.59,0,0,1,.4.77c.13.42.33.8.47,1.22,0,.06,0,.15.12.15s.12-.09.14-.17a8.17,8.17,0,0,0,.41-1.27,2.39,2.39,0,0,1,.35-.67c.17-.28.38,0,.58,0s0,.17,0,.26c-.18.64-.55,1.19-.76,1.82a5.87,5.87,0,0,1-.37.9A.34.34,0,0,1,75.81,37.9Z"/><path class="cls-1" d="M39.06,44a1.36,1.36,0,0,1-1.09.82c-.28,0-.4-.15-.38-.47,0-.14,0-.28.07-.42a1.1,1.1,0,0,0,0-.41,2.11,2.11,0,0,0-.33.47,2.24,2.24,0,0,1-.66.71.6.6,0,0,1-.64.06c-.23-.13-.23-.37-.19-.6.1-.56.22-1.11.32-1.67,0-.11.06-.24,0-.32s-.24,0-.33.06-.33.27-.49.4c-.07-.08,0-.15,0-.21a1.57,1.57,0,0,1,.81-.55c.4-.1.61.07.55.47s-.19,1-.28,1.53c0,.18-.17.42,0,.52s.35-.12.47-.26a3.46,3.46,0,0,0,1-2,.38.38,0,0,1,.54-.28c.12,0,0,.14,0,.2l-.42,2,0,.22c0,.25.09.3.32.19S38.81,44.11,39.06,44Z"/><path class="cls-1" d="M78.93,44a1.19,1.19,0,0,1-1.19.8c-.22-.08-.24-.25-.24-.45a6.24,6.24,0,0,0,.1-.8,1.94,1.94,0,0,0-.34.46,2.1,2.1,0,0,1-.73.72c-.46.22-.8,0-.74-.49s.2-1.08.29-1.62c0-.16.15-.37,0-.47s-.32.07-.45.18-.22.2-.35.32a1.17,1.17,0,0,1,1.17-.8c.25.07.29.27.25.48-.08.48-.17.94-.26,1.41a.29.29,0,0,0,0,.09c0,.19-.19.44.06.55s.34-.13.47-.27a3.47,3.47,0,0,0,1-2,.38.38,0,0,1,.52-.27c.14.07,0,.18,0,.26-.13.64-.27,1.28-.4,1.91,0,.15-.11.34,0,.43s.32-.05.46-.15Z"/><path class="cls-2" d="M70.69,36.25V34.9c0-.17,0-.26.24-.23.46.07.91-.08,1.37,0a1.09,1.09,0,0,1,.9,1.17,1.07,1.07,0,0,1-1,.94,5,5,0,0,1-.67,0c-.22,0-.29.11-.28.3s0,.3,0,.45-.15.24-.32.25-.3,0-.3-.27c0-.45,0-.9,0-1.34Zm.59-.51v.39c0,.09,0,.18.12.18a1.37,1.37,0,0,0,1-.13.42.42,0,0,0,.19-.36c0-.4-.11-.53-.65-.6S71.27,35.15,71.28,35.74Z"/><path class="cls-2" d="M39.55,34.68a2.47,2.47,0,0,1,1.13.15,1.12,1.12,0,0,1,.49,1.22,1.29,1.29,0,0,1-1.5.8c-.24,0-.33,0-.35.25a3.71,3.71,0,0,0,0,.58c0,.15,0,.21-.18.19-.41,0-.41,0-.41-.44,0-.82,0-1.65,0-2.47,0-.23.08-.28.28-.28Zm-.26,1.11c0,.57,0,.57.59.54a1.57,1.57,0,0,0,.3,0,.49.49,0,0,0,.4-.5c0-.36-.17-.53-.63-.58S39.28,35.2,39.29,35.79Z"/><path class="cls-1" d="M69,42.6c.08-.45.85-.93,1.24-.75.2.08.2.27.19.44s-.08.48-.12.73c.17,0,.18-.15.24-.23a2.42,2.42,0,0,1,.86-.88.58.58,0,0,1,.64,0,.54.54,0,0,1,.16.59c-.1.55-.22,1.09-.32,1.64,0,.12-.09.26,0,.34s.25,0,.36-.08l.45-.36c.07.06,0,.13,0,.17a1.65,1.65,0,0,1-.84.58c-.37.09-.6-.1-.53-.49s.19-1,.29-1.56a2,2,0,0,0,0-.24c0-.26-.11-.34-.34-.21a1.4,1.4,0,0,0-.33.26,3.6,3.6,0,0,0-1,1.91.39.39,0,0,1-.53.31c-.13-.05,0-.14,0-.21l.42-2c0-.12.09-.28,0-.37s-.27,0-.38.1A5.19,5.19,0,0,0,69,42.6Z"/><path class="cls-1" d="M19.49,43a11.43,11.43,0,0,1,.89-.94,2,2,0,0,1,.31-.19c.46-.18.77,0,.7.53s-.2,1.06-.29,1.59c0,.16-.15.37,0,.48s.34-.08.48-.19.21-.19.32-.29a1.15,1.15,0,0,1-1.17.78.34.34,0,0,1-.24-.43c.09-.5.19-1,.28-1.5,0-.2.19-.47,0-.59s-.43.12-.58.29a3.5,3.5,0,0,0-1,1.94.36.36,0,0,1-.49.25c-.1-.07-.06-.2,0-.3.13-.59.26-1.18.37-1.77,0-.17.18-.41,0-.52s-.37.11-.53.23-.14.19-.27.23a1.15,1.15,0,0,1,1.13-.76.34.34,0,0,1,.29.4C19.56,42.48,19.53,42.74,19.49,43Z"/><path class="cls-1" d="M51.42,42c.08-.06.13-.17.26-.15s.35-.09.42-.33a1.93,1.93,0,0,1,2.26-1.36c-.17.19-.23.45-.6.3a.72.72,0,0,0-1,.46v0c-.09.26-.26.57-.17.79s.49,0,.74.11c0,0,.1,0,.14,0-.07.21-.22.21-.41.19-.54,0-.55,0-.65.49A21.2,21.2,0,0,1,52,44.82a2,2,0,0,1-1.38,1.58,1.9,1.9,0,0,1-.89,0c.18-.24.31-.41.65-.32a.72.72,0,0,0,1-.57,14.39,14.39,0,0,0,.36-1.85c.08-.43.13-.87.22-1.3,0-.23,0-.35-.24-.32A.26.26,0,0,1,51.42,42Z"/><path class="cls-1" d="M57.26,43.48a4.31,4.31,0,0,1-.75,1,1.16,1.16,0,0,1-.36.23.56.56,0,0,1-.87-.46,2.37,2.37,0,0,1,1.94-2.39c.25,0,.49,0,.74,0s.25.08.2.28c-.19.64-.28,1.31-.42,2,0,.12-.09.27,0,.36s.27,0,.38-.1.29-.25.44-.38c0,.22-.12.3-.23.4a2.19,2.19,0,0,1-.39.29.63.63,0,0,1-.67.05c-.21-.14-.14-.38-.11-.59s.06-.4.1-.6a.12.12,0,0,0,0-.14Zm-1.42.45c0,.15,0,.34.15.42s.31,0,.43-.14a4.27,4.27,0,0,0,.63-.71,2.31,2.31,0,0,0,.5-1.06c0-.11,0-.2-.1-.25-.48-.16-.86-.18-1.17.32A2.93,2.93,0,0,0,55.84,43.93Z"/><path class="cls-2" d="M54.31,34.65h1c.18,0,.29.08.28.24s0,.31-.23.33-.19.06-.27,0c-.33-.09-.45,0-.5.36a9,9,0,0,0,0,1.64c0,.1,0,.19,0,.28s0,.39-.27.36-.43,0-.41-.37c0-.64,0-1.28,0-1.92,0-.22-.08-.32-.3-.33a3.4,3.4,0,0,0-.45,0c-.23,0-.27-.13-.27-.31s.13-.28.32-.28Z"/><path class="cls-2" d="M3.24,36.58a7.53,7.53,0,0,0-.05-1.12c0-.2-.14-.25-.31-.22a1.7,1.7,0,0,1-.39,0c-.28,0-.28-.21-.28-.38s.18-.17.34-.18l2,0c.32,0,.36.06.36.37s-.19.22-.32.24c-.68.1-.68.1-.68.8,0,.52,0,1,0,1.55,0,.21-.05.29-.28.27s-.36,0-.36-.29S3.24,37,3.24,36.58Z"/><path class="cls-2" d="M91.08,36.62c0,.33,0,.65,0,1s-.21.28-.39.3-.21-.14-.21-.29c0-.67,0-1.35,0-2,0-.31-.11-.38-.43-.35h-.3c-.24,0-.26-.15-.26-.33s.11-.25.29-.26a15.45,15.45,0,0,0,1.8,0c.36-.06.6.17.55.45a.18.18,0,0,1-.18.17l-.39,0c-.4,0-.44,0-.45.41S91.08,36.3,91.08,36.62Z"/><path class="cls-2" d="M79.55,36.62c0-.32,0-.65,0-1s-.08-.41-.44-.39a2.45,2.45,0,0,0-.27,0c-.29,0-.27-.14-.28-.34s.14-.2.3-.21a18.13,18.13,0,0,0,2,0c.17,0,.36,0,.37.25s-.06.35-.32.33c-.75,0-.68,0-.68.69s0,1.1,0,1.65c0,.27-.14.31-.33.31s-.31-.08-.3-.31,0-.63,0-1Z"/><path class="cls-1" d="M50.87,42.8a2.08,2.08,0,0,1-1.71,2,.83.83,0,0,1-.94-.79,2.21,2.21,0,0,1,1.39-2.12A.89.89,0,0,1,50.87,42.8Zm-.57.13a1.41,1.41,0,0,0,0-.46c-.06-.19-.1-.39-.36-.43a.6.6,0,0,0-.59.23,2.12,2.12,0,0,0-.45,1.89.49.49,0,0,0,.77.3,1.06,1.06,0,0,0,.36-.37A2.28,2.28,0,0,0,50.3,42.93Z"/><path class="cls-1" d="M64.13,44.1a2.29,2.29,0,0,0,1-2.24c.2,0,.42-.16.57,0a.56.56,0,0,1,0,.68c-.5.75-1.14,1.38-1.7,2.07a.27.27,0,0,1-.28.1c-.11,0,0-.16,0-.24a6.17,6.17,0,0,0-.18-1.66,1.48,1.48,0,0,0-.13-.35c-.19-.36-.46-.4-.76-.11-.1.1-.18.21-.28.32a1.13,1.13,0,0,1,.87-.91.72.72,0,0,1,.72.55,4.49,4.49,0,0,1,.24,1.5C64.09,43.93,64.06,44,64.13,44.1Z"/><path class="cls-1" d="M42.24,40.18c-.19.25-.34.38-.67.28-.49-.15-.8.08-1,.61a10.81,10.81,0,0,0-.33,1.39c-.11.57-.23,1.14-.33,1.71,0,.09-.06.21,0,.28s.21,0,.31-.05l.57-.45a1.24,1.24,0,0,1-1.19.82c-.27-.06-.29-.29-.26-.5.06-.4.13-.79.21-1.18a8.81,8.81,0,0,1,.46-1.8,1.88,1.88,0,0,1,2-1.16Z"/><path class="cls-1" d="M45.8,44a.22.22,0,0,1-.11.24,2.91,2.91,0,0,1-1.17.5.82.82,0,0,1-1-.72,2.14,2.14,0,0,1,1.59-2.23.57.57,0,0,1,.68.75,1.47,1.47,0,0,1-1.19,1,.5.5,0,0,1-.12,0c-.16.06-.45-.08-.41.29s.22.61.53.62a1.56,1.56,0,0,0,.73-.19Zm-.46-1.56c0-.35-.22-.5-.52-.33a1.52,1.52,0,0,0-.7,1.15c0,.06,0,.11.07.13A1.13,1.13,0,0,0,45.34,42.47Z"/><path class="cls-2" d="M87.09,35.89a8.34,8.34,0,0,1,0,1.1c0,.23.07.34.31.33h1.1c.23,0,.23.13.24.29s-.07.25-.25.25H86.72c-.19,0-.25-.09-.26-.26,0-.87,0-1.74,0-2.62,0-.17,0-.36.29-.33s.36.09.34.36A8.4,8.4,0,0,0,87.09,35.89Z"/><path class="cls-1" d="M68.55,44c0,.11,0,.19-.07.22a2.75,2.75,0,0,1-1.28.54.78.78,0,0,1-.88-.63,1.57,1.57,0,0,1,.2-1.19,2.62,2.62,0,0,1,.75-.9,1.53,1.53,0,0,1,.61-.24c.48-.07.78.22.68.7s-.61.84-1.14,1a1.49,1.49,0,0,0-.18,0c-.14.06-.4-.09-.4.22s.17.64.48.67a1.58,1.58,0,0,0,.9-.24Zm-.46-1.54c0-.36-.23-.51-.54-.33a1.59,1.59,0,0,0-.68,1.13c0,.08,0,.13.1.14A1.11,1.11,0,0,0,68.09,42.48Z"/><path class="cls-1" d="M24.49,44a1.42,1.42,0,0,1,0,.15,2.09,2.09,0,0,1-1.64.58.73.73,0,0,1-.6-.65,2.16,2.16,0,0,1,1.47-2.27.65.65,0,0,1,.68.15.64.64,0,0,1,.06.7,1.58,1.58,0,0,1-1.26.89c-.14,0-.35-.06-.4.12a.69.69,0,0,0,.12.58.53.53,0,0,0,.57.19A2.88,2.88,0,0,0,24.49,44ZM24,42.5c0-.14,0-.3-.13-.38a.41.41,0,0,0-.46.06,1.75,1.75,0,0,0-.62,1.12c0,.06,0,.11.08.12A1.1,1.1,0,0,0,24,42.5Z"/><path class="cls-1" d="M84.48,44c0,.11,0,.18-.06.22a2.71,2.71,0,0,1-1.28.54.83.83,0,0,1-.91-.68,2.17,2.17,0,0,1,1.59-2.29.55.55,0,0,1,.69.65,1.11,1.11,0,0,1-.6.84,1.75,1.75,0,0,1-.92.28c-.19,0-.23.09-.22.27a.6.6,0,0,0,.81.6A3.09,3.09,0,0,0,84.48,44ZM84,42.49c0-.14,0-.29-.14-.38a.4.4,0,0,0-.43.06,1.76,1.76,0,0,0-.66,1.13c0,.07,0,.11.09.13A1.13,1.13,0,0,0,84,42.49Z"/><path class="cls-1" d="M74.71,44.07a1,1,0,0,1-1.25.65.48.48,0,0,1-.19-.57c.08-.52.19-1,.29-1.56,0,0,0,0,0-.06.09-.44.09-.44-.36-.47l-.1,0c0-.13.13-.2.25-.18.34.06.41-.14.42-.4s.2-.4.47-.43c.1,0,.14,0,.13.12s-.24.52,0,.68.45,0,.69,0h.14c0,.21-.18.23-.36.22-.6,0-.61,0-.72.56s-.19.9-.27,1.35c0,.15-.1.32.06.43s.3,0,.43-.08S74.55,44.17,74.71,44.07Z"/><path class="cls-1" d="M79,42.66a1.39,1.39,0,0,1,1.13-.86c.24,0,.32.18.34.4s-.09.57-.11.94a6.41,6.41,0,0,1,.64-.86,1.24,1.24,0,0,1,.82-.47c.12,0,.34-.05.3.13s-.17.43-.36.37a.65.65,0,0,0-.74.28,3.21,3.21,0,0,0-1,1.86.42.42,0,0,1-.54.29c-.11-.06,0-.14,0-.21.13-.66.27-1.31.4-2,0-.15.1-.32-.06-.42s-.29,0-.41.13S79.12,42.5,79,42.66Z"/><path class="cls-2" d="M57,36.25c0-.44,0-.88,0-1.31a.3.3,0,0,1,.31-.35c.16,0,.39,0,.38.35,0,.9,0,1.81,0,2.71,0,.17,0,.28-.25.25s-.41,0-.41-.28V36.25Z"/><path class="cls-1" d="M40.79,44.62c.15-.24.3-.41.6-.2a.82.82,0,0,0,.35.09.5.5,0,0,0,.52-.24c.11-.19,0-.35-.12-.5s-.26-.3-.4-.46a.84.84,0,0,1,.48-1.47,1.29,1.29,0,0,1,.39,0c.46,0,.52.11.39.54,0,.06,0,.13-.11.13s-.09-.06-.1-.12c0-.24-.18-.3-.37-.32a.51.51,0,0,0-.52.19.42.42,0,0,0,.07.51,6.26,6.26,0,0,0,.41.49c.53.61.4,1.16-.34,1.45A1.48,1.48,0,0,1,40.79,44.62Z"/><path class="cls-2" d="M50.92,36.29c0-.45,0-.91,0-1.37,0-.2.07-.27.27-.27s.36,0,.36.25c0,.92,0,1.84,0,2.75,0,.31-.27.21-.44.24s-.18-.12-.18-.25C50.92,37.19,50.93,36.74,50.92,36.29Z"/><path class="cls-2" d="M98.36,36.63a.57.57,0,0,1-.64-.63.64.64,0,0,1,.66-.61A.65.65,0,0,1,99,36,.59.59,0,0,1,98.36,36.63Z"/><path class="cls-2" d="M1.25,36c0,.42-.2.61-.63.6A.56.56,0,0,1,0,36a.63.63,0,0,1,.66-.64A.62.62,0,0,1,1.25,36Z"/><path class="cls-1" d="M11.44,40.12c0,.14-.11.16-.18.2-.33.19-.39.44-.14.72s.14.23,0,.31-.19.28-.39,0a.67.67,0,0,1-.07-.79A.82.82,0,0,1,11.44,40.12Z"/><path class="cls-1" d="M10.31,40.15c0,.11-.12.13-.19.17-.33.19-.38.44-.14.71s.11.24-.05.36-.22.16-.38,0a.65.65,0,0,1,0-.78A.71.71,0,0,1,10.31,40.15Z"/><path class="cls-1" d="M85.54,41.54c0-.14.11-.16.17-.2.34-.2.38-.42.13-.73-.11-.13-.12-.22,0-.31s.21-.24.4,0a.66.66,0,0,1,0,.78A.76.76,0,0,1,85.54,41.54Z"/><path class="cls-1" d="M86.67,41.51c0-.13.13-.14.21-.19a.41.41,0,0,0,.12-.68c-.14-.16-.13-.24,0-.37s.25-.12.38,0,.12.55,0,.82A.69.69,0,0,1,86.67,41.51Z"/><path class="cls-2" d="M82.68,37.54c0,.24,0,.38-.33.37s-.35-.14-.35-.4.1-.35.36-.35S82.72,37.29,82.68,37.54Z"/></g></g></svg>