<svg width="391" height="410" viewBox="0 0 391 410" fill="none" xmlns="http://www.w3.org/2000/svg">
<circle cx="54.7692" cy="355.154" r="45.7692" stroke="white" stroke-width="17.5"/>
<circle cx="54.7692" cy="227.269" r="45.7692" stroke="white" stroke-width="17.5"/>
<circle cx="54.7692" cy="100.731" r="45.7692" stroke="white" stroke-width="17.5"/>
<circle cx="182.654" cy="355.154" r="45.7692" stroke="white" stroke-width="17.5"/>
<circle cx="182.654" cy="227.269" r="45.7692" stroke="white" stroke-width="17.5"/>
<circle cx="182.654" cy="100.731" r="45.7692" stroke="white" stroke-width="17.5"/>
<ellipse cx="309.865" cy="355.154" rx="46.4423" ry="45.7692" stroke="white" stroke-width="17.5"/>
<ellipse cx="309.865" cy="227.269" rx="46.4423" ry="45.7692" stroke="white" stroke-width="17.5"/>
<circle cx="336.115" cy="54.9616" r="45.7692" fill="white" stroke="white" stroke-width="17.5"/>
<path d="M53.4229 145.154V182.846" stroke="white" stroke-width="22.8846"/>
<path d="M182.654 145.154V182.846" stroke="white" stroke-width="22.8846"/>
<path d="M53.4229 273.039V310.731" stroke="white" stroke-width="22.8846"/>
<path d="M91.71 253.649L146.85 321.885" stroke="white" stroke-width="22.8846"/>
<path d="M91.71 126.138L146.85 194.374" stroke="white" stroke-width="22.8846"/>
<path d="M182.654 273.039V310.731" stroke="white" stroke-width="22.8846"/>
<path d="M138.23 361.885L100.538 361.885" stroke="white" stroke-width="22.8846"/>
<path d="M264.77 361.885L228.423 361.885" stroke="white" stroke-width="22.8846"/>
<path d="M264.77 228.616L228.423 228.616" stroke="white" stroke-width="22.8846"/>
<path d="M310.538 273.039V310.731" stroke="white" stroke-width="22.8846"/>
</svg>
