<svg width="95" height="36" viewBox="0 0 95 36" fill="none" xmlns="http://www.w3.org/2000/svg">
<path fill-rule="evenodd" clip-rule="evenodd" d="M17.4087 0.136399C17.5906 -0.045466 17.8854 -0.0454663 18.0673 0.136398L20.9948 3.06395L20.9955 3.06465L25.2353 7.30438L25.2394 7.30851L28.167 10.2361L28.1712 10.2403L35.3394 17.4085C35.5213 17.5904 35.5213 17.8852 35.3394 18.0671L32.4118 20.9947C32.23 21.1765 31.9351 21.1765 31.7533 20.9947L17.7379 6.9793L13.831 10.8862L13.8227 10.8947L10.8952 13.8222L10.8867 13.8304L3.72254 20.9946C3.54068 21.1765 3.24581 21.1765 3.06395 20.9946L0.136399 18.0671C-0.045466 17.8852 -0.0454663 17.5904 0.136398 17.4085L16.2131 1.33177L16.221 1.32408L17.4087 0.136399ZM17.4087 14.4807C17.5906 14.2989 17.8854 14.2989 18.0673 14.4807L20.9948 17.4083L20.9953 17.4088L25.2261 21.6395C25.2308 21.6439 25.2355 21.6484 25.2402 21.653L28.1677 24.5806C28.3496 24.7625 28.3496 25.0573 28.1677 25.2392L18.0679 35.339C17.886 35.5209 17.5912 35.5209 17.4093 35.339L14.4817 32.4115C14.2999 32.2296 14.2999 31.9347 14.4817 31.7529L21.3244 24.9102L17.4087 20.9944L14.4811 18.0669C14.4584 18.0441 14.4385 18.0196 14.4215 17.9938C14.3021 17.8131 14.322 17.5674 14.4811 17.4083L17.4087 14.4807ZM10.8952 21.653C10.7133 21.4712 10.4185 21.4712 10.2366 21.653L7.30905 24.5806C7.12718 24.7625 7.12718 25.0573 7.30905 25.2392L10.2366 28.1667C10.4185 28.3486 10.7133 28.3486 10.8952 28.1667L13.8227 25.2392C14.0046 25.0573 14.0046 24.7625 13.8227 24.5806L10.8952 21.653Z" fill="#07073F"/>
<rect x="10.5659" y="21.3237" width="5.07157" height="5.07157" rx="0.465694" transform="rotate(45 10.5659 21.3237)" fill="#1DB954"/>
<path fill-rule="evenodd" clip-rule="evenodd" d="M48.8377 7H47.007L45.9056 10.5432L43.4758 11.6244V13.0796H45.8505V22.6064C45.8505 24.3225 46.2588 25.6279 47.1026 26.5042C47.9474 27.3815 49.2124 27.8116 50.8873 27.8116C51.419 27.8116 51.9916 27.7744 52.5283 27.6615C53.0967 27.5498 53.4808 27.4372 53.7533 27.3225L53.8133 27.2973V25.0131L53.6753 25.0712C53.4238 25.1771 53.0951 25.2497 52.6062 25.3236L52.605 25.3238C52.1569 25.3971 51.7478 25.4335 51.3773 25.4335C50.5676 25.4335 49.9189 25.1805 49.5279 24.7617L49.5275 24.7613C49.0607 24.2676 48.8377 23.5551 48.8377 22.6064V13.1166H53.7002V10.8125H48.8377V7ZM48.6398 7.09727H48.7388V7.09711H48.6398V7.09727ZM53.5023 10.9098H53.6013V10.9097H53.5023V10.9098ZM68.6032 10.4793C66.4656 10.4793 64.7394 11.2306 63.4748 12.811C62.2122 14.3517 61.6064 16.4859 61.6064 19.1639C61.6064 21.9168 62.2505 24.051 63.4752 25.5543C64.7402 27.0976 66.4663 27.8485 68.6786 27.8485C71.0288 27.8485 72.7725 27.0576 73.9262 25.4321L73.8603 27.2101H73.7437V27.9364C73.7437 29.399 73.3346 30.5189 72.5288 31.3102C71.722 32.1024 70.6186 32.5032 69.2063 32.5032C66.7296 32.5032 64.636 32.0609 63.0336 31.2192L62.888 31.1427V33.8845L62.9461 33.9103C64.5458 34.6209 66.5962 34.9924 69.0556 34.9924C71.633 34.9924 73.5855 34.3598 74.8173 33.1502C76.086 31.9043 76.6932 30.0988 76.6932 27.7143V10.7754H74.3242L73.9473 12.9963H73.9303C72.6687 11.3302 70.9137 10.4793 68.6032 10.4793ZM86.0554 10.4793C83.9178 10.4793 82.1916 11.2306 80.927 12.811C79.6644 14.3517 79.0586 16.4859 79.0586 19.1639C79.0586 21.9168 79.7027 24.051 80.9274 25.5543C82.1924 27.0976 83.9185 27.8485 86.1308 27.8485C88.481 27.8485 90.2247 27.0576 91.3783 25.4321L91.3125 27.2101H91.1959V27.9364C91.1959 29.399 90.7868 30.5189 89.981 31.3102C89.1742 32.1024 88.0708 32.5032 86.6585 32.5032C84.1818 32.5032 82.0882 32.0609 80.4858 31.2192L80.3401 31.1427V33.8845L80.3983 33.9103C81.998 34.6209 84.0484 34.9924 86.5078 34.9924C89.0852 34.9924 91.0377 34.3598 92.2695 33.1502C93.5382 31.9043 94.1454 30.0988 94.1454 27.7143V10.7754H91.7764L91.3995 12.9963H91.3825C90.1209 11.3302 88.3659 10.4793 86.0554 10.4793ZM59.3164 10.7753H56.3669V27.5523H59.3164V10.7753ZM65.8209 14.5538C66.5553 13.4721 67.6165 12.9314 69.0179 12.9314C70.731 12.9314 71.9416 13.4424 72.7091 14.4115C73.48 15.3848 73.8568 16.9493 73.8568 19.1639V19.8301C73.8568 21.8215 73.4803 23.2354 72.7127 24.0969L72.7099 24.1003C71.9823 24.9934 70.7738 25.4333 69.0933 25.4333C67.6511 25.4333 66.5528 24.9273 65.7822 23.8466C65.0447 22.7963 64.669 21.2276 64.669 19.2009C64.669 17.1749 65.0445 15.6431 65.8196 14.5557L65.8209 14.5538ZM83.3108 14.5538C84.0451 13.4721 85.1064 12.9314 86.5078 12.9314C88.2209 12.9314 89.4315 13.4424 90.199 14.4115C90.9699 15.3848 91.3467 16.9493 91.3467 19.1639V19.8301C91.3467 21.8215 90.9702 23.2354 90.2026 24.0969L90.1998 24.1003C89.4722 24.9934 88.2637 25.4333 86.5831 25.4333C85.1021 25.4333 84.0053 24.9265 83.2731 23.8479L83.2722 23.8467C82.5346 22.7965 82.1589 21.2277 82.1589 19.2009C82.1589 17.1749 82.5343 15.6431 83.3095 14.5556L83.3108 14.5538Z" fill="#07073F"/>
</svg>
