<?xml version="1.0" encoding="utf-8"?>
<!-- Generator: Adobe Illustrator 26.0.1, SVG Export Plug-In . SVG Version: 6.00 Build 0)  -->
<svg version="1.0" id="Layer_1" xmlns="http://www.w3.org/2000/svg" xmlns:xlink="http://www.w3.org/1999/xlink" x="0px" y="0px"
	 viewBox="0 0 3000 3000" style="enable-background:new 0 0 3000 3000;" xml:space="preserve">
<g>
	<g id="XMLID_00000088814072756981546860000010093822110888605090_">
		<g>
			<path style="fill:#312e81;" d="M1282.59,2251.65l-98.27,421.16c-12.47,53.63-57.5,91.2-109.09,91.2H700.71
				c-50.61,0-94.98-36.16-108.44-88.39l-146-568.45c77.76-1.32,156.58,6.85,240.58,20.72
				C885.11,2163.69,1084.18,2210.66,1282.59,2251.65z"/>
			<path style="fill:#312e81;" d="M2511.15,2273.07l-103.43,402.55c-13.37,52.23-57.75,88.39-108.44,88.39h-382.15
				c-51.84,0-96.95-37.92-109.26-91.82l-78.83-345.76C1993.33,2356.46,2254.99,2352.33,2511.15,2273.07z"/>
			<path style="fill:#312e81;" d="M1728.48,2323.8c264.69,30.02,526.84,26.07,783.41-53.46l-0.74,2.72
				c-256.16,79.26-517.82,83.39-782.1,53.37L1728.48,2323.8z"/>

			<path style="fill:#6366f1;" d="M1932.23,1017.48c-275.68-37.92-552.84-105.6-827.79-176.87l106.06-510.43
				c11.4-55.04,57.09-94.19,109.75-94.19h355.99c52.5,0,97.94,38.89,109.58,93.66L1932.23,1017.48z"/>
			<path style="fill:#6366f1;" d="M2886.99,238.89c74.23,0,128.12,75.67,108.44,152.3l-156.83,610.32
				c-194.23,43.45-391.42,56.18-590,48.01l158.55-717.94c12.06-54.33,57.33-92.69,109.5-92.69H2886.99z"/>
			<path style="fill:#6366f1;" d="M577.19,330.61l92.2,402.46c-191.61-35.9-388.06-25.72-567.44,36.69L4.57,391.18
				c-19.69-76.63,34.2-152.3,108.44-152.3h354.92C519.77,238.89,564.8,276.81,577.19,330.61z"/>

			<path style="fill:#4f46e5;" d="M2692.18,1571.28c-190.38,94.36-390.19,158.62-596.81,181.17l-0.57-6.41l153.8-696.52
				c198.58,8.16,395.77-4.56,590-48.01L2692.18,1571.28z"/>
			<path style="fill:#4f46e5;" d="M2094.8,1746.04l0.57,6.41c-149.2,16.59-301.85,11.32-457.04-19.84
				c-15.83-3.07-31.66-6.32-47.49-9.66l-19.77-86.73c-28.46-123.68-52.09-242.97-71.03-357.87h-8.12
				c-33.88,195.66-58.24,326.36-73.08,391.93l-2.38,10.36c-154.7-41.61-306.36-91.73-457.37-137.29l145.35-699.86
				c274.95,71.36,552.11,138.95,827.79,176.87l154.45,725.67H2094.8z"/>
			<path style="fill:#4f46e5;" d="M669.38,733.08l178.07,777.72c-191.77-53.98-383.46-95.06-579.83-96.03l-165.69-645
				C281.32,707.36,477.77,697.18,669.38,733.08z"/>

			<path style="fill:#4338ca;" d="M445.54,2104.36l0.74,2.81c-0.25,0-0.49,0-0.74,0l-177.91-692.13
				c196.37,0.97,388.06,42.05,579.83,96.03l57.83,252.28h8.12l45.69-219.71c151.01,45.56,302.67,95.68,457.37,137.29l-133.21,570.82
				c-0.25-0.09-0.41-0.09-0.66-0.09l0.66-2.72c-198.66-40.99-397.9-88.04-596.4-123.86C602.61,2111.2,523.54,2102.95,445.54,2104.36
				z"/>
			<path style="fill:#4338ca;" d="M2511.89,2272.89c-0.25,0.09-0.49,0.18-0.74,0.18l0.74-2.72
				c-256.57,79.53-518.72,83.48-783.41,53.46l0.57,2.63c-0.16-0.09-0.41-0.09-0.57-0.09l-137.64-603.39
				c15.83,3.34,31.66,6.58,47.49,9.66c155.19,31.16,307.84,36.43,457.04,19.84c206.62-22.56,406.43-86.81,596.81-181.17
				L2511.89,2272.89z"/>
			<path style="fill:#4338ca;" d="M686.85,2127.88c-83.99-13.87-162.82-22.03-240.58-20.72l-0.74-2.81
				c78.01-1.4,157.08,6.85,241.32,20.72c198.5,35.81,397.74,82.86,596.4,123.86l-0.66,2.72
				C1084.18,2210.66,885.11,2163.69,686.85,2127.88z"/>
		</g>
	</g>
</g>
<rect x="941.59" y="2206.68" transform="matrix(-1 -1.224647e-16 1.224647e-16 -1 1883.1779 4413.3516)" style="fill:#1A2828;" width="0" height="0"/>
</svg>